<svg width="226" height="34" viewBox="0 0 226 34" fill="none" xmlns="http://www.w3.org/2000/svg">
<path d="M-0.00013274 31.8721V31.8241C-0.00013274 30.6721 0.575867 30.0961 1.72787 30.0961H1.77587C2.92787 30.0961 3.50387 30.6721 3.50387 31.8241V31.8721C3.50387 33.0241 2.92787 33.6001 1.77587 33.6001H1.72787C0.575867 33.6001 -0.00013274 33.0241 -0.00013274 31.8721ZM-0.00013274 28.1281V28.0801C-0.00013274 26.9281 0.575867 26.3521 1.72787 26.3521H1.77587C2.92787 26.3521 3.50387 26.9281 3.50387 28.0801V28.1281C3.50387 29.2801 2.92787 29.8081 1.77587 29.8081H1.72787C0.575867 29.8081 -0.00013274 29.2801 -0.00013274 28.1281ZM-0.00013274 24.3361C-0.00013274 23.1841 0.575867 22.6081 1.72787 22.6081H1.77587C2.92787 22.6081 3.50387 23.1841 3.50387 24.3361C3.50387 25.4881 2.92787 26.0641 1.77587 26.0641H1.72787C0.575867 26.0641 -0.00013274 25.4881 -0.00013274 24.3361ZM3.79187 31.8721V31.8241C3.79187 30.6721 4.31987 30.0961 5.47187 30.0961H5.51987C6.67187 30.0961 7.24787 30.6721 7.24787 31.8241V31.8721C7.24787 33.0241 6.67187 33.6001 5.51987 33.6001H5.47187C4.31987 33.6001 3.79187 33.0241 3.79187 31.8721ZM7.53587 31.8721V31.8241C7.53587 30.6721 8.11187 30.0961 9.26387 30.0961C10.4159 30.0961 10.9919 30.6721 10.9919 31.8241V31.8721C10.9919 33.0241 10.4159 33.6001 9.26387 33.6001C8.11187 33.6001 7.53587 33.0241 7.53587 31.8721ZM13.0559 30.0961C14.2079 30.0961 14.3519 30.5281 13.5839 31.3441L12.5279 32.4001C12.1919 32.7361 11.9519 32.8801 11.7599 32.8801C11.4719 32.8801 11.3279 32.5441 11.3279 31.8721V31.8241C11.3279 30.6721 11.9039 30.0961 13.0559 30.0961ZM1.19987 21.0721L2.25587 20.0161C2.59187 19.6801 2.87987 19.5361 3.07187 19.5361C3.35987 19.5361 3.50387 19.8721 3.50387 20.5441C3.50387 21.6961 2.92787 22.2721 1.77587 22.2721H1.72787C0.575867 22.2721 0.383867 21.8881 1.19987 21.0721ZM3.79187 20.5441C3.79187 19.3921 4.31987 18.8161 5.47187 18.8161H5.51987C6.67187 18.8161 6.81587 19.2481 5.99987 20.0641L4.99187 21.0721C4.65587 21.4081 4.41587 21.5521 4.22387 21.5521C3.93587 21.5521 3.79187 21.2161 3.79187 20.5441ZM5.51987 18.5281H5.47187C4.31987 18.5281 4.17587 18.0961 4.99187 17.2801L5.99987 16.2721C6.33587 15.9361 6.62387 15.7441 6.81587 15.7441C7.10387 15.7441 7.24787 16.0801 7.24787 16.7521V16.8001C7.24787 17.9521 6.67187 18.5281 5.51987 18.5281ZM7.53587 16.8001V16.7521C7.53587 15.6001 8.11187 15.0721 9.26387 15.0721C10.4159 15.0721 10.6079 15.4561 9.79187 16.2721L8.73587 17.2801C8.39987 17.6161 8.15987 17.8081 7.96787 17.8081C7.67987 17.8081 7.53587 17.4721 7.53587 16.8001ZM1.72787 3.7921H1.77587C2.92787 3.7921 3.07187 4.1761 2.25587 4.9921L1.19987 6.0001C0.863867 6.3361 0.575867 6.5281 0.383867 6.5281C0.143867 6.5281 -0.00013274 6.1921 -0.00013274 5.5201V5.4721C-0.00013274 4.3201 0.575867 3.7921 1.72787 3.7921ZM9.26387 14.7841C8.11187 14.7841 7.91987 14.3521 8.73587 13.5361L9.79187 12.4801C10.1279 12.1441 10.3679 12.0001 10.5599 12.0001C10.8479 12.0001 10.9919 12.3361 10.9919 13.0081V13.0561C10.9919 14.2081 10.4159 14.7841 9.26387 14.7841ZM13.0559 11.2801C14.2079 11.2801 14.3519 11.6641 13.5839 12.4801L12.5279 13.5361C12.1919 13.8721 11.9039 14.0641 11.7119 14.0641C11.4719 14.0641 11.3279 13.7281 11.3279 13.0561V13.0081C11.3279 11.8561 11.9039 11.2801 13.0559 11.2801ZM3.50387 1.7281C3.50387 2.8801 2.92787 3.4561 1.77587 3.4561H1.72787C0.575867 3.4561 0.383867 3.0721 1.19987 2.25609L2.25587 1.2001C2.59187 0.864096 2.87987 0.720095 3.07187 0.720095C3.35987 0.720095 3.50387 1.0561 3.50387 1.7281ZM3.79187 1.7281C3.79187 0.576097 4.31987 9.53674e-05 5.47187 9.53674e-05H5.51987C6.67187 9.53674e-05 7.24787 0.576097 7.24787 1.7281C7.24787 2.8801 6.67187 3.4561 5.51987 3.4561H5.47187C4.31987 3.4561 3.79187 2.8801 3.79187 1.7281ZM7.53587 1.7281C7.53587 0.576097 8.11187 9.53674e-05 9.26387 9.53674e-05C10.4159 9.53674e-05 10.9919 0.576097 10.9919 1.7281C10.9919 2.8801 10.4159 3.4561 9.26387 3.4561C8.11187 3.4561 7.53587 2.8801 7.53587 1.7281ZM11.3279 5.5201V5.4721C11.3279 4.3201 11.9039 3.7921 13.0559 3.7921C14.2079 3.7921 14.7839 4.3201 14.7839 5.4721V5.5201C14.7839 6.6721 14.2079 7.2481 13.0559 7.2481C11.9039 7.2481 11.3279 6.6721 11.3279 5.5201ZM11.3279 9.2641C11.3279 8.1121 11.9039 7.5361 13.0559 7.5361C14.2079 7.5361 14.7839 8.1121 14.7839 9.2641C14.7839 10.4161 14.2079 10.9921 13.0559 10.9921C11.9039 10.9921 11.3279 10.4161 11.3279 9.2641ZM11.3279 1.7281C11.3279 0.576097 11.9039 9.53674e-05 13.0559 9.53674e-05C14.2079 9.53674e-05 14.7839 0.576097 14.7839 1.7281C14.7839 2.8801 14.2079 3.4561 13.0559 3.4561C11.9039 3.4561 11.3279 2.8801 11.3279 1.7281ZM17.8592 31.8721V31.8241C17.8592 30.6721 18.4352 30.0961 19.5872 30.0961H19.6352C20.7872 30.0961 21.3632 30.6721 21.3632 31.8241V31.8721C21.3632 33.0241 20.7872 33.6001 19.6352 33.6001H19.5872C18.4352 33.6001 17.8592 33.0241 17.8592 31.8721ZM17.8592 28.1281V28.0801C17.8592 26.9281 18.4352 26.3521 19.5872 26.3521H19.6352C20.7872 26.3521 21.3632 26.9281 21.3632 28.0801V28.1281C21.3632 29.2801 20.7872 29.8081 19.6352 29.8081H19.5872C18.4352 29.8081 17.8592 29.2801 17.8592 28.1281ZM17.8592 24.3361C17.8592 23.1841 18.4352 22.6081 19.5872 22.6081H19.6352C20.7872 22.6081 21.3632 23.1841 21.3632 24.3361C21.3632 25.4881 20.7872 26.0641 19.6352 26.0641H19.5872C18.4352 26.0641 17.8592 25.4881 17.8592 24.3361ZM21.6512 31.8721V31.8241C21.6512 30.6721 22.1792 30.0961 23.3312 30.0961H23.3792C24.5312 30.0961 25.1072 30.6721 25.1072 31.8241V31.8721C25.1072 33.0241 24.5312 33.6001 23.3792 33.6001H23.3312C22.1792 33.6001 21.6512 33.0241 21.6512 31.8721ZM25.3952 31.8721V31.8241C25.3952 30.6721 25.9712 30.0961 27.1232 30.0961C28.2752 30.0961 28.8512 30.6721 28.8512 31.8241V31.8721C28.8512 33.0241 28.2752 33.6001 27.1232 33.6001C25.9712 33.6001 25.3952 33.0241 25.3952 31.8721ZM30.9152 30.0961C32.0672 30.0961 32.2112 30.5281 31.4432 31.3441L30.3872 32.4001C30.0512 32.7361 29.8112 32.8801 29.6192 32.8801C29.3312 32.8801 29.1872 32.5441 29.1872 31.8721V31.8241C29.1872 30.6721 29.7632 30.0961 30.9152 30.0961ZM17.8592 13.0561V13.0081C17.8592 11.8561 18.4352 11.2801 19.5872 11.2801H19.6352C20.7872 11.2801 21.3632 11.8561 21.3632 13.0081V13.0561C21.3632 14.2081 20.7872 14.7841 19.6352 14.7841H19.5872C18.4352 14.7841 17.8592 14.2081 17.8592 13.0561ZM17.8592 16.8001V16.7521C17.8592 15.6001 18.4352 15.0721 19.5872 15.0721H19.6352C20.7872 15.0721 21.3632 15.6001 21.3632 16.7521V16.8001C21.3632 17.9521 20.7872 18.5281 19.6352 18.5281H19.5872C18.4352 18.5281 17.8592 17.9521 17.8592 16.8001ZM17.8592 20.5441C17.8592 19.3921 18.4352 18.8161 19.5872 18.8161H19.6352C20.7872 18.8161 21.3632 19.3921 21.3632 20.5441C21.3632 21.6961 20.7872 22.2721 19.6352 22.2721H19.5872C18.4352 22.2721 17.8592 21.6961 17.8592 20.5441ZM21.6512 20.5441C21.6512 19.3921 22.1792 18.8161 23.3312 18.8161H23.3792C24.5312 18.8161 24.6752 19.2481 23.8592 20.0641L22.8512 21.0721C22.5152 21.4081 22.2752 21.5521 22.0832 21.5521C21.7952 21.5521 21.6512 21.2161 21.6512 20.5441ZM29.1872 28.1281V28.0801C29.1872 26.9281 29.7632 26.3521 30.9152 26.3521C32.0672 26.3521 32.6432 26.9281 32.6432 28.0801V28.1281C32.6432 29.2801 32.0672 29.8081 30.9152 29.8081C29.7632 29.8081 29.1872 29.2801 29.1872 28.1281ZM23.3792 18.5281H23.3312C22.1792 18.5281 22.0352 18.0961 22.8512 17.2801L23.8592 16.2721C24.1952 15.9361 24.4832 15.7441 24.6752 15.7441C24.9632 15.7441 25.1072 16.0801 25.1072 16.7521V16.8001C25.1072 17.9521 24.5312 18.5281 23.3792 18.5281ZM25.3952 16.8001V16.7521C25.3952 15.6001 25.9712 15.0721 27.1232 15.0721C28.2752 15.0721 28.4672 15.4561 27.6512 16.2721L26.5952 17.2801C26.2592 17.6161 26.0192 17.8081 25.8272 17.8081C25.5392 17.8081 25.3952 17.4721 25.3952 16.8001ZM17.8592 5.5201V5.4721C17.8592 4.3201 18.4352 3.7921 19.5872 3.7921H19.6352C20.7872 3.7921 21.3632 4.3201 21.3632 5.4721V5.5201C21.3632 6.6721 20.7872 7.2481 19.6352 7.2481H19.5872C18.4352 7.2481 17.8592 6.6721 17.8592 5.5201ZM17.8592 9.2641C17.8592 8.1121 18.4352 7.5361 19.5872 7.5361H19.6352C20.7872 7.5361 21.3632 8.1121 21.3632 9.2641C21.3632 10.4161 20.7872 10.9921 19.6352 10.9921H19.5872C18.4352 10.9921 17.8592 10.4161 17.8592 9.2641ZM27.1232 14.7841C25.9712 14.7841 25.7792 14.3521 26.5952 13.5361L27.6512 12.4801C27.9872 12.1441 28.2272 12.0001 28.4192 12.0001C28.7072 12.0001 28.8512 12.3361 28.8512 13.0081V13.0561C28.8512 14.2081 28.2752 14.7841 27.1232 14.7841ZM29.1872 13.0561V13.0081C29.1872 11.8561 29.7632 11.2801 30.9152 11.2801C32.0672 11.2801 32.6432 11.8561 32.6432 13.0081V13.0561C32.6432 14.2081 32.0672 14.7841 30.9152 14.7841C29.7632 14.7841 29.1872 14.2081 29.1872 13.0561ZM29.1872 16.8001V16.7521C29.1872 15.6001 29.7632 15.0721 30.9152 15.0721C32.0672 15.0721 32.6432 15.6001 32.6432 16.7521V16.8001C32.6432 17.9521 32.0672 18.5281 30.9152 18.5281C29.7632 18.5281 29.1872 17.9521 29.1872 16.8001ZM29.1872 24.3361C29.1872 23.1841 29.7632 22.6081 30.9152 22.6081C32.0672 22.6081 32.6432 23.1841 32.6432 24.3361C32.6432 25.4881 32.0672 26.0641 30.9152 26.0641C29.7632 26.0641 29.1872 25.4881 29.1872 24.3361ZM29.1872 20.5441C29.1872 19.3921 29.7632 18.8161 30.9152 18.8161C32.0672 18.8161 32.6432 19.3921 32.6432 20.5441C32.6432 21.6961 32.0672 22.2721 30.9152 22.2721C29.7632 22.2721 29.1872 21.6961 29.1872 20.5441ZM21.3632 1.7281C21.3632 2.8801 20.7872 3.4561 19.6352 3.4561H19.5872C18.4352 3.4561 18.2432 3.0721 19.0592 2.25609L20.1152 1.2001C20.4512 0.864096 20.7392 0.720095 20.9312 0.720095C21.2192 0.720095 21.3632 1.0561 21.3632 1.7281ZM21.6512 1.7281C21.6512 0.576097 22.1792 9.53674e-05 23.3312 9.53674e-05H23.3792C24.5312 9.53674e-05 25.1072 0.576097 25.1072 1.7281C25.1072 2.8801 24.5312 3.4561 23.3792 3.4561H23.3312C22.1792 3.4561 21.6512 2.8801 21.6512 1.7281ZM25.3952 1.7281C25.3952 0.576097 25.9712 9.53674e-05 27.1232 9.53674e-05C28.2752 9.53674e-05 28.8512 0.576097 28.8512 1.7281C28.8512 2.8801 28.2752 3.4561 27.1232 3.4561C25.9712 3.4561 25.3952 2.8801 25.3952 1.7281ZM29.1872 5.5201V5.4721C29.1872 4.3201 29.7632 3.7921 30.9152 3.7921C32.0672 3.7921 32.6432 4.3201 32.6432 5.4721V5.5201C32.6432 6.6721 32.0672 7.2481 30.9152 7.2481C29.7632 7.2481 29.1872 6.6721 29.1872 5.5201ZM29.1872 9.2641C29.1872 8.1121 29.7632 7.5361 30.9152 7.5361C32.0672 7.5361 32.6432 8.1121 32.6432 9.2641C32.6432 10.4161 32.0672 10.9921 30.9152 10.9921C29.7632 10.9921 29.1872 10.4161 29.1872 9.2641ZM29.1872 1.7281C29.1872 0.576097 29.7632 9.53674e-05 30.9152 9.53674e-05C32.0672 9.53674e-05 32.6432 0.576097 32.6432 1.7281C32.6432 2.8801 32.0672 3.4561 30.9152 3.4561C29.7632 3.4561 29.1872 2.8801 29.1872 1.7281ZM35.7186 31.8721V31.8241C35.7186 30.6721 36.2946 30.0961 37.4466 30.0961H37.4946C38.6466 30.0961 39.2226 30.6721 39.2226 31.8241V31.8721C39.2226 33.0241 38.6466 33.6001 37.4946 33.6001H37.4466C36.2946 33.6001 35.7186 33.0241 35.7186 31.8721ZM35.7186 28.1281V28.0801C35.7186 26.9281 36.2946 26.3521 37.4466 26.3521H37.4946C38.6466 26.3521 39.2226 26.9281 39.2226 28.0801V28.1281C39.2226 29.2801 38.6466 29.8081 37.4946 29.8081H37.4466C36.2946 29.8081 35.7186 29.2801 35.7186 28.1281ZM35.7186 24.3361C35.7186 23.1841 36.2946 22.6081 37.4466 22.6081H37.4946C38.6466 22.6081 39.2226 23.1841 39.2226 24.3361C39.2226 25.4881 38.6466 26.0641 37.4946 26.0641H37.4466C36.2946 26.0641 35.7186 25.4881 35.7186 24.3361ZM39.5106 31.8721V31.8241C39.5106 30.6721 40.0386 30.0961 41.1906 30.0961H41.2386C42.3906 30.0961 42.9666 30.6721 42.9666 31.8241V31.8721C42.9666 33.0241 42.3906 33.6001 41.2386 33.6001H41.1906C40.0386 33.6001 39.5106 33.0241 39.5106 31.8721ZM43.2546 31.8721V31.8241C43.2546 30.6721 43.8306 30.0961 44.9826 30.0961C46.1346 30.0961 46.7106 30.6721 46.7106 31.8241V31.8721C46.7106 33.0241 46.1346 33.6001 44.9826 33.6001C43.8306 33.6001 43.2546 33.0241 43.2546 31.8721ZM48.7746 30.0961C49.9266 30.0961 50.0706 30.5281 49.3026 31.3441L48.2466 32.4001C47.9106 32.7361 47.6706 32.8801 47.4786 32.8801C47.1906 32.8801 47.0466 32.5441 47.0466 31.8721V31.8241C47.0466 30.6721 47.6226 30.0961 48.7746 30.0961ZM36.9186 21.0721L37.9746 20.0161C38.3106 19.6801 38.5986 19.5361 38.7906 19.5361C39.0786 19.5361 39.2226 19.8721 39.2226 20.5441C39.2226 21.6961 38.6466 22.2721 37.4946 22.2721H37.4466C36.2946 22.2721 36.1026 21.8881 36.9186 21.0721ZM39.5106 20.5441C39.5106 19.3921 40.0386 18.8161 41.1906 18.8161H41.2386C42.3906 18.8161 42.5346 19.2481 41.7186 20.0641L40.7106 21.0721C40.3746 21.4081 40.1346 21.5521 39.9426 21.5521C39.6546 21.5521 39.5106 21.2161 39.5106 20.5441ZM41.2386 18.5281H41.1906C40.0386 18.5281 39.8946 18.0961 40.7106 17.2801L41.7186 16.2721C42.0546 15.9361 42.3426 15.7441 42.5346 15.7441C42.8226 15.7441 42.9666 16.0801 42.9666 16.7521V16.8001C42.9666 17.9521 42.3906 18.5281 41.2386 18.5281ZM43.2546 16.8001V16.7521C43.2546 15.6001 43.8306 15.0721 44.9826 15.0721C46.1346 15.0721 46.3266 15.4561 45.5106 16.2721L44.4546 17.2801C44.1186 17.6161 43.8786 17.8081 43.6866 17.8081C43.3986 17.8081 43.2546 17.4721 43.2546 16.8001ZM37.4466 3.7921H37.4946C38.6466 3.7921 38.7906 4.1761 37.9746 4.9921L36.9186 6.0001C36.5826 6.3361 36.2946 6.5281 36.1026 6.5281C35.8626 6.5281 35.7186 6.1921 35.7186 5.5201V5.4721C35.7186 4.3201 36.2946 3.7921 37.4466 3.7921ZM44.9826 14.7841C43.8306 14.7841 43.6386 14.3521 44.4546 13.5361L45.5106 12.4801C45.8466 12.1441 46.0866 12.0001 46.2786 12.0001C46.5666 12.0001 46.7106 12.3361 46.7106 13.0081V13.0561C46.7106 14.2081 46.1346 14.7841 44.9826 14.7841ZM48.7746 11.2801C49.9266 11.2801 50.0706 11.6641 49.3026 12.4801L48.2466 13.5361C47.9106 13.8721 47.6226 14.0641 47.4306 14.0641C47.1906 14.0641 47.0466 13.7281 47.0466 13.0561V13.0081C47.0466 11.8561 47.6226 11.2801 48.7746 11.2801ZM39.2226 1.7281C39.2226 2.8801 38.6466 3.4561 37.4946 3.4561H37.4466C36.2946 3.4561 36.1026 3.0721 36.9186 2.25609L37.9746 1.2001C38.3106 0.864096 38.5986 0.720095 38.7906 0.720095C39.0786 0.720095 39.2226 1.0561 39.2226 1.7281ZM39.5106 1.7281C39.5106 0.576097 40.0386 9.53674e-05 41.1906 9.53674e-05H41.2386C42.3906 9.53674e-05 42.9666 0.576097 42.9666 1.7281C42.9666 2.8801 42.3906 3.4561 41.2386 3.4561H41.1906C40.0386 3.4561 39.5106 2.8801 39.5106 1.7281ZM43.2546 1.7281C43.2546 0.576097 43.8306 9.53674e-05 44.9826 9.53674e-05C46.1346 9.53674e-05 46.7106 0.576097 46.7106 1.7281C46.7106 2.8801 46.1346 3.4561 44.9826 3.4561C43.8306 3.4561 43.2546 2.8801 43.2546 1.7281ZM47.0466 5.5201V5.4721C47.0466 4.3201 47.6226 3.7921 48.7746 3.7921C49.9266 3.7921 50.5026 4.3201 50.5026 5.4721V5.5201C50.5026 6.6721 49.9266 7.2481 48.7746 7.2481C47.6226 7.2481 47.0466 6.6721 47.0466 5.5201ZM47.0466 9.2641C47.0466 8.1121 47.6226 7.5361 48.7746 7.5361C49.9266 7.5361 50.5026 8.1121 50.5026 9.2641C50.5026 10.4161 49.9266 10.9921 48.7746 10.9921C47.6226 10.9921 47.0466 10.4161 47.0466 9.2641ZM47.0466 1.7281C47.0466 0.576097 47.6226 9.53674e-05 48.7746 9.53674e-05C49.9266 9.53674e-05 50.5026 0.576097 50.5026 1.7281C50.5026 2.8801 49.9266 3.4561 48.7746 3.4561C47.6226 3.4561 47.0466 2.8801 47.0466 1.7281ZM61.114 31.8721V31.8241C61.114 30.6721 61.642 30.0961 62.794 30.0961H62.842C63.994 30.0961 64.57 30.6721 64.57 31.8241V31.8721C64.57 33.0241 63.994 33.6001 62.842 33.6001H62.794C61.642 33.6001 61.114 33.0241 61.114 31.8721ZM57.37 31.8721V31.8241C57.37 30.6721 57.898 30.0961 59.05 30.0961H59.098C60.25 30.0961 60.826 30.6721 60.826 31.8241V31.8721C60.826 33.0241 60.25 33.6001 59.098 33.6001H59.05C57.898 33.6001 57.37 33.0241 57.37 31.8721ZM53.578 31.8721V31.8241C53.578 30.6721 54.154 30.0961 55.306 30.0961C56.458 30.0961 57.034 30.6721 57.034 31.8241V31.8721C57.034 33.0241 56.458 33.6001 55.306 33.6001C54.154 33.6001 53.578 33.0241 53.578 31.8721ZM61.114 16.8001V16.7521C61.114 15.6001 61.642 15.0721 62.794 15.0721H62.842C63.994 15.0721 64.57 15.6001 64.57 16.7521V16.8001C64.57 17.9521 63.994 18.5281 62.842 18.5281H62.794C61.642 18.5281 61.114 17.9521 61.114 16.8001ZM61.114 1.7281C61.114 0.576097 61.642 9.53674e-05 62.794 9.53674e-05H62.842C63.994 9.53674e-05 64.57 0.576097 64.57 1.7281C64.57 2.8801 63.994 3.4561 62.842 3.4561H62.794C61.642 3.4561 61.114 2.8801 61.114 1.7281ZM53.578 13.0561V13.0081C53.578 11.8561 54.154 11.2801 55.306 11.2801C56.458 11.2801 57.034 11.8561 57.034 13.0081V13.0561C57.034 14.2081 56.458 14.7841 55.306 14.7841C54.154 14.7841 53.578 14.2081 53.578 13.0561ZM53.578 28.1281V28.0801C53.578 26.9281 54.154 26.3521 55.306 26.3521C56.458 26.3521 57.034 26.9281 57.034 28.0801V28.1281C57.034 29.2801 56.458 29.8081 55.306 29.8081C54.154 29.8081 53.578 29.2801 53.578 28.1281ZM64.858 28.1281V28.0801C64.858 26.9281 65.434 26.3521 66.586 26.3521C67.738 26.3521 68.314 26.9281 68.314 28.0801V28.1281C68.314 29.2801 67.738 29.8081 66.586 29.8081C65.434 29.8081 64.858 29.2801 64.858 28.1281ZM53.578 16.8001V16.7521C53.578 15.6001 54.154 15.0721 55.306 15.0721C56.458 15.0721 57.034 15.6001 57.034 16.7521V16.8001C57.034 17.9521 56.458 18.5281 55.306 18.5281C54.154 18.5281 53.578 17.9521 53.578 16.8001ZM64.858 16.8001V16.7521C64.858 15.6001 65.434 15.0721 66.586 15.0721C67.738 15.0721 68.314 15.6001 68.314 16.7521V16.8001C68.314 17.9521 67.738 18.5281 66.586 18.5281C65.434 18.5281 64.858 17.9521 64.858 16.8001ZM57.37 1.7281C57.37 0.576097 57.898 9.53674e-05 59.05 9.53674e-05H59.098C60.25 9.53674e-05 60.826 0.576097 60.826 1.7281C60.826 2.8801 60.25 3.4561 59.098 3.4561H59.05C57.898 3.4561 57.37 2.8801 57.37 1.7281ZM64.858 24.3361C64.858 23.1841 65.434 22.6081 66.586 22.6081C67.738 22.6081 68.314 23.1841 68.314 24.3361C68.314 25.4881 67.738 26.0641 66.586 26.0641C65.434 26.0641 64.858 25.4881 64.858 24.3361ZM53.578 5.5201V5.4721C53.578 4.3201 54.154 3.7921 55.306 3.7921C56.458 3.7921 57.034 4.3201 57.034 5.4721V5.5201C57.034 6.6721 56.458 7.2481 55.306 7.2481C54.154 7.2481 53.578 6.6721 53.578 5.5201ZM53.578 24.3361C53.578 23.1841 54.154 22.6081 55.306 22.6081C56.458 22.6081 57.034 23.1841 57.034 24.3361C57.034 25.4881 56.458 26.0641 55.306 26.0641C54.154 26.0641 53.578 25.4881 53.578 24.3361ZM53.578 20.5441C53.578 19.3921 54.154 18.8161 55.306 18.8161C56.458 18.8161 57.034 19.3921 57.034 20.5441C57.034 21.6961 56.458 22.2721 55.306 22.2721C54.154 22.2721 53.578 21.6961 53.578 20.5441ZM64.858 20.5441C64.858 19.3921 65.434 18.8161 66.586 18.8161C67.738 18.8161 68.314 19.3921 68.314 20.5441C68.314 21.6961 67.738 22.2721 66.586 22.2721C65.434 22.2721 64.858 21.6961 64.858 20.5441ZM53.578 9.2641C53.578 8.1121 54.154 7.5361 55.306 7.5361C56.458 7.5361 57.034 8.1121 57.034 9.2641C57.034 10.4161 56.458 10.9921 55.306 10.9921C54.154 10.9921 53.578 10.4161 53.578 9.2641ZM68.314 1.7281C68.314 2.8801 67.738 3.4561 66.586 3.4561C65.434 3.4561 65.29 3.0721 66.058 2.3041C65.722 2.5921 65.482 2.7841 65.29 2.7841C65.002 2.7841 64.858 2.4001 64.858 1.7281C64.858 0.576097 65.434 9.53674e-05 66.586 9.53674e-05C67.738 9.53674e-05 67.93 0.384096 67.162 1.15209C67.45 0.864096 67.738 0.672095 67.882 0.672095C68.17 0.672095 68.314 1.0561 68.314 1.7281ZM66.586 30.0961C67.738 30.0961 67.93 30.5281 67.114 31.3441L66.058 32.4001C65.722 32.7361 65.482 32.8801 65.29 32.8801C65.002 32.8801 64.858 32.5441 64.858 31.8721V31.8241C64.858 30.6721 65.434 30.0961 66.586 30.0961ZM59.098 18.5281H59.05C57.898 18.5281 57.754 18.0961 58.57 17.2801L59.578 16.2721C59.914 15.9361 60.202 15.7441 60.394 15.7441C60.682 15.7441 60.826 16.0801 60.826 16.7521V16.8001C60.826 17.9521 60.25 18.5281 59.098 18.5281ZM57.034 1.7281C57.034 2.8801 56.458 3.4561 55.306 3.4561C54.154 3.4561 53.962 3.0721 54.778 2.25609L55.834 1.2001C56.17 0.864096 56.41 0.720095 56.602 0.720095C56.89 0.720095 57.034 1.0561 57.034 1.7281ZM70.6694 33.6001V31.9681H72.3014V33.6001H70.6694ZM70.6694 31.8241V30.1921H72.3014V31.8241H70.6694ZM72.4454 33.6001V31.9681H74.0774V33.6001H72.4454ZM72.4454 31.8241V30.1921H74.0774V31.8241H72.4454ZM101.414 30.0961C102.566 30.0961 102.758 30.5281 101.942 31.3441L100.886 32.4001C100.55 32.7361 100.31 32.8801 100.118 32.8801C99.8301 32.8801 99.6861 32.5441 99.6861 31.8721V31.8241C99.6861 30.6721 100.262 30.0961 101.414 30.0961ZM99.6861 28.1281V28.0801C99.6861 26.9281 100.262 26.3521 101.414 26.3521C102.566 26.3521 103.142 26.9281 103.142 28.0801V28.1281C103.142 29.2801 102.566 29.8081 101.414 29.8081C100.262 29.8081 99.6861 29.2801 99.6861 28.1281ZM99.6861 24.3361C99.6861 23.1841 100.262 22.6081 101.414 22.6081C102.566 22.6081 103.142 23.1841 103.142 24.3361C103.142 25.4881 102.566 26.0641 101.414 26.0641C100.262 26.0641 99.6861 25.4881 99.6861 24.3361ZM88.4061 13.0561V13.0081C88.4061 11.8561 88.9821 11.2801 90.1341 11.2801C91.2861 11.2801 91.8621 11.8561 91.8621 13.0081V13.0561C91.8621 14.2081 91.2861 14.7841 90.1341 14.7841C88.9821 14.7841 88.4061 14.2081 88.4061 13.0561ZM92.1981 13.0561V13.0081C92.1981 11.8561 92.7261 11.2801 93.8781 11.2801H93.9261C95.0781 11.2801 95.6541 11.8561 95.6541 13.0081V13.0561C95.6541 14.2081 95.0781 14.7841 93.9261 14.7841H93.8781C92.7261 14.7841 92.1981 14.2081 92.1981 13.0561ZM95.9421 13.0561V13.0081C95.9421 11.8561 96.4701 11.2801 97.6221 11.2801H97.6701C98.8221 11.2801 99.3981 11.8561 99.3981 13.0081V13.0561C99.3981 14.2081 98.8221 14.7841 97.6701 14.7841H97.6221C96.4701 14.7841 95.9421 14.2081 95.9421 13.0561ZM99.6861 13.0561V13.0081C99.6861 11.8561 100.262 11.2801 101.414 11.2801C102.566 11.2801 103.142 11.8561 103.142 13.0081V13.0561C103.142 14.2081 102.566 14.7841 101.414 14.7841C100.262 14.7841 99.6861 14.2081 99.6861 13.0561ZM99.6861 16.8001V16.7521C99.6861 15.6001 100.262 15.0721 101.414 15.0721C102.566 15.0721 103.142 15.6001 103.142 16.7521V16.8001C103.142 17.9521 102.566 18.5281 101.414 18.5281C100.262 18.5281 99.6861 17.9521 99.6861 16.8001ZM99.6861 20.5441C99.6861 19.3921 100.262 18.8161 101.414 18.8161C102.566 18.8161 103.142 19.3921 103.142 20.5441C103.142 21.6961 102.566 22.2721 101.414 22.2721C100.262 22.2721 99.6861 21.6961 99.6861 20.5441ZM88.4061 5.5201V5.4721C88.4061 4.3201 88.9821 3.7921 90.1341 3.7921C91.2861 3.7921 91.8621 4.3201 91.8621 5.4721V5.5201C91.8621 6.6721 91.2861 7.2481 90.1341 7.2481C88.9821 7.2481 88.4061 6.6721 88.4061 5.5201ZM88.4061 9.2641C88.4061 8.1121 88.9821 7.5361 90.1341 7.5361C91.2861 7.5361 91.8621 8.1121 91.8621 9.2641C91.8621 10.4161 91.2861 10.9921 90.1341 10.9921C88.9821 10.9921 88.4061 10.4161 88.4061 9.2641ZM91.8621 1.7281C91.8621 2.8801 91.2861 3.4561 90.1341 3.4561C88.9821 3.4561 88.7901 3.0721 89.6061 2.25609L90.6621 1.2001C90.9981 0.864096 91.2381 0.720095 91.4301 0.720095C91.7181 0.720095 91.8621 1.0561 91.8621 1.7281ZM92.1981 1.7281C92.1981 0.576097 92.7261 9.53674e-05 93.8781 9.53674e-05H93.9261C95.0781 9.53674e-05 95.6541 0.576097 95.6541 1.7281C95.6541 2.8801 95.0781 3.4561 93.9261 3.4561H93.8781C92.7261 3.4561 92.1981 2.8801 92.1981 1.7281ZM95.9421 1.7281C95.9421 0.576097 96.4701 9.53674e-05 97.6221 9.53674e-05H97.6701C98.8221 9.53674e-05 99.3981 0.576097 99.3981 1.7281C99.3981 2.8801 98.8221 3.4561 97.6701 3.4561H97.6221C96.4701 3.4561 95.9421 2.8801 95.9421 1.7281ZM99.6861 5.5201V5.4721C99.6861 4.3201 100.262 3.7921 101.414 3.7921C102.566 3.7921 103.142 4.3201 103.142 5.4721V5.5201C103.142 6.6721 102.566 7.2481 101.414 7.2481C100.262 7.2481 99.6861 6.6721 99.6861 5.5201ZM99.6861 1.7281C99.6861 0.576097 100.262 9.53674e-05 101.414 9.53674e-05C102.566 9.53674e-05 103.142 0.576097 103.142 1.7281C103.142 2.8801 102.566 3.4561 101.414 3.4561C100.262 3.4561 99.6861 2.8801 99.6861 1.7281ZM99.6861 9.2641C99.6861 8.1121 100.262 7.5361 101.414 7.5361C102.566 7.5361 103.142 8.1121 103.142 9.2641C103.142 10.4161 102.566 10.9921 101.414 10.9921C100.262 10.9921 99.6861 10.4161 99.6861 9.2641ZM105.497 33.6001V31.9681H107.129V33.6001H105.497ZM105.497 31.8241V30.1921H107.129V31.8241H105.497ZM107.273 33.6001V31.9681H108.905V33.6001H107.273ZM107.273 31.8241V30.1921H108.905V31.8241H107.273ZM123.234 31.8721V31.8241C123.234 30.6721 123.81 30.0961 124.962 30.0961H125.01C126.162 30.0961 126.738 30.6721 126.738 31.8241V31.8721C126.738 33.0241 126.162 33.6001 125.01 33.6001H124.962C123.81 33.6001 123.234 33.0241 123.234 31.8721ZM123.234 28.1281V28.0801C123.234 26.9281 123.81 26.3521 124.962 26.3521H125.01C126.162 26.3521 126.738 26.9281 126.738 28.0801V28.1281C126.738 29.2801 126.162 29.8081 125.01 29.8081H124.962C123.81 29.8081 123.234 29.2801 123.234 28.1281ZM123.234 24.3361C123.234 23.1841 123.81 22.6081 124.962 22.6081H125.01C126.162 22.6081 126.738 23.1841 126.738 24.3361C126.738 25.4881 126.162 26.0641 125.01 26.0641H124.962C123.81 26.0641 123.234 25.4881 123.234 24.3361ZM127.026 31.8721V31.8241C127.026 30.6721 127.554 30.0961 128.706 30.0961H128.754C129.906 30.0961 130.482 30.6721 130.482 31.8241V31.8721C130.482 33.0241 129.906 33.6001 128.754 33.6001H128.706C127.554 33.6001 127.026 33.0241 127.026 31.8721ZM130.77 31.8721V31.8241C130.77 30.6721 131.346 30.0961 132.498 30.0961C133.65 30.0961 134.226 30.6721 134.226 31.8241V31.8721C134.226 33.0241 133.65 33.6001 132.498 33.6001C131.346 33.6001 130.77 33.0241 130.77 31.8721ZM136.29 30.0961C137.442 30.0961 137.586 30.5281 136.818 31.3441L135.762 32.4001C135.426 32.7361 135.186 32.8801 134.994 32.8801C134.706 32.8801 134.562 32.5441 134.562 31.8721V31.8241C134.562 30.6721 135.138 30.0961 136.29 30.0961ZM124.434 21.0721L125.49 20.0161C125.826 19.6801 126.114 19.5361 126.306 19.5361C126.594 19.5361 126.738 19.8721 126.738 20.5441C126.738 21.6961 126.162 22.2721 125.01 22.2721H124.962C123.81 22.2721 123.618 21.8881 124.434 21.0721ZM127.026 20.5441C127.026 19.3921 127.554 18.8161 128.706 18.8161H128.754C129.906 18.8161 130.05 19.2481 129.234 20.0641L128.226 21.0721C127.89 21.4081 127.65 21.5521 127.458 21.5521C127.17 21.5521 127.026 21.2161 127.026 20.5441ZM128.754 18.5281H128.706C127.554 18.5281 127.41 18.0961 128.226 17.2801L129.234 16.2721C129.57 15.9361 129.858 15.7441 130.05 15.7441C130.338 15.7441 130.482 16.0801 130.482 16.7521V16.8001C130.482 17.9521 129.906 18.5281 128.754 18.5281ZM130.77 16.8001V16.7521C130.77 15.6001 131.346 15.0721 132.498 15.0721C133.65 15.0721 133.842 15.4561 133.026 16.2721L131.97 17.2801C131.634 17.6161 131.394 17.8081 131.202 17.8081C130.914 17.8081 130.77 17.4721 130.77 16.8001ZM124.962 3.7921H125.01C126.162 3.7921 126.306 4.1761 125.49 4.9921L124.434 6.0001C124.098 6.3361 123.81 6.5281 123.618 6.5281C123.378 6.5281 123.234 6.1921 123.234 5.5201V5.4721C123.234 4.3201 123.81 3.7921 124.962 3.7921ZM132.498 14.7841C131.346 14.7841 131.154 14.3521 131.97 13.5361L133.026 12.4801C133.362 12.1441 133.602 12.0001 133.794 12.0001C134.082 12.0001 134.226 12.3361 134.226 13.0081V13.0561C134.226 14.2081 133.65 14.7841 132.498 14.7841ZM136.29 11.2801C137.442 11.2801 137.586 11.6641 136.818 12.4801L135.762 13.5361C135.426 13.8721 135.138 14.0641 134.946 14.0641C134.706 14.0641 134.562 13.7281 134.562 13.0561V13.0081C134.562 11.8561 135.138 11.2801 136.29 11.2801ZM126.738 1.7281C126.738 2.8801 126.162 3.4561 125.01 3.4561H124.962C123.81 3.4561 123.618 3.0721 124.434 2.25609L125.49 1.2001C125.826 0.864096 126.114 0.720095 126.306 0.720095C126.594 0.720095 126.738 1.0561 126.738 1.7281ZM127.026 1.7281C127.026 0.576097 127.554 9.53674e-05 128.706 9.53674e-05H128.754C129.906 9.53674e-05 130.482 0.576097 130.482 1.7281C130.482 2.8801 129.906 3.4561 128.754 3.4561H128.706C127.554 3.4561 127.026 2.8801 127.026 1.7281ZM130.77 1.7281C130.77 0.576097 131.346 9.53674e-05 132.498 9.53674e-05C133.65 9.53674e-05 134.226 0.576097 134.226 1.7281C134.226 2.8801 133.65 3.4561 132.498 3.4561C131.346 3.4561 130.77 2.8801 130.77 1.7281ZM134.562 5.5201V5.4721C134.562 4.3201 135.138 3.7921 136.29 3.7921C137.442 3.7921 138.018 4.3201 138.018 5.4721V5.5201C138.018 6.6721 137.442 7.2481 136.29 7.2481C135.138 7.2481 134.562 6.6721 134.562 5.5201ZM134.562 9.2641C134.562 8.1121 135.138 7.5361 136.29 7.5361C137.442 7.5361 138.018 8.1121 138.018 9.2641C138.018 10.4161 137.442 10.9921 136.29 10.9921C135.138 10.9921 134.562 10.4161 134.562 9.2641ZM134.562 1.7281C134.562 0.576097 135.138 9.53674e-05 136.29 9.53674e-05C137.442 9.53674e-05 138.018 0.576097 138.018 1.7281C138.018 2.8801 137.442 3.4561 136.29 3.4561C135.138 3.4561 134.562 2.8801 134.562 1.7281ZM141.094 31.8721V31.8241C141.094 30.6721 141.67 30.0961 142.822 30.0961C143.974 30.0961 144.55 30.6721 144.55 31.8241V31.8721C144.55 33.0241 143.974 33.6001 142.822 33.6001C141.67 33.6001 141.094 33.0241 141.094 31.8721ZM141.094 28.1281V28.0801C141.094 26.9281 141.67 26.3521 142.822 26.3521C143.974 26.3521 144.55 26.9281 144.55 28.0801V28.1281C144.55 29.2801 143.974 29.8081 142.822 29.8081C141.67 29.8081 141.094 29.2801 141.094 28.1281ZM141.094 24.3361C141.094 23.1841 141.67 22.6081 142.822 22.6081C143.974 22.6081 144.55 23.1841 144.55 24.3361C144.55 25.4881 143.974 26.0641 142.822 26.0641C141.67 26.0641 141.094 25.4881 141.094 24.3361ZM144.886 31.8721V31.8241C144.886 30.6721 145.414 30.0961 146.566 30.0961H146.614C147.766 30.0961 148.342 30.6721 148.342 31.8241V31.8721C148.342 33.0241 147.766 33.6001 146.614 33.6001H146.566C145.414 33.6001 144.886 33.0241 144.886 31.8721ZM148.63 31.8721V31.8241C148.63 30.6721 149.158 30.0961 150.31 30.0961H150.358C151.51 30.0961 152.086 30.6721 152.086 31.8241V31.8721C152.086 33.0241 151.51 33.6001 150.358 33.6001H150.31C149.158 33.6001 148.63 33.0241 148.63 31.8721ZM154.102 30.0961C155.254 30.0961 155.446 30.5281 154.63 31.3441L153.574 32.4001C153.238 32.7361 152.998 32.8801 152.806 32.8801C152.518 32.8801 152.374 32.5441 152.374 31.8721V31.8241C152.374 30.6721 152.95 30.0961 154.102 30.0961ZM141.094 20.5441C141.094 19.3921 141.67 18.8161 142.822 18.8161C143.974 18.8161 144.55 19.3921 144.55 20.5441C144.55 21.6961 143.974 22.2721 142.822 22.2721C141.67 22.2721 141.094 21.6961 141.094 20.5441ZM152.374 28.1281V28.0801C152.374 26.9281 152.95 26.3521 154.102 26.3521C155.254 26.3521 155.83 26.9281 155.83 28.0801V28.1281C155.83 29.2801 155.254 29.8081 154.102 29.8081C152.95 29.8081 152.374 29.2801 152.374 28.1281ZM141.094 13.0561V13.0081C141.094 11.8561 141.67 11.2801 142.822 11.2801C143.974 11.2801 144.55 11.8561 144.55 13.0081V13.0561C144.55 14.2081 143.974 14.7841 142.822 14.7841C141.67 14.7841 141.094 14.2081 141.094 13.0561ZM141.094 16.8001V16.7521C141.094 15.6001 141.67 15.0721 142.822 15.0721C143.974 15.0721 144.55 15.6001 144.55 16.7521V16.8001C144.55 17.9521 143.974 18.5281 142.822 18.5281C141.67 18.5281 141.094 17.9521 141.094 16.8001ZM144.886 16.8001V16.7521C144.886 15.6001 145.414 15.0721 146.566 15.0721H146.614C147.766 15.0721 148.342 15.6001 148.342 16.7521V16.8001C148.342 17.9521 147.766 18.5281 146.614 18.5281H146.566C145.414 18.5281 144.886 17.9521 144.886 16.8001ZM148.63 16.8001V16.7521C148.63 15.6001 149.158 15.0721 150.31 15.0721H150.358C151.51 15.0721 152.086 15.6001 152.086 16.7521V16.8001C152.086 17.9521 151.51 18.5281 150.358 18.5281H150.31C149.158 18.5281 148.63 17.9521 148.63 16.8001ZM152.374 24.3361C152.374 23.1841 152.95 22.6081 154.102 22.6081C155.254 22.6081 155.83 23.1841 155.83 24.3361C155.83 25.4881 155.254 26.0641 154.102 26.0641C152.95 26.0641 152.374 25.4881 152.374 24.3361ZM152.374 13.0561V13.0081C152.374 11.8561 152.95 11.2801 154.102 11.2801C155.254 11.2801 155.83 11.8561 155.83 13.0081V13.0561C155.83 14.2081 155.254 14.7841 154.102 14.7841C152.95 14.7841 152.374 14.2081 152.374 13.0561ZM152.374 16.8001V16.7521C152.374 15.6001 152.95 15.0721 154.102 15.0721C155.254 15.0721 155.83 15.6001 155.83 16.7521V16.8001C155.83 17.9521 155.254 18.5281 154.102 18.5281C152.95 18.5281 152.374 17.9521 152.374 16.8001ZM152.374 20.5441C152.374 19.3921 152.95 18.8161 154.102 18.8161C155.254 18.8161 155.83 19.3921 155.83 20.5441C155.83 21.6961 155.254 22.2721 154.102 22.2721C152.95 22.2721 152.374 21.6961 152.374 20.5441ZM141.094 5.5201V5.4721C141.094 4.3201 141.67 3.7921 142.822 3.7921C143.974 3.7921 144.55 4.3201 144.55 5.4721V5.5201C144.55 6.6721 143.974 7.2481 142.822 7.2481C141.67 7.2481 141.094 6.6721 141.094 5.5201ZM141.094 9.2641C141.094 8.1121 141.67 7.5361 142.822 7.5361C143.974 7.5361 144.55 8.1121 144.55 9.2641C144.55 10.4161 143.974 10.9921 142.822 10.9921C141.67 10.9921 141.094 10.4161 141.094 9.2641ZM144.55 1.7281C144.55 2.8801 143.974 3.4561 142.822 3.4561C141.67 3.4561 141.478 3.0721 142.294 2.25609L143.35 1.2001C143.686 0.864096 143.926 0.720095 144.118 0.720095C144.406 0.720095 144.55 1.0561 144.55 1.7281ZM144.886 1.7281C144.886 0.576097 145.414 9.53674e-05 146.566 9.53674e-05H146.614C147.766 9.53674e-05 148.342 0.576097 148.342 1.7281C148.342 2.8801 147.766 3.4561 146.614 3.4561H146.566C145.414 3.4561 144.886 2.8801 144.886 1.7281ZM148.63 1.7281C148.63 0.576097 149.158 9.53674e-05 150.31 9.53674e-05H150.358C151.51 9.53674e-05 152.086 0.576097 152.086 1.7281C152.086 2.8801 151.51 3.4561 150.358 3.4561H150.31C149.158 3.4561 148.63 2.8801 148.63 1.7281ZM152.374 5.5201V5.4721C152.374 4.3201 152.95 3.7921 154.102 3.7921C155.254 3.7921 155.83 4.3201 155.83 5.4721V5.5201C155.83 6.6721 155.254 7.2481 154.102 7.2481C152.95 7.2481 152.374 6.6721 152.374 5.5201ZM152.374 1.7281C152.374 0.576097 152.95 9.53674e-05 154.102 9.53674e-05C155.254 9.53674e-05 155.83 0.576097 155.83 1.7281C155.83 2.8801 155.254 3.4561 154.102 3.4561C152.95 3.4561 152.374 2.8801 152.374 1.7281ZM152.374 9.2641C152.374 8.1121 152.95 7.5361 154.102 7.5361C155.254 7.5361 155.83 8.1121 155.83 9.2641C155.83 10.4161 155.254 10.9921 154.102 10.9921C152.95 10.9921 152.374 10.4161 152.374 9.2641ZM163.489 15.0721H163.873C164.881 15.0721 165.409 15.6001 165.409 16.6081V16.9921C165.409 18.0001 164.881 18.5281 163.873 18.5281H163.489C162.481 18.5281 161.953 18.0001 161.953 16.9921V16.6081C161.953 15.6001 162.481 15.0721 163.489 15.0721ZM167.281 15.0721H167.665C168.673 15.0721 169.201 15.6001 169.201 16.6081V16.9921C169.201 18.0001 168.673 18.5281 167.665 18.5281H167.281C166.225 18.5281 165.745 18.0001 165.745 16.9921V16.6081C165.745 15.6001 166.225 15.0721 167.281 15.0721ZM171.025 15.0721H171.409C172.465 15.0721 172.945 15.6001 172.945 16.6081V16.9921C172.945 18.0001 172.465 18.5281 171.409 18.5281H171.025C170.017 18.5281 169.489 18.0001 169.489 16.9921V16.6081C169.489 15.6001 170.017 15.0721 171.025 15.0721ZM174.769 15.0721H175.201C176.209 15.0721 176.737 15.6001 176.737 16.6081V16.9921C176.737 18.0001 176.209 18.5281 175.201 18.5281H174.769C173.761 18.5281 173.233 18.0001 173.233 16.9921V16.6081C173.233 15.6001 173.761 15.0721 174.769 15.0721ZM178.561 15.0721H178.945C179.953 15.0721 180.481 15.6001 180.481 16.6081V16.9921C180.481 18.0001 179.953 18.5281 178.945 18.5281H178.561C177.505 18.5281 177.025 18.0001 177.025 16.9921V16.6081C177.025 15.6001 177.505 15.0721 178.561 15.0721ZM182.305 15.0721H182.689C183.745 15.0721 184.225 15.6001 184.225 16.6081V16.9921C184.225 18.0001 183.745 18.5281 182.689 18.5281H182.305C181.297 18.5281 180.769 18.0001 180.769 16.9921V16.6081C180.769 15.6001 181.297 15.0721 182.305 15.0721ZM188.559 32.4001L189.615 31.3441C189.951 31.0081 190.239 30.8161 190.431 30.8161C190.719 30.8161 190.863 31.1521 190.863 31.8241V31.8721C190.863 33.0241 190.287 33.6001 189.135 33.6001H189.087C187.935 33.6001 187.743 33.2161 188.559 32.4001ZM191.151 31.8721V31.8241C191.151 30.6721 191.679 30.0961 192.831 30.0961H192.879C194.031 30.0961 194.607 30.6721 194.607 31.8241V31.8721C194.607 33.0241 194.031 33.6001 192.879 33.6001H192.831C191.679 33.6001 191.151 33.0241 191.151 31.8721ZM194.895 31.8721V31.8241C194.895 30.6721 195.471 30.0961 196.623 30.0961C197.775 30.0961 198.351 30.6721 198.351 31.8241V31.8721C198.351 33.0241 197.775 33.6001 196.623 33.6001C195.471 33.6001 194.895 33.0241 194.895 31.8721ZM200.415 30.0961C201.567 30.0961 201.711 30.5281 200.943 31.3441L199.887 32.4001C199.551 32.7361 199.311 32.8801 199.119 32.8801C198.831 32.8801 198.687 32.5441 198.687 31.8721V31.8241C198.687 30.6721 199.263 30.0961 200.415 30.0961ZM198.687 28.1281V28.0801C198.687 26.9281 199.263 26.3521 200.415 26.3521C201.567 26.3521 202.143 26.9281 202.143 28.0801V28.1281C202.143 29.2801 201.567 29.8081 200.415 29.8081C199.263 29.8081 198.687 29.2801 198.687 28.1281ZM192.879 18.5281H192.831C191.679 18.5281 191.535 18.0961 192.351 17.2801L193.359 16.2721C193.695 15.9361 193.983 15.7441 194.175 15.7441C194.463 15.7441 194.607 16.0801 194.607 16.7521V16.8001C194.607 17.9521 194.031 18.5281 192.879 18.5281ZM194.895 16.8001V16.7521C194.895 15.6001 195.471 15.0721 196.623 15.0721C197.775 15.0721 198.351 15.6001 198.351 16.7521V16.8001C198.351 17.9521 197.775 18.5281 196.623 18.5281C195.471 18.5281 194.895 17.9521 194.895 16.8001ZM198.687 24.3361C198.687 23.1841 199.263 22.6081 200.415 22.6081C201.567 22.6081 202.143 23.1841 202.143 24.3361C202.143 25.4881 201.567 26.0641 200.415 26.0641C199.263 26.0641 198.687 25.4881 198.687 24.3361ZM198.687 13.0561V13.0081C198.687 11.8561 199.263 11.2801 200.415 11.2801C201.567 11.2801 202.143 11.8561 202.143 13.0081V13.0561C202.143 14.2081 201.567 14.7841 200.415 14.7841C199.263 14.7841 198.687 14.2081 198.687 13.0561ZM198.687 16.8001V16.7521C198.687 15.6001 199.263 15.0721 200.415 15.0721C201.567 15.0721 202.143 15.6001 202.143 16.7521V16.8001C202.143 17.9521 201.567 18.5281 200.415 18.5281C199.263 18.5281 198.687 17.9521 198.687 16.8001ZM198.687 20.5441C198.687 19.3921 199.263 18.8161 200.415 18.8161C201.567 18.8161 202.143 19.3921 202.143 20.5441C202.143 21.6961 201.567 22.2721 200.415 22.2721C199.263 22.2721 198.687 21.6961 198.687 20.5441ZM190.863 1.7281C190.863 2.8801 190.287 3.4561 189.135 3.4561H189.087C187.935 3.4561 187.743 3.0721 188.559 2.25609L189.615 1.2001C189.951 0.864096 190.239 0.720095 190.431 0.720095C190.719 0.720095 190.863 1.0561 190.863 1.7281ZM191.151 1.7281C191.151 0.576097 191.679 9.53674e-05 192.831 9.53674e-05H192.879C194.031 9.53674e-05 194.607 0.576097 194.607 1.7281C194.607 2.8801 194.031 3.4561 192.879 3.4561H192.831C191.679 3.4561 191.151 2.8801 191.151 1.7281ZM194.895 1.7281C194.895 0.576097 195.471 9.53674e-05 196.623 9.53674e-05C197.775 9.53674e-05 198.351 0.576097 198.351 1.7281C198.351 2.8801 197.775 3.4561 196.623 3.4561C195.471 3.4561 194.895 2.8801 194.895 1.7281ZM198.687 5.5201V5.4721C198.687 4.3201 199.263 3.7921 200.415 3.7921C201.567 3.7921 202.143 4.3201 202.143 5.4721V5.5201C202.143 6.6721 201.567 7.2481 200.415 7.2481C199.263 7.2481 198.687 6.6721 198.687 5.5201ZM198.687 9.2641C198.687 8.1121 199.263 7.5361 200.415 7.5361C201.567 7.5361 202.143 8.1121 202.143 9.2641C202.143 10.4161 201.567 10.9921 200.415 10.9921C199.263 10.9921 198.687 10.4161 198.687 9.2641ZM198.687 1.7281C198.687 0.576097 199.263 9.53674e-05 200.415 9.53674e-05C201.567 9.53674e-05 202.143 0.576097 202.143 1.7281C202.143 2.8801 201.567 3.4561 200.415 3.4561C199.263 3.4561 198.687 2.8801 198.687 1.7281ZM205.219 31.8721V31.8241C205.219 30.6721 205.795 30.0961 206.947 30.0961H206.995C208.147 30.0961 208.723 30.6721 208.723 31.8241V31.8721C208.723 33.0241 208.147 33.6001 206.995 33.6001H206.947C205.795 33.6001 205.219 33.0241 205.219 31.8721ZM205.219 28.1281V28.0801C205.219 26.9281 205.795 26.3521 206.947 26.3521H206.995C208.147 26.3521 208.723 26.9281 208.723 28.0801V28.1281C208.723 29.2801 208.147 29.8081 206.995 29.8081H206.947C205.795 29.8081 205.219 29.2801 205.219 28.1281ZM205.219 24.3361C205.219 23.1841 205.795 22.6081 206.947 22.6081H206.995C208.147 22.6081 208.723 23.1841 208.723 24.3361C208.723 25.4881 208.147 26.0641 206.995 26.0641H206.947C205.795 26.0641 205.219 25.4881 205.219 24.3361ZM209.011 31.8721V31.8241C209.011 30.6721 209.539 30.0961 210.691 30.0961H210.739C211.891 30.0961 212.467 30.6721 212.467 31.8241V31.8721C212.467 33.0241 211.891 33.6001 210.739 33.6001H210.691C209.539 33.6001 209.011 33.0241 209.011 31.8721ZM212.755 31.8721V31.8241C212.755 30.6721 213.331 30.0961 214.483 30.0961C215.635 30.0961 216.211 30.6721 216.211 31.8241V31.8721C216.211 33.0241 215.635 33.6001 214.483 33.6001C213.331 33.6001 212.755 33.0241 212.755 31.8721ZM218.275 30.0961C219.427 30.0961 219.571 30.5281 218.803 31.3441L217.747 32.4001C217.411 32.7361 217.171 32.8801 216.979 32.8801C216.691 32.8801 216.547 32.5441 216.547 31.8721V31.8241C216.547 30.6721 217.123 30.0961 218.275 30.0961ZM205.219 13.0561V13.0081C205.219 11.8561 205.795 11.2801 206.947 11.2801H206.995C208.147 11.2801 208.723 11.8561 208.723 13.0081V13.0561C208.723 14.2081 208.147 14.7841 206.995 14.7841H206.947C205.795 14.7841 205.219 14.2081 205.219 13.0561ZM205.219 16.8001V16.7521C205.219 15.6001 205.795 15.0721 206.947 15.0721H206.995C208.147 15.0721 208.723 15.6001 208.723 16.7521V16.8001C208.723 17.9521 208.147 18.5281 206.995 18.5281H206.947C205.795 18.5281 205.219 17.9521 205.219 16.8001ZM205.219 20.5441C205.219 19.3921 205.795 18.8161 206.947 18.8161H206.995C208.147 18.8161 208.723 19.3921 208.723 20.5441C208.723 21.6961 208.147 22.2721 206.995 22.2721H206.947C205.795 22.2721 205.219 21.6961 205.219 20.5441ZM209.011 20.5441C209.011 19.3921 209.539 18.8161 210.691 18.8161H210.739C211.891 18.8161 212.035 19.2481 211.219 20.0641L210.211 21.0721C209.875 21.4081 209.635 21.5521 209.443 21.5521C209.155 21.5521 209.011 21.2161 209.011 20.5441ZM216.547 28.1281V28.0801C216.547 26.9281 217.123 26.3521 218.275 26.3521C219.427 26.3521 220.003 26.9281 220.003 28.0801V28.1281C220.003 29.2801 219.427 29.8081 218.275 29.8081C217.123 29.8081 216.547 29.2801 216.547 28.1281ZM210.739 18.5281H210.691C209.539 18.5281 209.395 18.0961 210.211 17.2801L211.219 16.2721C211.555 15.9361 211.843 15.7441 212.035 15.7441C212.323 15.7441 212.467 16.0801 212.467 16.7521V16.8001C212.467 17.9521 211.891 18.5281 210.739 18.5281ZM212.755 16.8001V16.7521C212.755 15.6001 213.331 15.0721 214.483 15.0721C215.635 15.0721 215.827 15.4561 215.011 16.2721L213.955 17.2801C213.619 17.6161 213.379 17.8081 213.187 17.8081C212.899 17.8081 212.755 17.4721 212.755 16.8001ZM205.219 5.5201V5.4721C205.219 4.3201 205.795 3.7921 206.947 3.7921H206.995C208.147 3.7921 208.723 4.3201 208.723 5.4721V5.5201C208.723 6.6721 208.147 7.2481 206.995 7.2481H206.947C205.795 7.2481 205.219 6.6721 205.219 5.5201ZM205.219 9.2641C205.219 8.1121 205.795 7.5361 206.947 7.5361H206.995C208.147 7.5361 208.723 8.1121 208.723 9.2641C208.723 10.4161 208.147 10.9921 206.995 10.9921H206.947C205.795 10.9921 205.219 10.4161 205.219 9.2641ZM214.483 14.7841C213.331 14.7841 213.139 14.3521 213.955 13.5361L215.011 12.4801C215.347 12.1441 215.587 12.0001 215.779 12.0001C216.067 12.0001 216.211 12.3361 216.211 13.0081V13.0561C216.211 14.2081 215.635 14.7841 214.483 14.7841ZM216.547 13.0561V13.0081C216.547 11.8561 217.123 11.2801 218.275 11.2801C219.427 11.2801 220.003 11.8561 220.003 13.0081V13.0561C220.003 14.2081 219.427 14.7841 218.275 14.7841C217.123 14.7841 216.547 14.2081 216.547 13.0561ZM216.547 16.8001V16.7521C216.547 15.6001 217.123 15.0721 218.275 15.0721C219.427 15.0721 220.003 15.6001 220.003 16.7521V16.8001C220.003 17.9521 219.427 18.5281 218.275 18.5281C217.123 18.5281 216.547 17.9521 216.547 16.8001ZM216.547 24.3361C216.547 23.1841 217.123 22.6081 218.275 22.6081C219.427 22.6081 220.003 23.1841 220.003 24.3361C220.003 25.4881 219.427 26.0641 218.275 26.0641C217.123 26.0641 216.547 25.4881 216.547 24.3361ZM216.547 20.5441C216.547 19.3921 217.123 18.8161 218.275 18.8161C219.427 18.8161 220.003 19.3921 220.003 20.5441C220.003 21.6961 219.427 22.2721 218.275 22.2721C217.123 22.2721 216.547 21.6961 216.547 20.5441ZM208.723 1.7281C208.723 2.8801 208.147 3.4561 206.995 3.4561H206.947C205.795 3.4561 205.603 3.0721 206.419 2.25609L207.475 1.2001C207.811 0.864096 208.099 0.720095 208.291 0.720095C208.579 0.720095 208.723 1.0561 208.723 1.7281ZM209.011 1.7281C209.011 0.576097 209.539 9.53674e-05 210.691 9.53674e-05H210.739C211.891 9.53674e-05 212.467 0.576097 212.467 1.7281C212.467 2.8801 211.891 3.4561 210.739 3.4561H210.691C209.539 3.4561 209.011 2.8801 209.011 1.7281ZM212.755 1.7281C212.755 0.576097 213.331 9.53674e-05 214.483 9.53674e-05C215.635 9.53674e-05 216.211 0.576097 216.211 1.7281C216.211 2.8801 215.635 3.4561 214.483 3.4561C213.331 3.4561 212.755 2.8801 212.755 1.7281ZM216.547 5.5201V5.4721C216.547 4.3201 217.123 3.7921 218.275 3.7921C219.427 3.7921 220.003 4.3201 220.003 5.4721V5.5201C220.003 6.6721 219.427 7.2481 218.275 7.2481C217.123 7.2481 216.547 6.6721 216.547 5.5201ZM216.547 9.2641C216.547 8.1121 217.123 7.5361 218.275 7.5361C219.427 7.5361 220.003 8.1121 220.003 9.2641C220.003 10.4161 219.427 10.9921 218.275 10.9921C217.123 10.9921 216.547 10.4161 216.547 9.2641ZM216.547 1.7281C216.547 0.576097 217.123 9.53674e-05 218.275 9.53674e-05C219.427 9.53674e-05 220.003 0.576097 220.003 1.7281C220.003 2.8801 219.427 3.4561 218.275 3.4561C217.123 3.4561 216.547 2.8801 216.547 1.7281ZM222.31 33.6001V31.9681H223.942V33.6001H222.31ZM222.31 31.8241V30.1921H223.942V31.8241H222.31ZM224.086 33.6001V31.9681H225.718V33.6001H224.086ZM224.086 31.8241V30.1921H225.718V31.8241H224.086Z" fill="white"/>
</svg>
