<svg width="290" height="180" viewBox="0 0 290 180" fill="none" xmlns="http://www.w3.org/2000/svg">
<path d="M0.000105858 158.976V140.544H18.4321V158.976H0.000105858ZM0.000105858 139.008V120.576H18.4321V139.008H0.000105858ZM0.000105858 160.512H18.4321L0.000105858 179.2V160.512ZM20.2241 179.2V160.512H38.6561V179.2H20.2241ZM40.1921 179.2V160.512H58.6241V179.2H40.1921ZM60.1601 160.512H78.8481L60.1601 179.2V160.512ZM0.000105858 78.848V60.16H18.4321V78.848H0.000105858ZM0.000105858 118.784V100.352H18.4321V118.784H0.000105858ZM0.000105858 58.624V40.192H18.4321V58.624H0.000105858ZM0.000105858 80.384H18.4321L0.000105858 98.816V80.384ZM20.2241 98.816V80.384H38.6561V98.816H20.2241ZM40.1921 80.384H58.6241L40.1921 98.816V80.384ZM18.4321 0V18.432H0.000105858L18.4321 0ZM0.000105858 38.656V20.224H18.4321V38.656H0.000105858ZM20.2241 18.432V0H38.6561V18.432H20.2241ZM40.1921 18.432V0H58.6241V18.432H40.1921ZM60.1601 0H78.8481L60.1601 18.432V0ZM230.692 139.008V120.576H249.124V139.008H230.692ZM230.692 158.976V140.544H249.124V158.976H230.692ZM230.692 160.512H249.124L230.692 179.2V160.512ZM230.692 78.848V60.16H249.124V78.848H230.692ZM249.124 100.352V118.784H230.692V100.352H249.124ZM210.724 18.432V0H229.156V18.432H210.724ZM249.124 20.224V38.656H230.692V20.224H249.124ZM230.692 58.624V40.192H249.124V58.624H230.692ZM230.692 98.816V80.384H249.124L230.692 98.816ZM208.932 0V18.432H190.5L208.932 0ZM230.692 18.432V0H249.124V18.432H230.692ZM250.66 18.432V0H269.348V18.432H250.66ZM270.884 0H289.316L270.884 18.432V0Z" fill="white"/>
<path d="M95.2501 158.976V140.544H113.682V158.976H95.2501ZM95.2501 139.008V120.576H113.682V139.008H95.2501ZM95.2501 160.512H113.682L95.2501 179.2V160.512ZM115.474 179.2V160.512H133.906V179.2H115.474ZM135.442 179.2V160.512H153.874V179.2H135.442ZM155.41 160.512H174.098L155.41 179.2V160.512ZM95.2501 78.848V60.16H113.682V78.848H95.2501ZM95.2501 118.784V100.352H113.682V118.784H95.2501ZM95.2501 38.656V20.224H113.682V38.656H95.2501ZM95.2501 58.624V40.192H113.682V58.624H95.2501ZM95.2501 80.384H113.682L95.2501 98.816V80.384ZM113.682 0V18.432H95.2501L113.682 0ZM115.474 18.432V0H133.906V18.432H115.474ZM135.442 18.432V0H153.874V18.432H135.442ZM155.41 0H174.098L155.41 18.432V0Z" fill="#FF0000"/>
</svg>
