<svg width="322" height="45" viewBox="0 0 322 45" fill="none" xmlns="http://www.w3.org/2000/svg">
<path d="M2.048 39.944V35.336H6.656V39.944H2.048ZM2.048 34.952V30.344H6.656V34.952H2.048ZM2.048 40.328H6.656L2.048 45V40.328ZM2.048 19.912V15.24H6.656V19.912H2.048ZM2.048 29.896V25.288H6.656V29.896H2.048ZM2.048 14.856V10.248H6.656V14.856H2.048ZM2.048 20.296H6.656L2.048 24.904V20.296ZM7.104 24.904V20.296H11.712V24.904H7.104ZM12.096 20.296H16.704L12.096 24.904V20.296ZM6.656 0.199997V4.808H2.048L6.656 0.199997ZM2.048 9.864V5.256H6.656V9.864H2.048ZM7.104 4.808V0.199997H11.712V4.808H7.104ZM12.096 4.808V0.199997H16.704V4.808H12.096ZM17.088 0.199997H21.76L17.088 4.808V0.199997ZM25.8605 45L30.4685 40.328V45H25.8605ZM30.8525 45V40.328H35.5245V45H30.8525ZM35.9085 45V40.328H40.5165V45H35.9085ZM35.9085 39.944V35.336H40.5165V39.944H35.9085ZM35.9085 34.952V30.344H40.5165V34.952H35.9085ZM40.9005 45V40.328H45.5085V45H40.9005ZM45.9565 40.328H50.5645L45.9565 45V40.328ZM35.9085 19.912V15.24H40.5165V19.912H35.9085ZM35.9085 29.896V25.288H40.5165V29.896H35.9085ZM35.9085 24.904V20.296H40.5165L35.9085 24.904ZM30.4685 0.199997V4.808H25.8605L30.4685 0.199997ZM30.8525 4.808V0.199997H35.5245V4.808H30.8525ZM40.5165 5.256V9.864H35.9085V5.256H40.5165ZM35.9085 4.808V0.199997H40.5165V4.808H35.9085ZM35.9085 14.856V10.248H40.5165V14.856H35.9085ZM40.9005 4.808V0.199997H45.5085V4.808H40.9005ZM45.9565 0.199997H50.5645L45.9565 4.808V0.199997ZM54.673 39.944V35.336H59.281V39.944H54.673ZM54.673 34.952V30.344H59.281V34.952H54.673ZM54.673 40.328H59.281L54.673 45V40.328ZM59.729 45V40.328H64.337V45H59.729ZM64.721 45V40.328H69.329V45H64.721ZM69.777 40.328H74.385L69.777 45V40.328ZM54.673 19.912V15.24H59.281V19.912H54.673ZM54.673 29.896V25.288H59.281V29.896H54.673ZM54.673 9.864V5.256H59.281V9.864H54.673ZM54.673 14.856V10.248H59.281V14.856H54.673ZM54.673 20.296H59.281L54.673 24.904V20.296ZM59.281 0.199997V4.808H54.673L59.281 0.199997ZM98.5815 19.912V15.24H103.19V19.912H98.5815ZM98.5815 39.944V35.336H103.19V39.944H98.5815ZM98.5815 24.904V20.296H103.19V24.904H98.5815ZM98.5815 9.864V5.256H103.19V9.864H98.5815ZM98.5815 34.952V30.344H103.19V34.952H98.5815ZM98.5815 29.896V25.288H103.19V29.896H98.5815ZM98.5815 14.856V10.248H103.19V14.856H98.5815ZM78.4855 19.912V15.24H83.0935V19.912H78.4855ZM88.5335 15.24H93.1415V19.912H88.5335V15.24ZM78.4855 39.944V35.336H83.0935V39.944H78.4855ZM78.4855 9.864V5.256H83.0935V9.864H78.4855ZM78.4855 34.952V30.344H83.0935V34.952H78.4855ZM78.4855 29.896V25.288H83.0935V29.896H78.4855ZM78.4855 14.856V10.248H83.0935V14.856H78.4855ZM98.5815 40.328H103.19L98.5815 45V40.328ZM103.19 0.199997V4.808H98.5815L103.19 0.199997ZM78.4855 40.328H83.0935L78.4855 45V40.328ZM78.4855 20.296H83.0935L78.4855 24.904V20.296ZM83.5415 9.864L88.1495 5.256V9.864H83.5415ZM93.5895 9.864L98.1975 5.256V9.864H93.5895ZM83.0935 0.199997V4.808H78.4855L83.0935 0.199997ZM83.5415 14.856V10.248H88.1495L83.5415 14.856ZM88.5335 24.904V20.296H93.1415L88.5335 24.904ZM88.5335 5.256H93.1415L88.5335 9.864V5.256ZM93.5895 14.856V10.248H98.1975L93.5895 14.856ZM93.1415 14.856H88.5335L93.1415 10.248V14.856Z" fill="white"/>
<path d="M123.048 39.944V35.336H127.656V39.944H123.048ZM123.048 34.952V30.344H127.656V34.952H123.048ZM123.048 40.328H127.656L123.048 45V40.328ZM123.048 19.912V15.24H127.656V19.912H123.048ZM123.048 29.896V25.288H127.656V29.896H123.048ZM123.048 14.856V10.248H127.656V14.856H123.048ZM123.048 20.296H127.656L123.048 24.904V20.296ZM128.104 24.904V20.296H132.712V24.904H128.104ZM133.096 20.296H137.704L133.096 24.904V20.296ZM127.656 0.199997V4.808H123.048L127.656 0.199997ZM123.048 9.864V5.256H127.656V9.864H123.048ZM128.104 4.808V0.199997H132.712V4.808H128.104ZM133.096 4.808V0.199997H137.704V4.808H133.096ZM138.088 0.199997H142.76L138.088 4.808V0.199997ZM146.861 39.944V35.336H151.469V39.944H146.861ZM146.861 34.952V30.344H151.469V34.952H146.861ZM146.861 40.328H151.469L146.861 45V40.328ZM151.917 45V40.328H156.525V45H151.917ZM156.909 45V40.328H161.517V45H156.909ZM161.901 40.328H166.573L161.901 45V40.328ZM146.861 19.912V15.24H151.469V19.912H146.861ZM146.861 29.896V25.288H151.469V29.896H146.861ZM146.861 14.856V10.248H151.469V14.856H146.861ZM146.861 20.296H151.469L146.861 24.904V20.296ZM151.917 24.904V20.296H156.525V24.904H151.917ZM156.909 20.296H161.517L156.909 24.904V20.296ZM151.469 0.199997V4.808H146.861L151.469 0.199997ZM146.861 9.864V5.256H151.469V9.864H146.861ZM151.917 4.808V0.199997H156.525V4.808H151.917ZM156.909 4.808V0.199997H161.517V4.808H156.909ZM161.901 0.199997H166.573L161.901 4.808V0.199997ZM170.673 45L175.281 40.328V45H170.673ZM175.729 45V40.328H180.337V45H175.729ZM180.721 45V40.328H185.329V45H180.721ZM185.713 39.944V35.336H190.385V39.944H185.713ZM185.713 40.328H190.385L185.713 45V40.328ZM170.673 19.912V15.24H175.281V19.912H170.673ZM170.673 14.856V10.248H175.281V14.856H170.673ZM170.673 20.296H175.281L170.673 24.904V20.296ZM175.729 24.904V20.296H180.337V24.904H175.729ZM180.721 24.904V20.296H185.329V24.904H180.721ZM185.713 24.904V20.296H190.385V24.904H185.713ZM185.713 34.952V30.344H190.385V34.952H185.713ZM185.713 29.896V25.288H190.385V29.896H185.713ZM175.281 0.199997V4.808H170.673L175.281 0.199997ZM170.673 9.864V5.256H175.281V9.864H170.673ZM175.729 4.808V0.199997H180.337V4.808H175.729ZM180.721 4.808V0.199997H185.329V4.808H180.721ZM185.713 0.199997H190.385L185.713 4.808V0.199997ZM204.534 34.952V30.344H209.142V34.952H204.534ZM204.534 39.944V35.336H209.142V39.944H204.534ZM204.534 40.328H209.142L204.534 45V40.328ZM204.534 19.912V15.24H209.142V19.912H204.534ZM209.142 25.288V29.896H204.534V25.288H209.142ZM199.542 4.808V0.199997H204.15V4.808H199.542ZM209.142 5.256V9.864H204.534V5.256H209.142ZM204.534 14.856V10.248H209.142V14.856H204.534ZM204.534 24.904V20.296H209.142L204.534 24.904ZM199.094 0.199997V4.808H194.486L199.094 0.199997ZM204.534 4.808V0.199997H209.142V4.808H204.534ZM209.526 4.808V0.199997H214.198V4.808H209.526ZM214.582 0.199997H219.19L214.582 4.808V0.199997ZM223.298 45L227.906 40.328V45H223.298ZM228.29 45V40.328H232.962V45H228.29ZM233.346 45V40.328H237.954V45H233.346ZM233.346 39.944V35.336H237.954V39.944H233.346ZM233.346 34.952V30.344H237.954V34.952H233.346ZM238.338 45V40.328H242.946V45H238.338ZM243.394 40.328H248.002L243.394 45V40.328ZM233.346 19.912V15.24H237.954V19.912H233.346ZM233.346 29.896V25.288H237.954V29.896H233.346ZM233.346 24.904V20.296H237.954L233.346 24.904ZM227.906 0.199997V4.808H223.298L227.906 0.199997ZM228.29 4.808V0.199997H232.962V4.808H228.29ZM237.954 5.256V9.864H233.346V5.256H237.954ZM233.346 4.808V0.199997H237.954V4.808H233.346ZM233.346 14.856V10.248H237.954V14.856H233.346ZM238.338 4.808V0.199997H242.946V4.808H238.338ZM243.394 0.199997H248.002L243.394 4.808V0.199997ZM252.111 34.952V30.344H256.719V34.952H252.111ZM252.111 35.336H256.719L252.111 39.944V35.336ZM257.167 45V40.328H261.775V45H257.167ZM262.159 40.328H266.767L262.159 45V40.328ZM252.111 29.896V25.288H256.719V29.896H252.111ZM267.151 34.952V30.344H271.759V34.952H267.151ZM267.151 35.336H271.759L267.151 39.944V35.336ZM252.111 19.912V15.24H256.719V19.912H252.111ZM252.111 14.856V10.248H256.719V14.856H252.111ZM252.111 20.296H256.719L252.111 24.904V20.296ZM267.151 19.912V15.24H271.759V19.912H267.151ZM267.151 24.904V20.296H271.759V24.904H267.151ZM267.151 29.896V25.288H271.759V29.896H267.151ZM256.719 0.199997V4.808H252.111L256.719 0.199997ZM252.111 9.864V5.256H256.719V9.864H252.111ZM271.759 0.199997V4.808H267.151L271.759 0.199997ZM267.151 9.864V5.256H271.759V9.864H267.151ZM267.151 14.856V10.248H271.759V14.856H267.151ZM275.923 34.952V30.344H280.531V34.952H275.923ZM275.923 39.944V35.336H280.531V39.944H275.923ZM275.923 40.328H280.531L275.923 45V40.328ZM290.963 34.952V30.344H295.635V34.952H290.963ZM290.963 40.328H295.635L290.963 45V40.328ZM275.923 19.912V15.24H280.531V19.912H275.923ZM275.923 29.896V25.288H280.531V29.896H275.923ZM290.963 35.336H295.635L290.963 39.944V35.336ZM275.923 14.856V10.248H280.531V14.856H275.923ZM275.923 20.296H280.531L275.923 24.904V20.296ZM280.979 24.904V20.296H285.587V24.904H280.979ZM285.971 20.296H290.579L285.971 24.904V20.296ZM275.923 9.864V5.256H280.531V9.864H275.923ZM290.963 19.912V15.24H295.635V19.912H290.963ZM290.963 29.896V25.288H295.635V29.896H290.963ZM290.963 24.904V20.296H295.635V24.904H290.963ZM280.531 0.199997V4.808H275.923L280.531 0.199997ZM280.979 4.808V0.199997H285.587V4.808H280.979ZM285.971 4.808V0.199997H290.579V4.808H285.971ZM290.963 14.856V10.248H295.635V14.856H290.963ZM290.963 9.864V5.256H295.635V9.864H290.963ZM290.963 0.199997H295.635L290.963 4.808V0.199997ZM299.736 39.944V35.336H304.344V39.944H299.736ZM299.736 34.952V30.344H304.344V34.952H299.736ZM299.736 40.328H304.344L299.736 45V40.328ZM304.792 45V40.328H309.4V45H304.792ZM309.784 45V40.328H314.392V45H309.784ZM314.84 40.328H319.448L314.84 45V40.328ZM299.736 19.912V15.24H304.344V19.912H299.736ZM299.736 29.896V25.288H304.344V29.896H299.736ZM299.736 9.864V5.256H304.344V9.864H299.736ZM299.736 14.856V10.248H304.344V14.856H299.736ZM299.736 20.296H304.344L299.736 24.904V20.296ZM304.344 0.199997V4.808H299.736L304.344 0.199997Z" fill="white"/>
</svg>
