<svg width="310" height="180" viewBox="0 0 310 180" fill="none" xmlns="http://www.w3.org/2000/svg">
<path d="M60.1596 78.848V60.16H78.8476V78.848H60.1596ZM60.1596 158.976V140.544H78.8476V158.976H60.1596ZM60.1596 80.384H78.8476V98.816H60.1596V80.384ZM60.1596 38.656V20.224H78.8476V38.656H60.1596ZM60.1596 139.008V120.576H78.8476V139.008H60.1596ZM60.1596 118.784V100.352H78.8476V118.784H60.1596ZM-0.000382423 78.848V60.16H18.4316V78.848H-0.000382423ZM60.1596 58.624V40.192H78.8476V58.624H60.1596ZM-0.000382423 158.976V140.544H18.4316V158.976H-0.000382423ZM20.2236 98.816V80.384H38.6556V98.816H20.2236ZM-0.000382423 139.008V120.576H18.4316V139.008H-0.000382423ZM-0.000382423 38.656V20.224H18.4316V38.656H-0.000382423ZM-0.000382423 118.784V100.352H18.4316V118.784H-0.000382423ZM-0.000382423 58.624V40.192H18.4316V58.624H-0.000382423ZM60.1596 160.512H78.8476L60.1596 179.2V160.512ZM78.8476 0V18.432H60.1596L78.8476 0ZM-0.000382423 160.512H18.4316L-0.000382423 179.2V160.512ZM-0.000382423 80.384H18.4316L-0.000382423 98.816V80.384ZM18.4316 0V18.432H-0.000382423L18.4316 0ZM40.1916 80.384H58.6236L40.1916 98.816V80.384ZM250.692 139.008V120.576H269.124V139.008H250.692ZM250.692 158.976V140.544H269.124V158.976H250.692ZM250.692 160.512H269.124L250.692 179.2V160.512ZM250.692 78.848V60.16H269.124V78.848H250.692ZM269.124 100.352V118.784H250.692V100.352H269.124ZM230.724 18.432V0H249.156V18.432H230.724ZM269.124 20.224V38.656H250.692V20.224H269.124ZM250.692 58.624V40.192H269.124V58.624H250.692ZM250.692 98.816V80.384H269.124L250.692 98.816ZM228.932 0V18.432H210.5L228.932 0ZM250.692 18.432V0H269.124V18.432H250.692ZM270.66 18.432V0H289.348V18.432H270.66ZM290.884 0H309.316L290.884 18.432V0Z" fill="white"/>
<path d="M95.2496 179.2L113.682 160.512V179.2H95.2496ZM115.218 179.2V160.512H133.906V179.2H115.218ZM135.442 179.2V160.512H153.874V179.2H135.442ZM135.442 158.976V140.544H153.874V158.976H135.442ZM135.442 139.008V120.576H153.874V139.008H135.442ZM155.41 179.2V160.512H173.842V179.2H155.41ZM175.634 160.512H194.066L175.634 179.2V160.512ZM135.442 78.848V60.16H153.874V78.848H135.442ZM135.442 118.784V100.352H153.874V118.784H135.442ZM135.442 98.816V80.384H153.874L135.442 98.816ZM113.682 0V18.432H95.2496L113.682 0ZM115.218 18.432V0H133.906V18.432H115.218ZM153.874 20.224V38.656H135.442V20.224H153.874ZM135.442 18.432V0H153.874V18.432H135.442ZM135.442 58.624V40.192H153.874V58.624H135.442ZM155.41 18.432V0H173.842V18.432H155.41ZM175.634 0H194.066L175.634 18.432V0Z" fill="#FF0000"/>
</svg>
