<svg width="476" height="87" viewBox="0 0 476 87" fill="none" xmlns="http://www.w3.org/2000/svg">
<path d="M-0.00013274 33.6001L3.45587 30.0961V33.6001H-0.00013274ZM3.79187 33.6001V30.0961H7.24787V33.6001H3.79187ZM7.53587 33.6001V30.0961H10.9919V33.6001H7.53587ZM11.2799 29.8081V26.3521H14.7839V29.8081H11.2799ZM11.2799 30.0961H14.7839L11.2799 33.6001V30.0961ZM-0.00013274 14.7841V11.2801H3.45587V14.7841H-0.00013274ZM-0.00013274 10.9921V7.5361H3.45587V10.9921H-0.00013274ZM-0.00013274 15.0721H3.45587L-0.00013274 18.5281V15.0721ZM3.79187 18.5281V15.0721H7.24787V18.5281H3.79187ZM7.53587 18.5281V15.0721H10.9919V18.5281H7.53587ZM11.2799 18.5281V15.0721H14.7839V18.5281H11.2799ZM11.2799 26.0641V22.6081H14.7839V26.0641H11.2799ZM11.2799 22.2721V18.8161H14.7839V22.2721H11.2799ZM3.45587 9.53674e-05V3.4561H-0.00013274L3.45587 9.53674e-05ZM-0.00013274 7.2481V3.7921H3.45587V7.2481H-0.00013274ZM3.79187 3.4561V9.53674e-05H7.24787V3.4561H3.79187ZM7.53587 3.4561V9.53674e-05H10.9919V3.4561H7.53587ZM11.2799 9.53674e-05H14.7839L11.2799 3.4561V9.53674e-05ZM17.8592 29.8081V26.3521H21.3152V29.8081H17.8592ZM17.8592 26.0641V22.6081H21.3152V26.0641H17.8592ZM17.8592 30.0961H21.3152L17.8592 33.6001V30.0961ZM21.6512 33.6001V30.0961H25.1072V33.6001H21.6512ZM25.3952 33.6001V30.0961H28.8512V33.6001H25.3952ZM29.1392 30.0961H32.6432L29.1392 33.6001V30.0961ZM17.8592 14.7841V11.2801H21.3152V14.7841H17.8592ZM17.8592 22.2721V18.8161H21.3152V22.2721H17.8592ZM17.8592 10.9921V7.5361H21.3152V10.9921H17.8592ZM17.8592 15.0721H21.3152L17.8592 18.5281V15.0721ZM21.6512 18.5281V15.0721H25.1072V18.5281H21.6512ZM25.3952 15.0721H28.8512L25.3952 18.5281V15.0721ZM21.3152 9.53674e-05V3.4561H17.8592L21.3152 9.53674e-05ZM17.8592 7.2481V3.7921H21.3152V7.2481H17.8592ZM21.6512 3.4561V9.53674e-05H25.1072V3.4561H21.6512ZM25.3952 3.4561V9.53674e-05H28.8512V3.4561H25.3952ZM29.1392 9.53674e-05H32.6432L29.1392 3.4561V9.53674e-05ZM35.7186 33.6001V30.0961H39.1746V33.6001H35.7186ZM35.7186 29.8081V26.3521H39.1746V29.8081H35.7186ZM35.7186 26.0641V22.6081H39.1746V26.0641H35.7186ZM39.5106 33.6001V30.0961H42.9666V33.6001H39.5106ZM43.2546 33.6001V30.0961H46.7106V33.6001H43.2546ZM46.9986 29.8081V26.3521H50.5026V29.8081H46.9986ZM46.9986 26.0641V22.6081H50.5026V26.0641H46.9986ZM46.9986 30.0961H50.5026L46.9986 33.6001V30.0961ZM35.7186 14.7841V11.2801H39.1746V14.7841H35.7186ZM35.7186 22.2721V18.8161H39.1746V22.2721H35.7186ZM35.7186 7.2481V3.7921H39.1746V7.2481H35.7186ZM35.7186 10.9921V7.5361H39.1746V10.9921H35.7186ZM35.7186 15.0721H39.1746L35.7186 18.5281V15.0721ZM46.9986 14.7841V11.2801H50.5026V14.7841H46.9986ZM46.9986 18.5281V15.0721H50.5026V18.5281H46.9986ZM46.9986 22.2721V18.8161H50.5026V22.2721H46.9986ZM39.1746 9.53674e-05V3.4561H35.7186L39.1746 9.53674e-05ZM39.5106 3.4561V9.53674e-05H42.9666V3.4561H39.5106ZM43.2546 3.4561V9.53674e-05H46.7106V3.4561H43.2546ZM46.9986 7.2481V3.7921H50.5026V7.2481H46.9986ZM46.9986 10.9921V7.5361H50.5026V10.9921H46.9986ZM46.9986 3.4561V9.53674e-05H50.5026V3.4561H46.9986ZM53.578 29.8081V26.3521H57.034V29.8081H53.578ZM53.578 26.0641V22.6081H57.034V26.0641H53.578ZM53.578 30.0961H57.034L53.578 33.6001V30.0961ZM57.37 33.6001V30.0961H60.826V33.6001H57.37ZM61.114 33.6001V30.0961H64.57V33.6001H61.114ZM64.858 29.8081V26.3521H68.314V29.8081H64.858ZM64.858 30.0961H68.314L64.858 33.6001V30.0961ZM53.578 14.7841V11.2801H57.034V14.7841H53.578ZM53.578 22.2721V18.8161H57.034V22.2721H53.578ZM53.578 15.0721H57.034L53.578 18.5281V15.0721ZM64.858 14.7841V11.2801H68.314V14.7841H64.858ZM64.858 18.5281V15.0721H68.314V18.5281H64.858ZM64.858 26.0641V22.6081H68.314V26.0641H64.858ZM64.858 22.2721V18.8161H68.314V22.2721H64.858ZM57.034 9.53674e-05V3.4561H53.578L57.034 9.53674e-05ZM53.578 7.2481V3.7921H57.034V7.2481H53.578ZM53.578 10.9921V7.5361H57.034V10.9921H53.578ZM68.314 9.53674e-05V3.4561H64.858L68.314 9.53674e-05ZM64.858 7.2481V3.7921H68.314V7.2481H64.858ZM64.858 10.9921V7.5361H68.314V10.9921H64.858ZM71.4374 29.8081V26.3521H74.8934V29.8081H71.4374ZM71.4374 26.0641V22.6081H74.8934V26.0641H71.4374ZM71.4374 30.0961H74.8934L71.4374 33.6001V30.0961ZM75.2294 33.6001V30.0961H78.6854V33.6001H75.2294ZM78.9734 33.6001V30.0961H82.4294V33.6001H78.9734ZM82.7654 30.0961H86.2214L82.7654 33.6001V30.0961ZM71.4374 14.7841V11.2801H74.8934V14.7841H71.4374ZM71.4374 22.2721V18.8161H74.8934V22.2721H71.4374ZM71.4374 7.2481V3.7921H74.8934V7.2481H71.4374ZM71.4374 10.9921V7.5361H74.8934V10.9921H71.4374ZM71.4374 15.0721H74.8934L71.4374 18.5281V15.0721ZM74.8934 9.53674e-05V3.4561H71.4374L74.8934 9.53674e-05ZM101.297 33.6001L104.753 30.0961V33.6001H101.297ZM105.041 33.6001V30.0961H108.545V33.6001H105.041ZM108.833 33.6001V30.0961H112.289V33.6001H108.833ZM108.833 29.8081V26.3521H112.289V29.8081H108.833ZM108.833 26.0641V22.6081H112.289V26.0641H108.833ZM112.577 33.6001V30.0961H116.033V33.6001H112.577ZM116.369 30.0961H119.825L116.369 33.6001V30.0961ZM108.833 14.7841V11.2801H112.289V14.7841H108.833ZM108.833 22.2721V18.8161H112.289V22.2721H108.833ZM108.833 18.5281V15.0721H112.289L108.833 18.5281ZM104.753 9.53674e-05V3.4561H101.297L104.753 9.53674e-05ZM105.041 3.4561V9.53674e-05H108.545V3.4561H105.041ZM112.289 3.7921V7.2481H108.833V3.7921H112.289ZM108.833 3.4561V9.53674e-05H112.289V3.4561H108.833ZM108.833 10.9921V7.5361H112.289V10.9921H108.833ZM112.577 3.4561V9.53674e-05H116.033V3.4561H112.577ZM116.369 9.53674e-05H119.825L116.369 3.4561V9.53674e-05ZM122.906 29.8081V26.3521H126.362V29.8081H122.906ZM122.906 26.0641V22.6081H126.362V26.0641H122.906ZM122.906 30.0961H126.362L122.906 33.6001V30.0961ZM134.186 29.8081V26.3521H137.69V29.8081H134.186ZM134.186 30.0961H137.69L134.186 33.6001V30.0961ZM122.906 14.7841V11.2801H126.362V14.7841H122.906ZM122.906 22.2721V18.8161H126.362V22.2721H122.906ZM122.906 15.0721H126.362L122.906 18.5281V15.0721ZM134.186 14.7841V11.2801H137.69V14.7841H134.186ZM134.186 18.5281V15.0721H137.69V18.5281H134.186ZM134.186 26.0641V22.6081H137.69V26.0641H134.186ZM134.186 22.2721V18.8161H137.69V22.2721H134.186ZM126.362 9.53674e-05V3.4561H122.906L126.362 9.53674e-05ZM122.906 7.2481V3.7921H126.362V7.2481H122.906ZM122.906 10.9921V7.5361H126.362V10.9921H122.906ZM126.698 3.4561V9.53674e-05H130.154V3.4561H126.698ZM130.442 3.4561V9.53674e-05H133.898V3.4561H130.442ZM134.186 7.2481V3.7921H137.69V7.2481H134.186ZM134.186 10.9921V7.5361H137.69V10.9921H134.186ZM134.186 9.53674e-05H137.69L134.186 3.4561V9.53674e-05ZM148.301 26.0641V22.6081H151.757V26.0641H148.301ZM148.301 29.8081V26.3521H151.757V29.8081H148.301ZM148.301 30.0961H151.757L148.301 33.6001V30.0961ZM148.301 14.7841V11.2801H151.757V14.7841H148.301ZM151.757 18.8161V22.2721H148.301V18.8161H151.757ZM144.557 3.4561V9.53674e-05H148.013V3.4561H144.557ZM151.757 3.7921V7.2481H148.301V3.7921H151.757ZM148.301 10.9921V7.5361H151.757V10.9921H148.301ZM148.301 18.5281V15.0721H151.757L148.301 18.5281ZM144.221 9.53674e-05V3.4561H140.765L144.221 9.53674e-05ZM148.301 3.4561V9.53674e-05H151.757V3.4561H148.301ZM152.045 3.4561V9.53674e-05H155.549V3.4561H152.045ZM155.837 9.53674e-05H159.293L155.837 3.4561V9.53674e-05ZM162.375 29.8081V26.3521H165.831V29.8081H162.375ZM162.375 26.0641V22.6081H165.831V26.0641H162.375ZM162.375 30.0961H165.831L162.375 33.6001V30.0961ZM166.167 33.6001V30.0961H169.623V33.6001H166.167ZM169.911 33.6001V30.0961H173.367V33.6001H169.911ZM173.655 30.0961H177.159L173.655 33.6001V30.0961ZM162.375 14.7841V11.2801H165.831V14.7841H162.375ZM162.375 22.2721V18.8161H165.831V22.2721H162.375ZM162.375 10.9921V7.5361H165.831V10.9921H162.375ZM162.375 15.0721H165.831L162.375 18.5281V15.0721ZM166.167 18.5281V15.0721H169.623V18.5281H166.167ZM169.911 15.0721H173.367L169.911 18.5281V15.0721ZM165.831 9.53674e-05V3.4561H162.375L165.831 9.53674e-05ZM162.375 7.2481V3.7921H165.831V7.2481H162.375ZM166.167 3.4561V9.53674e-05H169.623V3.4561H166.167ZM169.911 3.4561V9.53674e-05H173.367V3.4561H169.911ZM173.655 9.53674e-05H177.159L173.655 3.4561V9.53674e-05ZM180.234 29.8081V26.3521H183.69V29.8081H180.234ZM180.234 26.0641V22.6081H183.69V26.0641H180.234ZM180.234 30.0961H183.69L180.234 33.6001V30.0961ZM191.514 33.6001V30.0961H195.018V33.6001H191.514ZM180.234 22.2721V18.8161H183.69V22.2721H180.234ZM191.514 29.8081V26.3521H195.018V29.8081H191.514ZM191.514 26.0641V22.6081H195.018V26.0641H191.514ZM180.234 14.7841V11.2801H183.69V14.7841H180.234ZM180.234 10.9921V7.5361H183.69V10.9921H180.234ZM180.234 15.0721H183.69L180.234 18.5281V15.0721ZM184.026 18.5281V15.0721H187.482V18.5281H184.026ZM187.77 14.7841L191.226 11.2801V14.7841H187.77ZM187.77 18.5281V15.0721H191.226L187.77 18.5281ZM191.514 22.2721V18.8161H195.018V22.2721H191.514ZM191.514 18.5281L195.018 15.0721V18.5281H191.514ZM183.69 9.53674e-05V3.4561H180.234L183.69 9.53674e-05ZM180.234 7.2481V3.7921H183.69V7.2481H180.234ZM184.026 3.4561V9.53674e-05H187.482V3.4561H184.026ZM187.77 3.4561V9.53674e-05H191.226V3.4561H187.77ZM191.514 7.2481V3.7921H195.018V7.2481H191.514ZM191.514 10.9921V7.5361H195.018V10.9921H191.514ZM191.514 9.53674e-05H195.018L191.514 3.4561V9.53674e-05ZM198.094 29.8081V26.3521H201.55V29.8081H198.094ZM198.094 26.0641V22.6081H201.55V26.0641H198.094ZM198.094 30.0961H201.55L198.094 33.6001V30.0961ZM209.374 29.8081V26.3521H212.878V29.8081H209.374ZM209.374 30.0961H212.878L209.374 33.6001V30.0961ZM198.094 14.7841V11.2801H201.55V14.7841H198.094ZM198.094 22.2721V18.8161H201.55V22.2721H198.094ZM198.094 15.0721H201.55L198.094 18.5281V15.0721ZM209.374 14.7841V11.2801H212.878V14.7841H209.374ZM209.374 18.5281V15.0721H212.878V18.5281H209.374ZM209.374 26.0641V22.6081H212.878V26.0641H209.374ZM209.374 22.2721V18.8161H212.878V22.2721H209.374ZM201.55 9.53674e-05V3.4561H198.094L201.55 9.53674e-05ZM198.094 7.2481V3.7921H201.55V7.2481H198.094ZM198.094 10.9921V7.5361H201.55V10.9921H198.094ZM201.886 3.4561V9.53674e-05H205.342V3.4561H201.886ZM205.63 3.4561V9.53674e-05H209.086V3.4561H205.63ZM209.374 7.2481V3.7921H212.878V7.2481H209.374ZM209.374 10.9921V7.5361H212.878V10.9921H209.374ZM209.374 9.53674e-05H212.878L209.374 3.4561V9.53674e-05ZM215.953 26.0641V22.6081H219.409V26.0641H215.953ZM215.953 29.8081V26.3521H219.409V29.8081H215.953ZM215.953 30.0961H219.409L215.953 33.6001V30.0961ZM227.233 26.0641V22.6081H230.737V26.0641H227.233ZM227.233 30.0961H230.737L227.233 33.6001V30.0961ZM215.953 14.7841V11.2801H219.409V14.7841H215.953ZM215.953 22.2721V18.8161H219.409V22.2721H215.953ZM227.233 26.3521H230.737L227.233 29.8081V26.3521ZM215.953 10.9921V7.5361H219.409V10.9921H215.953ZM215.953 15.0721H219.409L215.953 18.5281V15.0721ZM219.745 18.5281V15.0721H223.201V18.5281H219.745ZM223.489 15.0721H226.945L223.489 18.5281V15.0721ZM215.953 7.2481V3.7921H219.409V7.2481H215.953ZM227.233 14.7841V11.2801H230.737V14.7841H227.233ZM227.233 22.2721V18.8161H230.737V22.2721H227.233ZM227.233 18.5281V15.0721H230.737V18.5281H227.233ZM219.409 9.53674e-05V3.4561H215.953L219.409 9.53674e-05ZM219.745 3.4561V9.53674e-05H223.201V3.4561H219.745ZM223.489 3.4561V9.53674e-05H226.945V3.4561H223.489ZM227.233 10.9921V7.5361H230.737V10.9921H227.233ZM227.233 7.2481V3.7921H230.737V7.2481H227.233ZM227.233 9.53674e-05H230.737L227.233 3.4561V9.53674e-05ZM241.348 26.0641V22.6081H244.804V26.0641H241.348ZM241.348 29.8081V26.3521H244.804V29.8081H241.348ZM241.348 30.0961H244.804L241.348 33.6001V30.0961ZM241.348 14.7841V11.2801H244.804V14.7841H241.348ZM244.804 18.8161V22.2721H241.348V18.8161H244.804ZM237.604 3.4561V9.53674e-05H241.06V3.4561H237.604ZM244.804 3.7921V7.2481H241.348V3.7921H244.804ZM241.348 10.9921V7.5361H244.804V10.9921H241.348ZM241.348 18.5281V15.0721H244.804L241.348 18.5281ZM237.268 9.53674e-05V3.4561H233.812L237.268 9.53674e-05ZM241.348 3.4561V9.53674e-05H244.804V3.4561H241.348ZM245.092 3.4561V9.53674e-05H248.596V3.4561H245.092ZM248.884 9.53674e-05H252.34L248.884 3.4561V9.53674e-05ZM255.422 33.6001L258.878 30.0961V33.6001H255.422ZM259.166 33.6001V30.0961H262.67V33.6001H259.166ZM262.958 33.6001V30.0961H266.414V33.6001H262.958ZM262.958 29.8081V26.3521H266.414V29.8081H262.958ZM262.958 26.0641V22.6081H266.414V26.0641H262.958ZM266.702 33.6001V30.0961H270.158V33.6001H266.702ZM270.494 30.0961H273.95L270.494 33.6001V30.0961ZM262.958 14.7841V11.2801H266.414V14.7841H262.958ZM262.958 22.2721V18.8161H266.414V22.2721H262.958ZM262.958 18.5281V15.0721H266.414L262.958 18.5281ZM258.878 9.53674e-05V3.4561H255.422L258.878 9.53674e-05ZM259.166 3.4561V9.53674e-05H262.67V3.4561H259.166ZM266.414 3.7921V7.2481H262.958V3.7921H266.414ZM262.958 3.4561V9.53674e-05H266.414V3.4561H262.958ZM262.958 10.9921V7.5361H266.414V10.9921H262.958ZM266.702 3.4561V9.53674e-05H270.158V3.4561H266.702ZM270.494 9.53674e-05H273.95L270.494 3.4561V9.53674e-05ZM277.031 33.6001V30.0961H280.487V33.6001H277.031ZM277.031 29.8081V26.3521H280.487V29.8081H277.031ZM277.031 26.0641V22.6081H280.487V26.0641H277.031ZM280.823 33.6001V30.0961H284.279V33.6001H280.823ZM284.567 33.6001V30.0961H288.023V33.6001H284.567ZM288.311 29.8081V26.3521H291.815V29.8081H288.311ZM288.311 26.0641V22.6081H291.815V26.0641H288.311ZM288.311 30.0961H291.815L288.311 33.6001V30.0961ZM277.031 14.7841V11.2801H280.487V14.7841H277.031ZM277.031 22.2721V18.8161H280.487V22.2721H277.031ZM277.031 7.2481V3.7921H280.487V7.2481H277.031ZM277.031 10.9921V7.5361H280.487V10.9921H277.031ZM277.031 15.0721H280.487L277.031 18.5281V15.0721ZM288.311 14.7841V11.2801H291.815V14.7841H288.311ZM288.311 18.5281V15.0721H291.815V18.5281H288.311ZM288.311 22.2721V18.8161H291.815V22.2721H288.311ZM280.487 9.53674e-05V3.4561H277.031L280.487 9.53674e-05ZM280.823 3.4561V9.53674e-05H284.279V3.4561H280.823ZM284.567 3.4561V9.53674e-05H288.023V3.4561H284.567ZM288.311 7.2481V3.7921H291.815V7.2481H288.311ZM288.311 10.9921V7.5361H291.815V10.9921H288.311ZM288.311 3.4561V9.53674e-05H291.815V3.4561H288.311ZM294.89 29.8081V26.3521H298.346V29.8081H294.89ZM294.89 26.0641V22.6081H298.346V26.0641H294.89ZM294.89 30.0961H298.346L294.89 33.6001V30.0961ZM306.17 29.8081V26.3521H309.674V29.8081H306.17ZM306.17 30.0961H309.674L306.17 33.6001V30.0961ZM294.89 14.7841V11.2801H298.346V14.7841H294.89ZM294.89 22.2721V18.8161H298.346V22.2721H294.89ZM294.89 15.0721H298.346L294.89 18.5281V15.0721ZM306.17 14.7841V11.2801H309.674V14.7841H306.17ZM306.17 18.5281V15.0721H309.674V18.5281H306.17ZM306.17 26.0641V22.6081H309.674V26.0641H306.17ZM306.17 22.2721V18.8161H309.674V22.2721H306.17ZM298.346 9.53674e-05V3.4561H294.89L298.346 9.53674e-05ZM294.89 7.2481V3.7921H298.346V7.2481H294.89ZM294.89 10.9921V7.5361H298.346V10.9921H294.89ZM298.682 3.4561V9.53674e-05H302.138V3.4561H298.682ZM302.426 3.4561V9.53674e-05H305.882V3.4561H302.426ZM306.17 7.2481V3.7921H309.674V7.2481H306.17ZM306.17 10.9921V7.5361H309.674V10.9921H306.17ZM306.17 9.53674e-05H309.674L306.17 3.4561V9.53674e-05ZM312.75 26.0641V22.6081H316.206V26.0641H312.75ZM312.75 29.8081V26.3521H316.206V29.8081H312.75ZM312.75 30.0961H316.206L312.75 33.6001V30.0961ZM324.03 26.0641V22.6081H327.534V26.0641H324.03ZM324.03 30.0961H327.534L324.03 33.6001V30.0961ZM312.75 14.7841V11.2801H316.206V14.7841H312.75ZM312.75 22.2721V18.8161H316.206V22.2721H312.75ZM324.03 26.3521H327.534L324.03 29.8081V26.3521ZM312.75 10.9921V7.5361H316.206V10.9921H312.75ZM312.75 15.0721H316.206L312.75 18.5281V15.0721ZM316.542 18.5281V15.0721H319.998V18.5281H316.542ZM320.286 15.0721H323.742L320.286 18.5281V15.0721ZM312.75 7.2481V3.7921H316.206V7.2481H312.75ZM324.03 14.7841V11.2801H327.534V14.7841H324.03ZM324.03 22.2721V18.8161H327.534V22.2721H324.03ZM324.03 18.5281V15.0721H327.534V18.5281H324.03ZM316.206 9.53674e-05V3.4561H312.75L316.206 9.53674e-05ZM316.542 3.4561V9.53674e-05H319.998V3.4561H316.542ZM320.286 3.4561V9.53674e-05H323.742V3.4561H320.286ZM324.03 10.9921V7.5361H327.534V10.9921H324.03ZM324.03 7.2481V3.7921H327.534V7.2481H324.03ZM324.03 9.53674e-05H327.534L324.03 3.4561V9.53674e-05ZM330.609 29.8081V26.3521H334.065V29.8081H330.609ZM330.609 26.0641V22.6081H334.065V26.0641H330.609ZM330.609 30.0961H334.065L330.609 33.6001V30.0961ZM334.401 33.6001V30.0961H337.857V33.6001H334.401ZM338.145 33.6001V30.0961H341.601V33.6001H338.145ZM341.937 30.0961H345.393L341.937 33.6001V30.0961ZM330.609 14.7841V11.2801H334.065V14.7841H330.609ZM330.609 22.2721V18.8161H334.065V22.2721H330.609ZM330.609 7.2481V3.7921H334.065V7.2481H330.609ZM330.609 10.9921V7.5361H334.065V10.9921H330.609ZM330.609 15.0721H334.065L330.609 18.5281V15.0721ZM334.065 9.53674e-05V3.4561H330.609L334.065 9.53674e-05ZM-0.00013274 79.0641V75.6081H3.45587V79.0641H-0.00013274ZM-0.00013274 82.8081V79.3521H3.45587V82.8081H-0.00013274ZM-0.00013274 83.0961H3.45587L-0.00013274 86.6001V83.0961ZM11.2799 79.0641V75.6081H14.7839V79.0641H11.2799ZM11.2799 83.0961H14.7839L11.2799 86.6001V83.0961ZM-0.00013274 67.7841V64.2801H3.45587V67.7841H-0.00013274ZM-0.00013274 75.2721V71.8161H3.45587V75.2721H-0.00013274ZM11.2799 79.3521H14.7839L11.2799 82.8081V79.3521ZM-0.00013274 63.9921V60.5361H3.45587V63.9921H-0.00013274ZM-0.00013274 68.0721H3.45587L-0.00013274 71.5281V68.0721ZM3.79187 71.5281V68.0721H7.24787V71.5281H3.79187ZM7.53587 68.0721H10.9919L7.53587 71.5281V68.0721ZM-0.00013274 60.2481V56.7921H3.45587V60.2481H-0.00013274ZM11.2799 67.7841V64.2801H14.7839V67.7841H11.2799ZM11.2799 75.2721V71.8161H14.7839V75.2721H11.2799ZM11.2799 71.5281V68.0721H14.7839V71.5281H11.2799ZM3.45587 53.0001V56.4561H-0.00013274L3.45587 53.0001ZM3.79187 56.4561V53.0001H7.24787V56.4561H3.79187ZM7.53587 56.4561V53.0001H10.9919V56.4561H7.53587ZM11.2799 63.9921V60.5361H14.7839V63.9921H11.2799ZM11.2799 60.2481V56.7921H14.7839V60.2481H11.2799ZM11.2799 53.0001H14.7839L11.2799 56.4561V53.0001ZM17.8592 82.8081V79.3521H21.3152V82.8081H17.8592ZM17.8592 79.0641V75.6081H21.3152V79.0641H17.8592ZM17.8592 83.0961H21.3152L17.8592 86.6001V83.0961ZM29.1392 86.6001V83.0961H32.6432V86.6001H29.1392ZM17.8592 75.2721V71.8161H21.3152V75.2721H17.8592ZM29.1392 82.8081V79.3521H32.6432V82.8081H29.1392ZM29.1392 79.0641V75.6081H32.6432V79.0641H29.1392ZM17.8592 67.7841V64.2801H21.3152V67.7841H17.8592ZM17.8592 63.9921V60.5361H21.3152V63.9921H17.8592ZM17.8592 68.0721H21.3152L17.8592 71.5281V68.0721ZM21.6512 71.5281V68.0721H25.1072V71.5281H21.6512ZM25.3952 67.7841L28.8512 64.2801V67.7841H25.3952ZM25.3952 71.5281V68.0721H28.8512L25.3952 71.5281ZM29.1392 75.2721V71.8161H32.6432V75.2721H29.1392ZM29.1392 71.5281L32.6432 68.0721V71.5281H29.1392ZM21.3152 53.0001V56.4561H17.8592L21.3152 53.0001ZM17.8592 60.2481V56.7921H21.3152V60.2481H17.8592ZM21.6512 56.4561V53.0001H25.1072V56.4561H21.6512ZM25.3952 56.4561V53.0001H28.8512V56.4561H25.3952ZM29.1392 60.2481V56.7921H32.6432V60.2481H29.1392ZM29.1392 63.9921V60.5361H32.6432V63.9921H29.1392ZM29.1392 53.0001H32.6432L29.1392 56.4561V53.0001ZM35.7186 82.8081V79.3521H39.1746V82.8081H35.7186ZM35.7186 79.0641V75.6081H39.1746V79.0641H35.7186ZM35.7186 83.0961H39.1746L35.7186 86.6001V83.0961ZM39.5106 86.6001V83.0961H42.9666V86.6001H39.5106ZM43.2546 86.6001V83.0961H46.7106V86.6001H43.2546ZM46.9986 83.0961H50.5026L46.9986 86.6001V83.0961ZM35.7186 67.7841V64.2801H39.1746V67.7841H35.7186ZM35.7186 75.2721V71.8161H39.1746V75.2721H35.7186ZM35.7186 60.2481V56.7921H39.1746V60.2481H35.7186ZM35.7186 63.9921V60.5361H39.1746V63.9921H35.7186ZM35.7186 68.0721H39.1746L35.7186 71.5281V68.0721ZM39.1746 53.0001V56.4561H35.7186L39.1746 53.0001ZM39.5106 56.4561V53.0001H42.9666V56.4561H39.5106ZM43.2546 56.4561V53.0001H46.7106V56.4561H43.2546ZM46.9986 53.0001H50.5026L46.9986 56.4561V53.0001ZM64.858 67.7841V64.2801H68.362V67.7841H64.858ZM64.858 82.8081V79.3521H68.362V82.8081H64.858ZM64.858 68.0721H68.362V71.5281H64.858V68.0721ZM64.858 60.2481V56.7921H68.362V60.2481H64.858ZM64.858 79.0641V75.6081H68.362V79.0641H64.858ZM64.858 75.2721V71.8161H68.362V75.2721H64.858ZM53.578 67.7841V64.2801H57.034V67.7841H53.578ZM64.858 63.9921V60.5361H68.362V63.9921H64.858ZM53.578 82.8081V79.3521H57.034V82.8081H53.578ZM57.37 71.5281V68.0721H60.826V71.5281H57.37ZM53.578 79.0641V75.6081H57.034V79.0641H53.578ZM53.578 60.2481V56.7921H57.034V60.2481H53.578ZM53.578 75.2721V71.8161H57.034V75.2721H53.578ZM53.578 63.9921V60.5361H57.034V63.9921H53.578ZM64.858 83.0961H68.362L64.858 86.6001V83.0961ZM68.362 53.0001V56.4561H64.858L68.362 53.0001ZM53.578 83.0961H57.034L53.578 86.6001V83.0961ZM53.578 68.0721H57.034L53.578 71.5281V68.0721ZM57.034 53.0001V56.4561H53.578L57.034 53.0001ZM61.114 68.0721H64.57L61.114 71.5281V68.0721ZM71.4374 86.6001L74.8934 83.0961V86.6001H71.4374ZM75.1814 86.6001V83.0961H78.6854V86.6001H75.1814ZM78.9734 86.6001V83.0961H82.4294V86.6001H78.9734ZM78.9734 82.8081V79.3521H82.4294V82.8081H78.9734ZM78.9734 79.0641V75.6081H82.4294V79.0641H78.9734ZM82.7174 86.6001V83.0961H86.1734V86.6001H82.7174ZM86.5094 83.0961H89.9654L86.5094 86.6001V83.0961ZM78.9734 67.7841V64.2801H82.4294V67.7841H78.9734ZM78.9734 75.2721V71.8161H82.4294V75.2721H78.9734ZM78.9734 71.5281V68.0721H82.4294L78.9734 71.5281ZM74.8934 53.0001V56.4561H71.4374L74.8934 53.0001ZM75.1814 56.4561V53.0001H78.6854V56.4561H75.1814ZM82.4294 56.7921V60.2481H78.9734V56.7921H82.4294ZM78.9734 56.4561V53.0001H82.4294V56.4561H78.9734ZM78.9734 63.9921V60.5361H82.4294V63.9921H78.9734ZM82.7174 56.4561V53.0001H86.1734V56.4561H82.7174ZM86.5094 53.0001H89.9654L86.5094 56.4561V53.0001ZM100.583 79.0641V75.6081H104.039V79.0641H100.583ZM100.583 82.8081V79.3521H104.039V82.8081H100.583ZM100.583 83.0961H104.039L100.583 86.6001V83.0961ZM100.583 67.7841V64.2801H104.039V67.7841H100.583ZM104.039 71.8161V75.2721H100.583V71.8161H104.039ZM96.8387 56.4561V53.0001H100.295V56.4561H96.8387ZM104.039 56.7921V60.2481H100.583V56.7921H104.039ZM100.583 63.9921V60.5361H104.039V63.9921H100.583ZM100.583 71.5281V68.0721H104.039L100.583 71.5281ZM96.5027 53.0001V56.4561H93.0467L96.5027 53.0001ZM100.583 56.4561V53.0001H104.039V56.4561H100.583ZM104.327 56.4561V53.0001H107.831V56.4561H104.327ZM108.119 53.0001H111.575L108.119 56.4561V53.0001ZM114.656 82.8081V79.3521H118.112V82.8081H114.656ZM114.656 79.0641V75.6081H118.112V79.0641H114.656ZM114.656 83.0961H118.112L114.656 86.6001V83.0961ZM118.448 86.6001V83.0961H121.904V86.6001H118.448ZM122.192 86.6001V83.0961H125.648V86.6001H122.192ZM125.936 83.0961H129.44L125.936 86.6001V83.0961ZM114.656 67.7841V64.2801H118.112V67.7841H114.656ZM114.656 75.2721V71.8161H118.112V75.2721H114.656ZM114.656 63.9921V60.5361H118.112V63.9921H114.656ZM114.656 68.0721H118.112L114.656 71.5281V68.0721ZM118.448 71.5281V68.0721H121.904V71.5281H118.448ZM122.192 68.0721H125.648L122.192 71.5281V68.0721ZM118.112 53.0001V56.4561H114.656L118.112 53.0001ZM114.656 60.2481V56.7921H118.112V60.2481H114.656ZM118.448 56.4561V53.0001H121.904V56.4561H118.448ZM122.192 56.4561V53.0001H125.648V56.4561H122.192ZM125.936 53.0001H129.44L125.936 56.4561V53.0001ZM132.515 82.8081V79.3521H135.971V82.8081H132.515ZM132.515 79.0641V75.6081H135.971V79.0641H132.515ZM132.515 83.0961H135.971L132.515 86.6001V83.0961ZM136.307 86.6001V83.0961H139.763V86.6001H136.307ZM140.051 86.6001V83.0961H143.507V86.6001H140.051ZM143.795 83.0961H147.299L143.795 86.6001V83.0961ZM132.515 67.7841V64.2801H135.971V67.7841H132.515ZM132.515 75.2721V71.8161H135.971V75.2721H132.515ZM132.515 60.2481V56.7921H135.971V60.2481H132.515ZM132.515 63.9921V60.5361H135.971V63.9921H132.515ZM132.515 68.0721H135.971L132.515 71.5281V68.0721ZM135.971 53.0001V56.4561H132.515L135.971 53.0001ZM136.307 56.4561V53.0001H139.763V56.4561H136.307ZM140.051 56.4561V53.0001H143.507V56.4561H140.051ZM143.795 53.0001H147.299L143.795 56.4561V53.0001ZM157.911 79.0641V75.6081H161.367V79.0641H157.911ZM157.911 82.8081V79.3521H161.367V82.8081H157.911ZM157.911 83.0961H161.367L157.911 86.6001V83.0961ZM157.911 67.7841V64.2801H161.367V67.7841H157.911ZM161.367 71.8161V75.2721H157.911V71.8161H161.367ZM154.167 56.4561V53.0001H157.623V56.4561H154.167ZM161.367 56.7921V60.2481H157.911V56.7921H161.367ZM157.911 63.9921V60.5361H161.367V63.9921H157.911ZM157.911 71.5281V68.0721H161.367L157.911 71.5281ZM153.831 53.0001V56.4561H150.375L153.831 53.0001ZM157.911 56.4561V53.0001H161.367V56.4561H157.911ZM161.655 56.4561V53.0001H165.159V56.4561H161.655ZM165.447 53.0001H168.903L165.447 56.4561V53.0001ZM171.984 82.8081V79.3521H175.44V82.8081H171.984ZM171.984 79.0641V75.6081H175.44V79.0641H171.984ZM171.984 83.0961H175.44L171.984 86.6001V83.0961ZM175.776 86.6001V83.0961H179.232V86.6001H175.776ZM179.52 86.6001V83.0961H182.976V86.6001H179.52ZM183.264 82.8081V79.3521H186.72V82.8081H183.264ZM183.264 83.0961H186.72L183.264 86.6001V83.0961ZM171.984 67.7841V64.2801H175.44V67.7841H171.984ZM171.984 75.2721V71.8161H175.44V75.2721H171.984ZM171.984 68.0721H175.44L171.984 71.5281V68.0721ZM183.264 67.7841V64.2801H186.72V67.7841H183.264ZM183.264 71.5281V68.0721H186.72V71.5281H183.264ZM183.264 79.0641V75.6081H186.72V79.0641H183.264ZM183.264 75.2721V71.8161H186.72V75.2721H183.264ZM175.44 53.0001V56.4561H171.984L175.44 53.0001ZM171.984 60.2481V56.7921H175.44V60.2481H171.984ZM171.984 63.9921V60.5361H175.44V63.9921H171.984ZM186.72 53.0001V56.4561H183.264L186.72 53.0001ZM183.264 60.2481V56.7921H186.72V60.2481H183.264ZM183.264 63.9921V60.5361H186.72V63.9921H183.264ZM189.844 82.8081V79.3521H193.3V82.8081H189.844ZM189.844 79.0641V75.6081H193.3V79.0641H189.844ZM189.844 83.0961H193.3L189.844 86.6001V83.0961ZM201.124 86.6001V83.0961H204.628V86.6001H201.124ZM189.844 75.2721V71.8161H193.3V75.2721H189.844ZM201.124 82.8081V79.3521H204.628V82.8081H201.124ZM201.124 79.0641V75.6081H204.628V79.0641H201.124ZM189.844 67.7841V64.2801H193.3V67.7841H189.844ZM189.844 63.9921V60.5361H193.3V63.9921H189.844ZM189.844 68.0721H193.3L189.844 71.5281V68.0721ZM193.636 71.5281V68.0721H197.092V71.5281H193.636ZM197.38 67.7841L200.836 64.2801V67.7841H197.38ZM197.38 71.5281V68.0721H200.836L197.38 71.5281ZM201.124 75.2721V71.8161H204.628V75.2721H201.124ZM201.124 71.5281L204.628 68.0721V71.5281H201.124ZM193.3 53.0001V56.4561H189.844L193.3 53.0001ZM189.844 60.2481V56.7921H193.3V60.2481H189.844ZM193.636 56.4561V53.0001H197.092V56.4561H193.636ZM197.38 56.4561V53.0001H200.836V56.4561H197.38ZM201.124 60.2481V56.7921H204.628V60.2481H201.124ZM201.124 63.9921V60.5361H204.628V63.9921H201.124ZM201.124 53.0001H204.628L201.124 56.4561V53.0001ZM207.703 82.8081V79.3521H211.159V82.8081H207.703ZM207.703 79.0641V75.6081H211.159V79.0641H207.703ZM207.703 83.0961H211.159L207.703 86.6001V83.0961ZM211.495 86.6001V83.0961H214.951V86.6001H211.495ZM215.239 86.6001V83.0961H218.695V86.6001H215.239ZM218.983 83.0961H222.487L218.983 86.6001V83.0961ZM207.703 67.7841V64.2801H211.159V67.7841H207.703ZM207.703 75.2721V71.8161H211.159V75.2721H207.703ZM207.703 63.9921V60.5361H211.159V63.9921H207.703ZM207.703 68.0721H211.159L207.703 71.5281V68.0721ZM211.495 71.5281V68.0721H214.951V71.5281H211.495ZM215.239 68.0721H218.695L215.239 71.5281V68.0721ZM211.159 53.0001V56.4561H207.703L211.159 53.0001ZM207.703 60.2481V56.7921H211.159V60.2481H207.703ZM211.495 56.4561V53.0001H214.951V56.4561H211.495ZM215.239 56.4561V53.0001H218.695V56.4561H215.239ZM218.983 53.0001H222.487L218.983 56.4561V53.0001ZM237.562 82.8081V79.3521H241.018V82.8081H237.562ZM237.562 79.0641V75.6081H241.018V79.0641H237.562ZM237.562 83.0961H241.018L237.562 86.6001V83.0961ZM237.562 67.7841V64.2801H241.018V67.7841H237.562ZM237.562 75.2721V71.8161H241.018V75.2721H237.562ZM237.562 63.9921V60.5361H241.018V63.9921H237.562ZM237.562 68.0721H241.018L237.562 71.5281V68.0721ZM241.354 71.5281V68.0721H244.81V71.5281H241.354ZM245.098 68.0721H248.554L245.098 71.5281V68.0721ZM241.018 53.0001V56.4561H237.562L241.018 53.0001ZM237.562 60.2481V56.7921H241.018V60.2481H237.562ZM241.354 56.4561V53.0001H244.81V56.4561H241.354ZM245.098 56.4561V53.0001H248.554V56.4561H245.098ZM248.842 53.0001H252.346L248.842 56.4561V53.0001ZM255.422 86.6001L258.878 83.0961V86.6001H255.422ZM259.166 86.6001V83.0961H262.67V86.6001H259.166ZM262.958 86.6001V83.0961H266.414V86.6001H262.958ZM262.958 82.8081V79.3521H266.414V82.8081H262.958ZM262.958 79.0641V75.6081H266.414V79.0641H262.958ZM266.702 86.6001V83.0961H270.158V86.6001H266.702ZM270.494 83.0961H273.95L270.494 86.6001V83.0961ZM262.958 67.7841V64.2801H266.414V67.7841H262.958ZM262.958 75.2721V71.8161H266.414V75.2721H262.958ZM262.958 71.5281V68.0721H266.414L262.958 71.5281ZM258.878 53.0001V56.4561H255.422L258.878 53.0001ZM259.166 56.4561V53.0001H262.67V56.4561H259.166ZM266.414 56.7921V60.2481H262.958V56.7921H266.414ZM262.958 56.4561V53.0001H266.414V56.4561H262.958ZM262.958 63.9921V60.5361H266.414V63.9921H262.958ZM266.702 56.4561V53.0001H270.158V56.4561H266.702ZM270.494 53.0001H273.95L270.494 56.4561V53.0001ZM277.031 82.8081V79.3521H280.487V82.8081H277.031ZM277.031 79.0641V75.6081H280.487V79.0641H277.031ZM277.031 83.0961H280.487L277.031 86.6001V83.0961ZM280.823 86.6001V83.0961H284.279V86.6001H280.823ZM284.567 86.6001V83.0961H288.023V86.6001H284.567ZM288.359 83.0961H291.815L288.359 86.6001V83.0961ZM277.031 67.7841V64.2801H280.487V67.7841H277.031ZM277.031 75.2721V71.8161H280.487V75.2721H277.031ZM277.031 60.2481V56.7921H280.487V60.2481H277.031ZM277.031 63.9921V60.5361H280.487V63.9921H277.031ZM277.031 68.0721H280.487L277.031 71.5281V68.0721ZM280.487 53.0001V56.4561H277.031L280.487 53.0001ZM309.962 67.7841V64.2801H313.418V67.7841H309.962ZM309.962 82.8081V79.3521H313.418V82.8081H309.962ZM309.962 71.5281V68.0721H313.418V71.5281H309.962ZM309.962 60.2481V56.7921H313.418V60.2481H309.962ZM309.962 79.0641V75.6081H313.418V79.0641H309.962ZM309.962 75.2721V71.8161H313.418V75.2721H309.962ZM309.962 63.9921V60.5361H313.418V63.9921H309.962ZM294.89 67.7841V64.2801H298.346V67.7841H294.89ZM302.426 64.2801H305.882V67.7841H302.426V64.2801ZM294.89 82.8081V79.3521H298.346V82.8081H294.89ZM294.89 60.2481V56.7921H298.346V60.2481H294.89ZM294.89 79.0641V75.6081H298.346V79.0641H294.89ZM294.89 75.2721V71.8161H298.346V75.2721H294.89ZM294.89 63.9921V60.5361H298.346V63.9921H294.89ZM309.962 83.0961H313.418L309.962 86.6001V83.0961ZM313.418 53.0001V56.4561H309.962L313.418 53.0001ZM294.89 83.0961H298.346L294.89 86.6001V83.0961ZM294.89 68.0721H298.346L294.89 71.5281V68.0721ZM298.682 60.2481L302.138 56.7921V60.2481H298.682ZM306.218 60.2481L309.674 56.7921V60.2481H306.218ZM298.346 53.0001V56.4561H294.89L298.346 53.0001ZM298.682 63.9921V60.5361H302.138L298.682 63.9921ZM302.426 71.5281V68.0721H305.882L302.426 71.5281ZM302.426 56.7921H305.882L302.426 60.2481V56.7921ZM306.218 63.9921V60.5361H309.674L306.218 63.9921ZM305.882 63.9921H302.426L305.882 60.5361V63.9921ZM328.547 82.8081V79.3521H332.003V82.8081H328.547ZM328.547 79.0641V75.6081H332.003V79.0641H328.547ZM328.547 83.0961H332.003L328.547 86.6001V83.0961ZM328.547 67.7841V64.2801H332.003V67.7841H328.547ZM328.547 75.2721V71.8161H332.003V75.2721H328.547ZM328.547 63.9921V60.5361H332.003V63.9921H328.547ZM328.547 68.0721H332.003L328.547 71.5281V68.0721ZM332.339 71.5281V68.0721H335.795V71.5281H332.339ZM336.083 68.0721H339.539L336.083 71.5281V68.0721ZM332.003 53.0001V56.4561H328.547L332.003 53.0001ZM328.547 60.2481V56.7921H332.003V60.2481H328.547ZM332.339 56.4561V53.0001H335.795V56.4561H332.339ZM336.083 56.4561V53.0001H339.539V56.4561H336.083ZM339.827 53.0001H343.331L339.827 56.4561V53.0001ZM346.406 82.8081V79.3521H349.862V82.8081H346.406ZM346.406 79.0641V75.6081H349.862V79.0641H346.406ZM346.406 83.0961H349.862L346.406 86.6001V83.0961ZM350.198 86.6001V83.0961H353.654V86.6001H350.198ZM353.942 86.6001V83.0961H357.398V86.6001H353.942ZM357.686 83.0961H361.19L357.686 86.6001V83.0961ZM346.406 67.7841V64.2801H349.862V67.7841H346.406ZM346.406 75.2721V71.8161H349.862V75.2721H346.406ZM346.406 63.9921V60.5361H349.862V63.9921H346.406ZM346.406 68.0721H349.862L346.406 71.5281V68.0721ZM350.198 71.5281V68.0721H353.654V71.5281H350.198ZM353.942 68.0721H357.398L353.942 71.5281V68.0721ZM349.862 53.0001V56.4561H346.406L349.862 53.0001ZM346.406 60.2481V56.7921H349.862V60.2481H346.406ZM350.198 56.4561V53.0001H353.654V56.4561H350.198ZM353.942 56.4561V53.0001H357.398V56.4561H353.942ZM357.686 53.0001H361.19L357.686 56.4561V53.0001ZM364.265 86.6001L367.721 83.0961V86.6001H364.265ZM368.057 86.6001V83.0961H371.513V86.6001H368.057ZM371.801 86.6001V83.0961H375.257V86.6001H371.801ZM375.545 82.8081V79.3521H379.049V82.8081H375.545ZM375.545 83.0961H379.049L375.545 86.6001V83.0961ZM364.265 67.7841V64.2801H367.721V67.7841H364.265ZM364.265 63.9921V60.5361H367.721V63.9921H364.265ZM364.265 68.0721H367.721L364.265 71.5281V68.0721ZM368.057 71.5281V68.0721H371.513V71.5281H368.057ZM371.801 71.5281V68.0721H375.257V71.5281H371.801ZM375.545 71.5281V68.0721H379.049V71.5281H375.545ZM375.545 79.0641V75.6081H379.049V79.0641H375.545ZM375.545 75.2721V71.8161H379.049V75.2721H375.545ZM367.721 53.0001V56.4561H364.265L367.721 53.0001ZM364.265 60.2481V56.7921H367.721V60.2481H364.265ZM368.057 56.4561V53.0001H371.513V56.4561H368.057ZM371.801 56.4561V53.0001H375.257V56.4561H371.801ZM375.545 53.0001H379.049L375.545 56.4561V53.0001ZM389.661 79.0641V75.6081H393.117V79.0641H389.661ZM389.661 82.8081V79.3521H393.117V82.8081H389.661ZM389.661 83.0961H393.117L389.661 86.6001V83.0961ZM389.661 67.7841V64.2801H393.117V67.7841H389.661ZM393.117 71.8161V75.2721H389.661V71.8161H393.117ZM385.917 56.4561V53.0001H389.373V56.4561H385.917ZM393.117 56.7921V60.2481H389.661V56.7921H393.117ZM389.661 63.9921V60.5361H393.117V63.9921H389.661ZM389.661 71.5281V68.0721H393.117L389.661 71.5281ZM385.581 53.0001V56.4561H382.125L385.581 53.0001ZM389.661 56.4561V53.0001H393.117V56.4561H389.661ZM393.405 56.4561V53.0001H396.909V56.4561H393.405ZM397.197 53.0001H400.653L397.197 56.4561V53.0001ZM403.734 86.6001L407.19 83.0961V86.6001H403.734ZM407.478 86.6001V83.0961H410.982V86.6001H407.478ZM411.27 86.6001V83.0961H414.726V86.6001H411.27ZM411.27 82.8081V79.3521H414.726V82.8081H411.27ZM411.27 79.0641V75.6081H414.726V79.0641H411.27ZM415.014 86.6001V83.0961H418.47V86.6001H415.014ZM418.806 83.0961H422.262L418.806 86.6001V83.0961ZM411.27 67.7841V64.2801H414.726V67.7841H411.27ZM411.27 75.2721V71.8161H414.726V75.2721H411.27ZM411.27 71.5281V68.0721H414.726L411.27 71.5281ZM407.19 53.0001V56.4561H403.734L407.19 53.0001ZM407.478 56.4561V53.0001H410.982V56.4561H407.478ZM414.726 56.7921V60.2481H411.27V56.7921H414.726ZM411.27 56.4561V53.0001H414.726V56.4561H411.27ZM411.27 63.9921V60.5361H414.726V63.9921H411.27ZM415.014 56.4561V53.0001H418.47V56.4561H415.014ZM418.806 53.0001H422.262L418.806 56.4561V53.0001ZM425.344 79.0641V75.6081H428.8V79.0641H425.344ZM425.344 79.3521H428.8L425.344 82.8081V79.3521ZM429.136 86.6001V83.0961H432.592V86.6001H429.136ZM432.88 83.0961H436.336L432.88 86.6001V83.0961ZM425.344 75.2721V71.8161H428.8V75.2721H425.344ZM436.624 79.0641V75.6081H440.08V79.0641H436.624ZM436.624 79.3521H440.08L436.624 82.8081V79.3521ZM425.344 67.7841V64.2801H428.8V67.7841H425.344ZM425.344 63.9921V60.5361H428.8V63.9921H425.344ZM425.344 68.0721H428.8L425.344 71.5281V68.0721ZM436.624 67.7841V64.2801H440.08V67.7841H436.624ZM436.624 71.5281V68.0721H440.08V71.5281H436.624ZM436.624 75.2721V71.8161H440.08V75.2721H436.624ZM428.8 53.0001V56.4561H425.344L428.8 53.0001ZM425.344 60.2481V56.7921H428.8V60.2481H425.344ZM440.08 53.0001V56.4561H436.624L440.08 53.0001ZM436.624 60.2481V56.7921H440.08V60.2481H436.624ZM436.624 63.9921V60.5361H440.08V63.9921H436.624ZM443.203 79.0641V75.6081H446.659V79.0641H443.203ZM443.203 82.8081V79.3521H446.659V82.8081H443.203ZM443.203 83.0961H446.659L443.203 86.6001V83.0961ZM454.483 79.0641V75.6081H457.987V79.0641H454.483ZM454.483 83.0961H457.987L454.483 86.6001V83.0961ZM443.203 67.7841V64.2801H446.659V67.7841H443.203ZM443.203 75.2721V71.8161H446.659V75.2721H443.203ZM454.483 79.3521H457.987L454.483 82.8081V79.3521ZM443.203 63.9921V60.5361H446.659V63.9921H443.203ZM443.203 68.0721H446.659L443.203 71.5281V68.0721ZM446.995 71.5281V68.0721H450.451V71.5281H446.995ZM450.739 68.0721H454.195L450.739 71.5281V68.0721ZM443.203 60.2481V56.7921H446.659V60.2481H443.203ZM454.483 67.7841V64.2801H457.987V67.7841H454.483ZM454.483 75.2721V71.8161H457.987V75.2721H454.483ZM454.483 71.5281V68.0721H457.987V71.5281H454.483ZM446.659 53.0001V56.4561H443.203L446.659 53.0001ZM446.995 56.4561V53.0001H450.451V56.4561H446.995ZM450.739 56.4561V53.0001H454.195V56.4561H450.739ZM454.483 63.9921V60.5361H457.987V63.9921H454.483ZM454.483 60.2481V56.7921H457.987V60.2481H454.483ZM454.483 53.0001H457.987L454.483 56.4561V53.0001ZM461.062 82.8081V79.3521H464.518V82.8081H461.062ZM461.062 79.0641V75.6081H464.518V79.0641H461.062ZM461.062 83.0961H464.518L461.062 86.6001V83.0961ZM464.854 86.6001V83.0961H468.31V86.6001H464.854ZM468.598 86.6001V83.0961H472.054V86.6001H468.598ZM472.39 83.0961H475.846L472.39 86.6001V83.0961ZM461.062 67.7841V64.2801H464.518V67.7841H461.062ZM461.062 75.2721V71.8161H464.518V75.2721H461.062ZM461.062 60.2481V56.7921H464.518V60.2481H461.062ZM461.062 63.9921V60.5361H464.518V63.9921H461.062ZM461.062 68.0721H464.518L461.062 71.5281V68.0721ZM464.518 53.0001V56.4561H461.062L464.518 53.0001Z" fill="white"/>
</svg>
