<svg width="407" height="45" viewBox="0 0 407 45" fill="none" xmlns="http://www.w3.org/2000/svg">
<path d="M0.000148535 39.744V35.136H4.60815V39.744H0.000148535ZM0.000148535 34.752V30.144H4.60815V34.752H0.000148535ZM0.000148535 40.128H4.60815L0.000148535 44.8V40.128ZM5.05615 44.8V40.128H9.66415V44.8H5.05615ZM10.0481 44.8V40.128H14.6561V44.8H10.0481ZM15.0401 40.128H19.7121L15.0401 44.8V40.128ZM0.000148535 19.712V15.04H4.60815V19.712H0.000148535ZM0.000148535 29.696V25.088H4.60815V29.696H0.000148535ZM0.000148535 9.66405V5.05605H4.60815V9.66405H0.000148535ZM0.000148535 14.656V10.048H4.60815V14.656H0.000148535ZM0.000148535 20.096H4.60815L0.000148535 24.704V20.096ZM4.60815 4.57764e-05V4.60805H0.000148535L4.60815 4.57764e-05ZM5.05615 4.60805V4.57764e-05H9.66415V4.60805H5.05615ZM10.0481 4.60805V4.57764e-05H14.6561V4.60805H10.0481ZM15.0401 4.57764e-05H19.7121L15.0401 4.60805V4.57764e-05ZM38.8526 19.712V15.04H43.5246V19.712H38.8526ZM38.8526 39.744V35.136H43.5246V39.744H38.8526ZM38.8526 20.096H43.5246V24.704H38.8526V20.096ZM38.8526 9.66405V5.05605H43.5246V9.66405H38.8526ZM38.8526 34.752V30.144H43.5246V34.752H38.8526ZM38.8526 29.696V25.088H43.5246V29.696H38.8526ZM23.8126 19.712V15.04H28.4206V19.712H23.8126ZM38.8526 14.656V10.048H43.5246V14.656H38.8526ZM23.8126 39.744V35.136H28.4206V39.744H23.8126ZM28.8686 24.704V20.096H33.4766V24.704H28.8686ZM23.8126 34.752V30.144H28.4206V34.752H23.8126ZM23.8126 9.66405V5.05605H28.4206V9.66405H23.8126ZM23.8126 29.696V25.088H28.4206V29.696H23.8126ZM23.8126 14.656V10.048H28.4206V14.656H23.8126ZM38.8526 40.128H43.5246L38.8526 44.8V40.128ZM43.5246 4.57764e-05V4.60805H38.8526L43.5246 4.57764e-05ZM23.8126 40.128H28.4206L23.8126 44.8V40.128ZM23.8126 20.096H28.4206L23.8126 24.704V20.096ZM28.4206 4.57764e-05V4.60805H23.8126L28.4206 4.57764e-05ZM33.8606 20.096H38.4686L33.8606 24.704V20.096ZM47.6251 39.744V35.136H52.2331V39.744H47.6251ZM47.6251 34.752V30.144H52.2331V34.752H47.6251ZM47.6251 40.128H52.2331L47.6251 44.8V40.128ZM52.6811 44.8V40.128H57.2891V44.8H52.6811ZM57.6731 44.8V40.128H62.2811V44.8H57.6731ZM62.6651 40.128H67.3371L62.6651 44.8V40.128ZM47.6251 19.712V15.04H52.2331V19.712H47.6251ZM47.6251 29.696V25.088H52.2331V29.696H47.6251ZM47.6251 14.656V10.048H52.2331V14.656H47.6251ZM47.6251 20.096H52.2331L47.6251 24.704V20.096ZM52.6811 24.704V20.096H57.2891V24.704H52.6811ZM57.6731 20.096H62.2811L57.6731 24.704V20.096ZM52.2331 4.57764e-05V4.60805H47.6251L52.2331 4.57764e-05ZM47.6251 9.66405V5.05605H52.2331V9.66405H47.6251ZM52.6811 4.60805V4.57764e-05H57.2891V4.60805H52.6811ZM57.6731 4.60805V4.57764e-05H62.2811V4.60805H57.6731ZM62.6651 4.57764e-05H67.3371L62.6651 4.60805V4.57764e-05ZM71.4376 39.744V35.136H76.0456V39.744H71.4376ZM71.4376 34.752V30.144H76.0456V34.752H71.4376ZM71.4376 40.128H76.0456L71.4376 44.8V40.128ZM76.4936 44.8V40.128H81.1016V44.8H76.4936ZM81.4856 44.8V40.128H86.0936V44.8H81.4856ZM86.4776 40.128H91.1496L86.4776 44.8V40.128ZM71.4376 19.712V15.04H76.0456V19.712H71.4376ZM71.4376 29.696V25.088H76.0456V29.696H71.4376ZM71.4376 9.66405V5.05605H76.0456V9.66405H71.4376ZM71.4376 14.656V10.048H76.0456V14.656H71.4376ZM71.4376 20.096H76.0456L71.4376 24.704V20.096ZM76.0456 4.57764e-05V4.60805H71.4376L76.0456 4.57764e-05ZM76.4936 4.60805V4.57764e-05H81.1016V4.60805H76.4936ZM81.4856 4.60805V4.57764e-05H86.0936V4.60805H81.4856ZM86.4776 4.57764e-05H91.1496L86.4776 4.60805V4.57764e-05ZM95.2501 39.744V35.136H99.8581V39.744H95.2501ZM95.2501 34.752V30.144H99.8581V34.752H95.2501ZM95.2501 40.128H99.8581L95.2501 44.8V40.128ZM110.354 40.128H114.962L110.354 44.8V40.128ZM95.2501 29.696V25.088H99.8581V29.696H95.2501ZM110.354 39.744V35.136H114.962V39.744H110.354ZM110.354 34.752V30.144H114.962V34.752H110.354ZM95.2501 19.712V15.04H99.8581V19.712H95.2501ZM110.354 29.696V25.088H114.962V29.696H110.354ZM95.2501 9.66405V5.05605H99.8581V9.66405H95.2501ZM95.2501 14.656V10.048H99.8581V14.656H95.2501ZM95.2501 20.096H99.8581L95.2501 24.704V20.096ZM104.914 24.704H100.306L104.914 20.096V24.704ZM105.298 19.712L109.906 15.04V19.712H105.298ZM105.298 24.704V20.096H109.906L105.298 24.704ZM110.354 9.66405V5.05605H114.962V9.66405H110.354ZM110.354 14.656V10.048H114.962V14.656H110.354ZM110.354 15.04H114.962L110.354 19.712V15.04ZM110.354 24.704L114.962 20.096V24.704H110.354ZM99.8581 4.57764e-05V4.60805H95.2501L99.8581 4.57764e-05ZM114.962 4.57764e-05V4.60805H110.354L114.962 4.57764e-05ZM135.063 44.8V40.128H139.671V44.8H135.063ZM135.063 39.744V35.136H139.671V39.744H135.063ZM135.063 34.752V30.144H139.671V34.752H135.063ZM140.119 44.8V40.128H144.727V44.8H140.119ZM145.111 44.8V40.128H149.719V44.8H145.111ZM150.103 39.744V35.136H154.775V39.744H150.103ZM150.103 34.752V30.144H154.775V34.752H150.103ZM150.103 40.128H154.775L150.103 44.8V40.128ZM135.063 19.712V15.04H139.671V19.712H135.063ZM135.063 29.696V25.088H139.671V29.696H135.063ZM135.063 9.66405V5.05605H139.671V9.66405H135.063ZM135.063 14.656V10.048H139.671V14.656H135.063ZM135.063 20.096H139.671L135.063 24.704V20.096ZM150.103 19.712V15.04H154.775V19.712H150.103ZM150.103 24.704V20.096H154.775V24.704H150.103ZM150.103 29.696V25.088H154.775V29.696H150.103ZM139.671 4.57764e-05V4.60805H135.063L139.671 4.57764e-05ZM140.119 4.60805V4.57764e-05H144.727V4.60805H140.119ZM145.111 4.60805V4.57764e-05H149.719V4.60805H145.111ZM150.103 9.66405V5.05605H154.775V9.66405H150.103ZM150.103 14.656V10.048H154.775V14.656H150.103ZM150.103 4.60805V4.57764e-05H154.775V4.60805H150.103ZM158.875 39.744V35.136H163.483V39.744H158.875ZM158.875 34.752V30.144H163.483V34.752H158.875ZM158.875 40.128H163.483L158.875 44.8V40.128ZM163.931 44.8V40.128H168.539V44.8H163.931ZM168.923 44.8V40.128H173.531V44.8H168.923ZM173.915 39.744V35.136H178.523V39.744H173.915ZM173.915 40.128H178.523L173.915 44.8V40.128ZM158.875 19.712V15.04H163.483V19.712H158.875ZM158.875 29.696V25.088H163.483V29.696H158.875ZM158.875 20.096H163.483L158.875 24.704V20.096ZM173.915 19.712V15.04H178.523V19.712H173.915ZM173.915 24.704V20.096H178.523V24.704H173.915ZM173.915 34.752V30.144H178.523V34.752H173.915ZM173.915 29.696V25.088H178.523V29.696H173.915ZM163.483 4.57764e-05V4.60805H158.875L163.483 4.57764e-05ZM158.875 9.66405V5.05605H163.483V9.66405H158.875ZM158.875 14.656V10.048H163.483V14.656H158.875ZM178.523 4.57764e-05V4.60805H173.915L178.523 4.57764e-05ZM173.915 9.66405V5.05605H178.523V9.66405H173.915ZM173.915 14.656V10.048H178.523V14.656H173.915ZM192.736 34.752V30.144H197.344V34.752H192.736ZM192.736 39.744V35.136H197.344V39.744H192.736ZM192.736 40.128H197.344L192.736 44.8V40.128ZM192.736 19.712V15.04H197.344V19.712H192.736ZM197.344 25.088V29.696H192.736V25.088H197.344ZM187.744 4.60805V4.57764e-05H192.352V4.60805H187.744ZM197.344 5.05605V9.66405H192.736V5.05605H197.344ZM192.736 14.656V10.048H197.344V14.656H192.736ZM192.736 24.704V20.096H197.344L192.736 24.704ZM187.296 4.57764e-05V4.60805H182.688L187.296 4.57764e-05ZM192.736 4.60805V4.57764e-05H197.344V4.60805H192.736ZM197.728 4.60805V4.57764e-05H202.4V4.60805H197.728ZM202.784 4.57764e-05H207.392L202.784 4.60805V4.57764e-05ZM227.5 44.8V40.128H232.108V44.8H227.5ZM227.5 39.744V35.136H232.108V39.744H227.5ZM227.5 34.752V30.144H232.108V34.752H227.5ZM232.556 44.8V40.128H237.164V44.8H232.556ZM237.548 44.8V40.128H242.156V44.8H237.548ZM242.54 39.744V35.136H247.212V39.744H242.54ZM242.54 34.752V30.144H247.212V34.752H242.54ZM242.54 40.128H247.212L242.54 44.8V40.128ZM227.5 19.712V15.04H232.108V19.712H227.5ZM227.5 29.696V25.088H232.108V29.696H227.5ZM227.5 9.66405V5.05605H232.108V9.66405H227.5ZM227.5 14.656V10.048H232.108V14.656H227.5ZM227.5 20.096H232.108L227.5 24.704V20.096ZM242.54 19.712V15.04H247.212V19.712H242.54ZM242.54 24.704V20.096H247.212V24.704H242.54ZM242.54 29.696V25.088H247.212V29.696H242.54ZM232.108 4.57764e-05V4.60805H227.5L232.108 4.57764e-05ZM232.556 4.60805V4.57764e-05H237.164V4.60805H232.556ZM237.548 4.60805V4.57764e-05H242.156V4.60805H237.548ZM242.54 9.66405V5.05605H247.212V9.66405H242.54ZM242.54 14.656V10.048H247.212V14.656H242.54ZM242.54 4.60805V4.57764e-05H247.212V4.60805H242.54ZM251.313 39.744V35.136H255.921V39.744H251.313ZM251.313 34.752V30.144H255.921V34.752H251.313ZM251.313 40.128H255.921L251.313 44.8V40.128ZM256.369 44.8V40.128H260.977V44.8H256.369ZM261.361 44.8V40.128H265.969V44.8H261.361ZM266.353 39.744V35.136H270.961V39.744H266.353ZM266.353 40.128H270.961L266.353 44.8V40.128ZM251.313 19.712V15.04H255.921V19.712H251.313ZM251.313 29.696V25.088H255.921V29.696H251.313ZM251.313 20.096H255.921L251.313 24.704V20.096ZM266.353 19.712V15.04H270.961V19.712H266.353ZM266.353 24.704V20.096H270.961V24.704H266.353ZM266.353 34.752V30.144H270.961V34.752H266.353ZM266.353 29.696V25.088H270.961V29.696H266.353ZM255.921 4.57764e-05V4.60805H251.313L255.921 4.57764e-05ZM251.313 9.66405V5.05605H255.921V9.66405H251.313ZM251.313 14.656V10.048H255.921V14.656H251.313ZM270.961 4.57764e-05V4.60805H266.353L270.961 4.57764e-05ZM266.353 9.66405V5.05605H270.961V9.66405H266.353ZM266.353 14.656V10.048H270.961V14.656H266.353ZM275.125 39.744V35.136H279.733V39.744H275.125ZM275.125 34.752V30.144H279.733V34.752H275.125ZM275.125 40.128H279.733L275.125 44.8V40.128ZM290.165 44.8V40.128H294.837V44.8H290.165ZM275.125 29.696V25.088H279.733V29.696H275.125ZM290.165 39.744V35.136H294.837V39.744H290.165ZM290.165 34.752V30.144H294.837V34.752H290.165ZM275.125 19.712V15.04H279.733V19.712H275.125ZM275.125 14.656V10.048H279.733V14.656H275.125ZM275.125 20.096H279.733L275.125 24.704V20.096ZM280.181 24.704V20.096H284.789V24.704H280.181ZM285.173 19.712L289.781 15.04V19.712H285.173ZM285.173 24.704V20.096H289.781L285.173 24.704ZM290.165 29.696V25.088H294.837V29.696H290.165ZM290.165 24.704L294.837 20.096V24.704H290.165ZM279.733 4.57764e-05V4.60805H275.125L279.733 4.57764e-05ZM275.125 9.66405V5.05605H279.733V9.66405H275.125ZM280.181 4.60805V4.57764e-05H284.789V4.60805H280.181ZM285.173 4.60805V4.57764e-05H289.781V4.60805H285.173ZM290.165 9.66405V5.05605H294.837V9.66405H290.165ZM290.165 14.656V10.048H294.837V14.656H290.165ZM290.165 4.57764e-05H294.837L290.165 4.60805V4.57764e-05ZM314.938 44.8L319.546 40.128V44.8H314.938ZM319.994 44.8V40.128H324.602V44.8H319.994ZM324.986 44.8V40.128H329.594V44.8H324.986ZM329.978 39.744V35.136H334.65V39.744H329.978ZM329.978 40.128H334.65L329.978 44.8V40.128ZM314.938 19.712V15.04H319.546V19.712H314.938ZM314.938 14.656V10.048H319.546V14.656H314.938ZM314.938 20.096H319.546L314.938 24.704V20.096ZM319.994 24.704V20.096H324.602V24.704H319.994ZM324.986 24.704V20.096H329.594V24.704H324.986ZM329.978 24.704V20.096H334.65V24.704H329.978ZM329.978 34.752V30.144H334.65V34.752H329.978ZM329.978 29.696V25.088H334.65V29.696H329.978ZM319.546 4.57764e-05V4.60805H314.938L319.546 4.57764e-05ZM314.938 9.66405V5.05605H319.546V9.66405H314.938ZM319.994 4.60805V4.57764e-05H324.602V4.60805H319.994ZM324.986 4.60805V4.57764e-05H329.594V4.60805H324.986ZM329.978 4.57764e-05H334.65L329.978 4.60805V4.57764e-05ZM353.79 19.712V15.04H358.462V19.712H353.79ZM353.79 39.744V35.136H358.462V39.744H353.79ZM353.79 20.096H358.462V24.704H353.79V20.096ZM353.79 9.66405V5.05605H358.462V9.66405H353.79ZM353.79 34.752V30.144H358.462V34.752H353.79ZM353.79 29.696V25.088H358.462V29.696H353.79ZM338.75 19.712V15.04H343.358V19.712H338.75ZM353.79 14.656V10.048H358.462V14.656H353.79ZM338.75 39.744V35.136H343.358V39.744H338.75ZM343.806 24.704V20.096H348.414V24.704H343.806ZM338.75 34.752V30.144H343.358V34.752H338.75ZM338.75 9.66405V5.05605H343.358V9.66405H338.75ZM338.75 29.696V25.088H343.358V29.696H338.75ZM338.75 14.656V10.048H343.358V14.656H338.75ZM353.79 40.128H358.462L353.79 44.8V40.128ZM358.462 4.57764e-05V4.60805H353.79L358.462 4.57764e-05ZM338.75 40.128H343.358L338.75 44.8V40.128ZM338.75 20.096H343.358L338.75 24.704V20.096ZM343.358 4.57764e-05V4.60805H338.75L343.358 4.57764e-05ZM348.798 20.096H353.406L348.798 24.704V20.096ZM362.563 44.8V40.128H367.171V44.8H362.563ZM362.563 39.744V35.136H367.171V39.744H362.563ZM362.563 34.752V30.144H367.171V34.752H362.563ZM367.619 44.8V40.128H372.227V44.8H367.619ZM372.611 44.8V40.128H377.219V44.8H372.611ZM377.603 39.744V35.136H382.275V39.744H377.603ZM377.603 34.752V30.144H382.275V34.752H377.603ZM377.603 40.128H382.275L377.603 44.8V40.128ZM362.563 19.712V15.04H367.171V19.712H362.563ZM362.563 29.696V25.088H367.171V29.696H362.563ZM362.563 9.66405V5.05605H367.171V9.66405H362.563ZM362.563 14.656V10.048H367.171V14.656H362.563ZM362.563 20.096H367.171L362.563 24.704V20.096ZM377.603 19.712V15.04H382.275V19.712H377.603ZM377.603 24.704V20.096H382.275V24.704H377.603ZM377.603 29.696V25.088H382.275V29.696H377.603ZM367.171 4.57764e-05V4.60805H362.563L367.171 4.57764e-05ZM367.619 4.60805V4.57764e-05H372.227V4.60805H367.619ZM372.611 4.60805V4.57764e-05H377.219V4.60805H372.611ZM377.603 9.66405V5.05605H382.275V9.66405H377.603ZM377.603 14.656V10.048H382.275V14.656H377.603ZM377.603 4.60805V4.57764e-05H382.275V4.60805H377.603ZM386.375 39.744V35.136H390.983V39.744H386.375ZM386.375 34.752V30.144H390.983V34.752H386.375ZM386.375 40.128H390.983L386.375 44.8V40.128ZM386.375 19.712V15.04H390.983V19.712H386.375ZM386.375 29.696V25.088H390.983V29.696H386.375ZM386.375 14.656V10.048H390.983V14.656H386.375ZM386.375 20.096H390.983L386.375 24.704V20.096ZM391.431 24.704V20.096H396.039V24.704H391.431ZM396.423 24.704V20.096H401.031V24.704H396.423ZM401.415 20.096H406.087L401.415 24.704V20.096ZM390.983 4.57764e-05V4.60805H386.375L390.983 4.57764e-05ZM386.375 9.66405V5.05605H390.983V9.66405H386.375ZM401.415 19.712V15.04H406.087V19.712H401.415ZM391.431 4.60805V4.57764e-05H396.039V4.60805H391.431ZM396.423 4.60805V4.57764e-05H401.031V4.60805H396.423ZM401.415 9.66405V5.05605H406.087V9.66405H401.415ZM401.415 14.656V10.048H406.087V14.656H401.415ZM401.415 4.57764e-05H406.087L401.415 4.60805V4.57764e-05Z" fill="white"/>
</svg>
