<svg width="270" height="180" viewBox="0 0 270 180" fill="none" xmlns="http://www.w3.org/2000/svg">
<path d="M0.000105858 158.976V140.544H18.4321V158.976H0.000105858ZM0.000105858 139.008V120.576H18.4321V139.008H0.000105858ZM0.000105858 160.512H18.4321L0.000105858 179.2V160.512ZM20.2241 179.2V160.512H38.6561V179.2H20.2241ZM40.1921 179.2V160.512H58.6241V179.2H40.1921ZM60.1601 158.976V140.544H78.5921V158.976H60.1601ZM60.1601 160.512H78.5921L60.1601 179.2V160.512ZM0.000105858 78.848V60.16H18.4321V78.848H0.000105858ZM0.000105858 118.784V100.352H18.4321V118.784H0.000105858ZM0.000105858 80.384H18.4321L0.000105858 98.816V80.384ZM60.1601 78.848V60.16H78.5921V78.848H60.1601ZM60.1601 98.816V80.384H78.5921V98.816H60.1601ZM60.1601 139.008V120.576H78.5921V139.008H60.1601ZM60.1601 118.784V100.352H78.5921V118.784H60.1601ZM18.4321 0V18.432H0.000105858L18.4321 0ZM0.000105858 38.656V20.224H18.4321V38.656H0.000105858ZM0.000105858 58.624V40.192H18.4321V58.624H0.000105858ZM78.5921 0V18.432H60.1601L78.5921 0ZM60.1601 38.656V20.224H78.5921V38.656H60.1601ZM60.1601 58.624V40.192H78.5921V58.624H60.1601ZM95.2501 158.976V140.544H113.682V158.976H95.2501ZM95.2501 139.008V120.576H113.682V139.008H95.2501ZM95.2501 160.512H113.682L95.2501 179.2V160.512ZM155.41 179.2V160.512H174.098V179.2H155.41ZM95.2501 118.784V100.352H113.682V118.784H95.2501ZM155.41 158.976V140.544H174.098V158.976H155.41ZM155.41 139.008V120.576H174.098V139.008H155.41ZM95.2501 78.848V60.16H113.682V78.848H95.2501ZM95.2501 58.624V40.192H113.682V58.624H95.2501ZM95.2501 80.384H113.682L95.2501 98.816V80.384ZM115.474 98.816V80.384H133.906V98.816H115.474ZM135.442 78.848L153.874 60.16V78.848H135.442ZM135.442 98.816V80.384H153.874L135.442 98.816ZM155.41 118.784V100.352H174.098V118.784H155.41ZM155.41 98.816L174.098 80.384V98.816H155.41ZM113.682 0V18.432H95.2501L113.682 0ZM95.2501 38.656V20.224H113.682V38.656H95.2501ZM115.474 18.432V0H133.906V18.432H115.474ZM135.442 18.432V0H153.874V18.432H135.442ZM155.41 38.656V20.224H174.098V38.656H155.41ZM155.41 58.624V40.192H174.098V58.624H155.41ZM155.41 0H174.098L155.41 18.432V0Z" fill="white"/>
<path d="M190.5 158.976V140.544H208.932V158.976H190.5ZM190.5 139.008V120.576H208.932V139.008H190.5ZM190.5 160.512H208.932L190.5 179.2V160.512ZM210.724 179.2V160.512H229.156V179.2H210.724ZM230.692 179.2V160.512H249.124V179.2H230.692ZM250.66 160.512H269.348L250.66 179.2V160.512ZM190.5 78.848V60.16H208.932V78.848H190.5ZM190.5 118.784V100.352H208.932V118.784H190.5ZM190.5 58.624V40.192H208.932V58.624H190.5ZM190.5 80.384H208.932L190.5 98.816V80.384ZM210.724 98.816V80.384H229.156V98.816H210.724ZM230.692 80.384H249.124L230.692 98.816V80.384ZM208.932 0V18.432H190.5L208.932 0ZM190.5 38.656V20.224H208.932V38.656H190.5ZM210.724 18.432V0H229.156V18.432H210.724ZM230.692 18.432V0H249.124V18.432H230.692ZM250.66 0H269.348L250.66 18.432V0Z" fill="#FF0000"/>
</svg>
