<svg width="208" height="45" viewBox="0 0 208 45" fill="none" xmlns="http://www.w3.org/2000/svg">
<path d="M0 34.752V30.144H4.608V34.752H0ZM0 35.136H4.608L0 39.744V35.136ZM5.056 44.8V40.128H9.664V44.8H5.056ZM10.048 40.128H14.656L10.048 44.8V40.128ZM0 29.696V25.088H4.608V29.696H0ZM15.04 34.752V30.144H19.648V34.752H15.04ZM15.04 35.136H19.648L15.04 39.744V35.136ZM0 19.712V15.04H4.608V19.712H0ZM0 14.656V10.048H4.608V14.656H0ZM0 20.096H4.608L0 24.704V20.096ZM15.04 19.712V15.04H19.648V19.712H15.04ZM15.04 24.704V20.096H19.648V24.704H15.04ZM15.04 29.696V25.088H19.648V29.696H15.04ZM4.608 0V4.608H0L4.608 0ZM0 9.664V5.056H4.608V9.664H0ZM19.648 0V4.608H15.04L19.648 0ZM15.04 9.664V5.056H19.648V9.664H15.04ZM15.04 14.656V10.048H19.648V14.656H15.04Z" fill="white"/>
<path d="M23.8125 39.744V35.136H28.4205V39.744H23.8125ZM23.8125 34.752V30.144H28.4205V34.752H23.8125ZM23.8125 40.128H28.4205L23.8125 44.8V40.128ZM28.8685 44.8V40.128H33.4765V44.8H28.8685ZM33.8605 44.8V40.128H38.4685V44.8H33.8605ZM38.8525 40.128H43.5245L38.8525 44.8V40.128ZM23.8125 19.712V15.04H28.4205V19.712H23.8125ZM23.8125 29.696V25.088H28.4205V29.696H23.8125ZM23.8125 14.656V10.048H28.4205V14.656H23.8125ZM23.8125 20.096H28.4205L23.8125 24.704V20.096ZM28.8685 24.704V20.096H33.4765V24.704H28.8685ZM33.8605 20.096H38.4685L33.8605 24.704V20.096ZM28.4205 0V4.608H23.8125L28.4205 0ZM23.8125 9.664V5.056H28.4205V9.664H23.8125ZM28.8685 4.608V0H33.4765V4.608H28.8685ZM33.8605 4.608V0H38.4685V4.608H33.8605ZM38.8525 0H43.5245L38.8525 4.608V0Z" fill="white"/>
<path d="M47.625 39.744V35.136H52.233V39.744H47.625ZM47.625 34.752V30.144H52.233V34.752H47.625ZM47.625 40.128H52.233L47.625 44.8V40.128ZM62.665 39.744V35.136H67.337V39.744H62.665ZM62.665 40.128H67.337L62.665 44.8V40.128ZM47.625 19.712V15.04H52.233V19.712H47.625ZM47.625 29.696V25.088H52.233V29.696H47.625ZM47.625 20.096H52.233L47.625 24.704V20.096ZM62.665 19.712V15.04H67.337V19.712H62.665ZM62.665 24.704V20.096H67.337V24.704H62.665ZM62.665 34.752V30.144H67.337V34.752H62.665ZM62.665 29.696V25.088H67.337V29.696H62.665ZM52.233 0V4.608H47.625L52.233 0ZM47.625 9.664V5.056H52.233V9.664H47.625ZM47.625 14.656V10.048H52.233V14.656H47.625ZM52.681 4.608V0H57.289V4.608H52.681ZM57.673 4.608V0H62.281V4.608H57.673ZM62.665 9.664V5.056H67.337V9.664H62.665ZM62.665 14.656V10.048H67.337V14.656H62.665ZM62.665 0H67.337L62.665 4.608V0Z" fill="white"/>
<path d="M71.4375 39.744V35.136H76.0455V39.744H71.4375ZM71.4375 34.752V30.144H76.0455V34.752H71.4375ZM71.4375 40.128H76.0455L71.4375 44.8V40.128ZM76.4935 44.8V40.128H81.1015V44.8H76.4935ZM81.4855 44.8V40.128H86.0935V44.8H81.4855ZM86.4775 39.744V35.136H91.0855V39.744H86.4775ZM86.4775 40.128H91.0855L86.4775 44.8V40.128ZM71.4375 19.712V15.04H76.0455V19.712H71.4375ZM71.4375 29.696V25.088H76.0455V29.696H71.4375ZM71.4375 20.096H76.0455L71.4375 24.704V20.096ZM86.4775 19.712V15.04H91.0855V19.712H86.4775ZM86.4775 24.704V20.096H91.0855V24.704H86.4775ZM86.4775 34.752V30.144H91.0855V34.752H86.4775ZM86.4775 29.696V25.088H91.0855V29.696H86.4775ZM76.0455 0V4.608H71.4375L76.0455 0ZM71.4375 9.664V5.056H76.0455V9.664H71.4375ZM71.4375 14.656V10.048H76.0455V14.656H71.4375ZM91.0855 0V4.608H86.4775L91.0855 0ZM86.4775 9.664V5.056H91.0855V9.664H86.4775ZM86.4775 14.656V10.048H91.0855V14.656H86.4775Z" fill="white"/>
<path d="M95.25 39.744V35.136H99.858V39.744H95.25ZM95.25 34.752V30.144H99.858V34.752H95.25ZM95.25 40.128H99.858L95.25 44.8V40.128ZM100.306 44.8V40.128H104.914V44.8H100.306ZM105.298 44.8V40.128H109.906V44.8H105.298ZM110.29 40.128H114.962L110.29 44.8V40.128ZM95.25 19.712V15.04H99.858V19.712H95.25ZM95.25 29.696V25.088H99.858V29.696H95.25ZM95.25 14.656V10.048H99.858V14.656H95.25ZM95.25 20.096H99.858L95.25 24.704V20.096ZM100.306 24.704V20.096H104.914V24.704H100.306ZM105.298 20.096H109.906L105.298 24.704V20.096ZM99.858 0V4.608H95.25L99.858 0ZM95.25 9.664V5.056H99.858V9.664H95.25ZM100.306 4.608V0H104.914V4.608H100.306ZM105.298 4.608V0H109.906V4.608H105.298ZM110.29 0H114.962L110.29 4.608V0Z" fill="white"/>
<path d="M155.159 19.712V15.04H159.766V19.712H155.159ZM155.159 39.744V35.136H159.766V39.744H155.159ZM155.159 24.704V20.096H159.766V24.704H155.159ZM155.159 9.664V5.056H159.766V9.664H155.159ZM155.159 34.752V30.144H159.766V34.752H155.159ZM155.159 29.696V25.088H159.766V29.696H155.159ZM155.159 14.656V10.048H159.766V14.656H155.159ZM135.062 19.712V15.04H139.671V19.712H135.062ZM145.111 15.04H149.719V19.712H145.111V15.04ZM135.062 39.744V35.136H139.671V39.744H135.062ZM135.062 9.664V5.056H139.671V9.664H135.062ZM135.062 34.752V30.144H139.671V34.752H135.062ZM135.062 29.696V25.088H139.671V29.696H135.062ZM135.062 14.656V10.048H139.671V14.656H135.062ZM155.159 40.128H159.766L155.159 44.8V40.128ZM159.766 0V4.608H155.159L159.766 0ZM135.062 40.128H139.671L135.062 44.8V40.128ZM135.062 20.096H139.671L135.062 24.704V20.096ZM140.118 9.664L144.727 5.056V9.664H140.118ZM150.167 9.664L154.775 5.056V9.664H150.167ZM139.671 0V4.608H135.062L139.671 0ZM140.118 14.656V10.048H144.727L140.118 14.656ZM145.111 24.704V20.096H149.719L145.111 24.704ZM145.111 5.056H149.719L145.111 9.664V5.056ZM150.167 14.656V10.048H154.775L150.167 14.656ZM149.719 14.656H145.111L149.719 10.048V14.656Z" fill="white"/>
<path d="M163.938 34.752V30.144H168.546V34.752H163.938ZM163.938 39.744V35.136H168.546V39.744H163.938ZM163.938 40.128H168.546L163.938 44.8V40.128ZM178.978 34.752V30.144H183.65V34.752H178.978ZM178.978 40.128H183.65L178.978 44.8V40.128ZM163.938 19.712V15.04H168.546V19.712H163.938ZM163.938 29.696V25.088H168.546V29.696H163.938ZM178.978 35.136H183.65L178.978 39.744V35.136ZM163.938 14.656V10.048H168.546V14.656H163.938ZM163.938 20.096H168.546L163.938 24.704V20.096ZM168.993 24.704V20.096H173.602V24.704H168.993ZM173.986 20.096H178.594L173.986 24.704V20.096ZM163.938 9.664V5.056H168.546V9.664H163.938ZM178.978 19.712V15.04H183.65V19.712H178.978ZM178.978 29.696V25.088H183.65V29.696H178.978ZM178.978 24.704V20.096H183.65V24.704H178.978ZM168.546 0V4.608H163.938L168.546 0ZM168.993 4.608V0H173.602V4.608H168.993ZM173.986 4.608V0H178.594V4.608H173.986ZM178.978 14.656V10.048H183.65V14.656H178.978ZM178.978 9.664V5.056H183.65V9.664H178.978ZM178.978 0H183.65L178.978 4.608V0Z" fill="white"/>
<path d="M187.75 39.744V35.136H192.358V39.744H187.75ZM187.75 34.752V30.144H192.358V34.752H187.75ZM187.75 40.128H192.358L187.75 44.8V40.128ZM187.75 19.712V15.04H192.358V19.712H187.75ZM187.75 29.696V25.088H192.358V29.696H187.75ZM187.75 14.656V10.048H192.358V14.656H187.75ZM187.75 20.096H192.358L187.75 24.704V20.096ZM192.806 24.704V20.096H197.414V24.704H192.806ZM197.798 24.704V20.096H202.406V24.704H197.798ZM202.79 20.096H207.462L202.79 24.704V20.096ZM192.358 0V4.608H187.75L192.358 0ZM187.75 9.664V5.056H192.358V9.664H187.75ZM202.79 19.712V15.04H207.462V19.712H202.79ZM192.806 4.608V0H197.414V4.608H192.806ZM197.798 4.608V0H202.406V4.608H197.798ZM202.79 9.664V5.056H207.462V9.664H202.79ZM202.79 14.656V10.048H207.462V14.656H202.79ZM202.79 0H207.462L202.79 4.608V0Z" fill="white"/>
</svg>
