<svg width="16" height="9" viewBox="0 0 16 9" fill="none" xmlns="http://www.w3.org/2000/svg">
<path d="M11.89 4.24005H10.79V5.34005H11.89V4.24005Z" fill="white"/>
<path d="M13.0902 0.650024H11.9902V1.75002H13.0902V0.650024Z" fill="white"/>
<path d="M10.6898 3.04004H9.58984V4.14004H10.6898V3.04004Z" fill="white"/>
<path d="M11.89 0.650024H10.79V1.75002H11.89V0.650024Z" fill="white"/>
<path d="M13.0902 5.44H11.9902V6.54H13.0902V5.44Z" fill="white"/>
<path d="M13.0902 4.24005H11.9902V5.34005H13.0902V4.24005Z" fill="white"/>
<path d="M10.6898 0.650024H9.58984V1.75002H10.6898V0.650024Z" fill="white"/>
<path d="M14.2895 4.24005H13.1895V5.34005H14.2895V4.24005Z" fill="white"/>
<path d="M10.6898 1.84003H9.58984V2.95003H10.6898V1.84003Z" fill="white"/>
<path d="M10.6898 4.24005H9.58984V5.34005H10.6898V4.24005Z" fill="white"/>
<path d="M14.2895 0.650024H13.1895V1.75002H14.2895V0.650024Z" fill="white"/>
<path d="M15.4896 4.24005H14.3896V5.34005H15.4896V4.24005Z" fill="white"/>
<path d="M15.4896 0.650024H14.3896V1.75002H15.4896V0.650024Z" fill="white"/>
<path d="M10.6898 6.64001H9.58984V7.74001H10.6898V6.64001Z" fill="white"/>
<path d="M11.89 6.64001H10.79V7.74001H11.89V6.64001Z" fill="white"/>
<path d="M14.2895 6.64001H13.1895V7.74001H14.2895V6.64001Z" fill="white"/>
<path d="M13.0902 6.64001H11.9902V7.74001H13.0902V6.64001Z" fill="white"/>
<path d="M15.4896 6.64001H14.3896V7.74001H15.4896V6.64001Z" fill="white"/>
<path d="M2.3002 1.20001H1.2002V2.30001H2.3002V1.20001Z" fill="white"/>
<path d="M4.69961 1.20001H3.59961V2.30001H4.69961V1.20001Z" fill="white"/>
<path d="M3.50039 1.20001H2.40039V2.30001H3.50039V1.20001Z" fill="white"/>
<path d="M0 7.08999L1.11 5.98999V7.08999H0Z" fill="white"/>
<path d="M1.2002 5.98999H2.3002L1.2002 7.08999V5.98999Z" fill="white"/>
<path d="M1.2002 5.89004L2.3002 4.79004V5.89004H1.2002Z" fill="white"/>
<path d="M3.50039 4.79004H2.40039V5.89004H3.50039V4.79004Z" fill="white"/>
<path d="M3.50039 2.39001H2.40039V3.49001H3.50039V2.39001Z" fill="white"/>
<path d="M3.50039 3.59003H2.40039V4.69003H3.50039V3.59003Z" fill="white"/>
<path d="M4.69961 5.98999H3.59961V7.08999H4.69961V5.98999Z" fill="white"/>
<path d="M7.09023 5.98999H5.99023V7.08999H7.09023V5.98999Z" fill="white"/>
<path d="M7.09023 3.59003H5.99023V4.69003H7.09023V3.59003Z" fill="white"/>
<path d="M7.09023 1.20001H5.99023V2.30001H7.09023V1.20001Z" fill="white"/>
<path d="M7.09023 0H5.99023V1.1H7.09023V0Z" fill="white"/>
<path d="M7.09023 7.19H5.99023V8.29H7.09023V7.19Z" fill="white"/>
<path d="M7.09023 4.78998H5.99023V5.88998H7.09023V4.78998Z" fill="white"/>
<path d="M7.09023 2.39001H5.99023V3.49001H7.09023V2.39001Z" fill="white"/>
</svg>
