<svg width="40" height="40" viewBox="0 0 40 40" fill="none" xmlns="http://www.w3.org/2000/svg">
<path d="M7 32.5556V10.5111C7 8.58205 7 7.6175 7.36786 6.8807C7.69142 6.23258 8.20773 5.70565 8.84278 5.37543C9.56473 5 10.5098 5 12.4 5H28.6C30.4902 5 31.4353 5 32.1573 5.37543C32.7923 5.70565 33.3086 6.23258 33.6321 6.8807C34 7.6175 34 8.58205 34 10.5111V29.1111H10.375C8.51104 29.1111 7 30.6532 7 32.5556ZM7 32.5556C7 34.4579 8.51104 36 10.375 36H34M15.4375 11.8889H25.5625M15.4375 18.7778H25.5625M32.3125 29.1111V36" stroke="#A3A19E" stroke-width="3" stroke-linecap="round" stroke-linejoin="round"/>
</svg>
