<svg width="57" height="58" viewBox="0 0 57 58" fill="none" xmlns="http://www.w3.org/2000/svg">
<g filter="url(#filter0_f_940_35)">
<path d="M28.4717 25.1143L37.5963 27.5592" stroke="#FC78CE" stroke-width="2.83397" stroke-linecap="round"/>
<path d="M27.0039 30.5889L32.4788 32.0557" stroke="#FC78CE" stroke-width="2.83397" stroke-linecap="round"/>
<path d="M44.5966 30.1161C43.455 34.3767 42.8841 36.5069 41.5901 37.8885C40.5684 38.9794 39.246 39.7429 37.7905 40.0822C37.6086 40.1247 37.424 40.1574 37.2347 40.1807C35.5058 40.394 33.3963 39.8287 29.5561 38.7998C25.2955 37.658 23.1652 37.0873 21.7836 35.7933C20.6927 34.7716 19.9292 33.4492 19.5899 31.9935C19.16 30.1499 19.7308 28.0197 20.8724 23.7592L21.8504 20.1093C22.0146 19.4966 22.167 18.9279 22.3114 18.3992C23.1711 15.2515 23.7489 13.5198 24.8568 12.3368C25.8786 11.2459 27.2009 10.4825 28.6566 10.1431C30.5 9.71322 32.6304 10.284 36.891 11.4256C41.1514 12.5673 43.2818 13.1381 44.6635 14.4321C45.7543 15.4538 46.5178 16.7762 46.8571 18.2318C47.1611 19.5355 46.9646 20.9827 46.4198 23.2252" stroke="#FC78CE" stroke-width="2.83397" stroke-linecap="round"/>
<path d="M12.4036 37.6726C13.5452 41.9332 14.116 44.0634 15.4101 45.4451C16.4318 46.536 17.7541 47.2995 19.2098 47.6388C21.0533 48.0686 23.1836 47.4978 27.4442 46.3563C31.7046 45.2146 33.835 44.6438 35.2167 43.3498C36.1479 42.4775 36.8405 41.3863 37.2345 40.1799M22.3112 18.3984C21.6451 18.5706 20.9153 18.7662 20.1093 18.9822C15.8487 20.1238 13.7185 20.6946 12.3368 21.9886C11.2459 23.0104 10.4825 24.3327 10.1431 25.7883C9.83906 27.0921 10.0356 28.5395 10.5805 30.7823" stroke="#FC78CE" stroke-width="2.83397" stroke-linecap="round" stroke-linejoin="round"/>
</g>
<path d="M28.4717 25.1143L37.5963 27.5592" stroke="#FC78CE" stroke-width="2.83397" stroke-linecap="round"/>
<path d="M27.0039 30.5889L32.4788 32.0557" stroke="#FC78CE" stroke-width="2.83397" stroke-linecap="round"/>
<path d="M44.5966 30.1161C43.455 34.3767 42.8841 36.5069 41.5901 37.8885C40.5684 38.9794 39.246 39.7429 37.7905 40.0822C37.6086 40.1247 37.424 40.1574 37.2347 40.1807C35.5058 40.394 33.3963 39.8287 29.5561 38.7998C25.2955 37.658 23.1652 37.0873 21.7836 35.7933C20.6927 34.7716 19.9292 33.4492 19.5899 31.9935C19.16 30.1499 19.7308 28.0197 20.8724 23.7592L21.8504 20.1093C22.0146 19.4966 22.167 18.9279 22.3114 18.3992C23.1711 15.2515 23.7489 13.5198 24.8568 12.3368C25.8786 11.2459 27.2009 10.4825 28.6566 10.1431C30.5 9.71322 32.6304 10.284 36.891 11.4256C41.1514 12.5673 43.2818 13.1381 44.6635 14.4321C45.7543 15.4538 46.5178 16.7762 46.8571 18.2318C47.1611 19.5355 46.9646 20.9827 46.4198 23.2252" stroke="#FC78CE" stroke-width="2.83397" stroke-linecap="round"/>
<path d="M12.4036 37.6726C13.5452 41.9332 14.116 44.0634 15.4101 45.4451C16.4318 46.536 17.7541 47.2995 19.2098 47.6388C21.0533 48.0686 23.1836 47.4978 27.4442 46.3563C31.7046 45.2146 33.835 44.6438 35.2167 43.3498C36.1479 42.4775 36.8405 41.3863 37.2345 40.1799M22.3112 18.3984C21.6451 18.5706 20.9153 18.7662 20.1093 18.9822C15.8487 20.1238 13.7185 20.6946 12.3368 21.9886C11.2459 23.0104 10.4825 24.3327 10.1431 25.7883C9.83906 27.0921 10.0356 28.5395 10.5805 30.7823" stroke="#FC78CE" stroke-width="2.83397" stroke-linecap="round" stroke-linejoin="round"/>
<defs>
<filter id="filter0_f_940_35" x="0.583496" y="0.583008" width="55.833" height="56.6162" filterUnits="userSpaceOnUse" color-interpolation-filters="sRGB">
<feFlood flood-opacity="0" result="BackgroundImageFix"/>
<feBlend mode="normal" in="SourceGraphic" in2="BackgroundImageFix" result="shape"/>
<feGaussianBlur stdDeviation="4" result="effect1_foregroundBlur_940_35"/>
</filter>
</defs>
</svg>
