<svg width="41" height="43" viewBox="0 0 41 43" fill="none" xmlns="http://www.w3.org/2000/svg">
<path d="M10.5 31.5V21.5M18.5 31.5V27.5M38.5 27.5L32.84 21.84M22.5 17.5C22.5 18.6867 22.8519 19.8467 23.5112 20.8334C24.1705 21.8201 25.1075 22.5892 26.2039 23.0433C27.3003 23.4974 28.5067 23.6162 29.6705 23.3847C30.8344 23.1532 31.9035 22.5818 32.7426 21.7426C33.5818 20.9035 34.1532 19.8344 34.3847 18.6705C34.6162 17.5067 34.4974 16.3003 34.0433 15.2039C33.5892 14.1075 32.8201 13.1705 31.8334 12.5112C30.8467 11.8519 29.6867 11.5 28.5 11.5C26.9087 11.5 25.3826 12.1321 24.2574 13.2574C23.1321 14.3826 22.5 15.9087 22.5 17.5Z" stroke="#EFEAE4" stroke-width="5" stroke-linecap="round" stroke-linejoin="round"/>
<path d="M30.5 31.5V37.5C30.5 38.0304 30.2893 38.5391 29.9142 38.9142C29.5391 39.2893 29.0304 39.5 28.5 39.5H4.5C3.96957 39.5 3.46086 39.2893 3.08579 38.9142C2.71071 38.5391 2.5 38.0304 2.5 37.5V5.5C2.5 4.96957 2.71071 4.46086 3.08579 4.08579C3.46086 3.71071 3.96957 3.5 4.5 3.5H28.5" stroke="#EFEAE4" stroke-width="5" stroke-linecap="round" stroke-linejoin="round"/>
</svg>
