<svg width="54" height="54" viewBox="0 0 54 54" fill="none" xmlns="http://www.w3.org/2000/svg">
<g filter="url(#filter0_f_940_56)">
<path d="M17.3141 27.8186C17.0664 27.5709 16.6661 27.5709 16.4185 27.8186C14.5407 29.6958 14.5027 31.7593 16.2918 33.6455L12.2916 37.6451L11.6336 36.9921C11.1402 36.4981 10.3371 36.4968 9.84499 36.9889L8.37051 38.464C7.8765 38.9573 7.8765 39.7611 8.37051 40.2551L13.7439 45.6291C13.9909 45.8761 14.3159 45.9996 14.6401 45.9996C14.9644 45.9996 15.2893 45.8761 15.5357 45.6291L17.0102 44.1553C17.2686 43.8968 17.3934 43.5358 17.3534 43.1647C17.3167 42.8246 17.1489 42.4971 16.8683 42.2166L16.3553 41.7061L20.3512 37.7109C22.2632 39.5312 24.2755 39.4868 26.1812 37.5811C26.4288 37.3334 26.4288 36.9332 26.1812 36.6856L17.3141 27.8186ZM21.1111 36.6824L20.7919 36.3676C20.5443 36.1238 20.1465 36.125 19.8995 36.3708L15.4584 40.8125L14.4602 39.8187C14.2126 39.5717 13.8123 39.573 13.564 39.8207C13.317 40.0683 13.3182 40.4692 13.5659 40.7162L15.9733 43.1135C16.067 43.2066 16.0911 43.2794 16.1113 43.263L14.6395 44.7336L9.26607 39.3596L10.7399 37.8896L11.8476 38.9891C12.0946 39.2342 12.4949 39.2336 12.7413 38.9872L17.1818 34.5461L18.3186 35.6855C18.5663 35.9332 18.9666 35.9332 19.2142 35.6868C19.4624 35.4398 19.4624 35.0382 19.2154 34.7905L17.3141 32.8854C16.6022 32.1729 16.2399 31.4737 16.238 30.8055C16.2368 30.2823 16.4559 29.7396 16.891 29.1873L24.8143 37.1099C23.5571 38.1099 22.3968 37.9694 21.1111 36.6824Z" fill="#FC78CE"/>
<path d="M29.348 21.1136L39.9845 10.4771L43.3818 9.72208L30.6691 22.4348C30.4214 22.6824 30.4214 23.0827 30.6691 23.3303C30.7926 23.4538 30.9548 23.5159 31.1169 23.5159C31.2791 23.5159 31.4412 23.4538 31.5647 23.3303L44.2768 10.6183L43.5225 14.015L32.8859 24.6515C32.6382 24.8992 32.6382 25.2995 32.8859 25.5471C33.0094 25.6706 33.1716 25.7326 33.3337 25.7326C33.4958 25.7326 33.6579 25.6706 33.7814 25.5471L44.5485 14.7801C44.634 14.6953 44.6929 14.5876 44.7195 14.4698L45.9862 8.7696C45.9945 8.73093 45.9951 8.69167 45.9964 8.65307C45.9971 8.64357 45.9996 8.63407 45.9996 8.62457C45.9983 8.55235 45.9838 8.48273 45.9591 8.41556C45.9533 8.40035 45.9464 8.3864 45.9394 8.37185C45.9084 8.30342 45.8697 8.23884 45.8152 8.18437C45.7607 8.12989 45.6962 8.09129 45.6284 8.06019C45.6132 8.05322 45.5992 8.04624 45.5841 8.04052C45.517 8.01648 45.4473 8.00126 45.3758 8C45.365 8 45.3555 8.00252 45.3447 8.00319C45.3061 8.00445 45.2681 8.00572 45.2301 8.01395L39.5299 9.28069C39.4128 9.30666 39.3051 9.36552 39.2196 9.45102L28.4524 20.2181C28.2047 20.4658 28.2047 20.866 28.4524 21.1136C28.7 21.3612 29.1003 21.3612 29.348 21.1136Z" fill="#FC78CE"/>
<path d="M45.6296 38.464L44.1558 36.9895C43.71 36.543 42.8998 36.448 42.2165 37.132L41.7073 37.6438L37.7114 33.6486C39.531 31.7371 39.488 29.7249 37.5816 27.8186C37.3339 27.5709 36.9336 27.5709 36.686 27.8186L27.8191 36.6855C27.5714 36.9332 27.5714 37.3334 27.8191 37.581C29.6969 39.4589 31.761 39.4969 33.6459 37.7077L37.6462 41.708L36.9927 42.3661C36.4986 42.8601 36.4974 43.6626 36.9901 44.1547L38.4646 45.6291C38.7109 45.8761 39.0359 45.9997 39.3602 45.9997C39.6844 45.9997 40.0094 45.8761 40.2564 45.6291L45.6298 40.2557C46.1236 39.7617 46.1236 38.9574 45.6296 38.464ZM39.36 44.7336L37.89 43.2598L38.9895 42.152C39.2346 41.9043 39.234 41.5047 38.9876 41.2583L34.5465 36.8172L35.6859 35.681C35.9342 35.434 35.9342 35.033 35.6872 34.7847C35.4396 34.5377 35.0386 34.5371 34.7916 34.7841L32.8858 36.6854C32.1733 37.3973 31.4735 37.7596 30.8059 37.7615H30.8002C30.279 37.7615 29.7381 37.5423 29.1877 37.1079L37.1103 29.1859C38.111 30.4418 37.9685 31.6021 36.6821 32.8885L36.3679 33.2077C36.1241 33.456 36.1254 33.8544 36.3717 34.1001L40.8128 38.5412L39.8185 39.5394C39.5721 39.787 39.5734 40.1886 39.8204 40.4349C40.0693 40.6826 40.4696 40.6813 40.7166 40.433L43.1132 38.0262C43.207 37.9331 43.2779 37.9084 43.2633 37.8882L44.7339 39.36L39.36 44.7336Z" fill="#FC78CE"/>
<path d="M28.9003 33.9663C29.0625 33.9663 29.2246 33.9042 29.3481 33.7807C29.5957 33.5331 29.5957 33.1328 29.3481 32.8852L10.478 14.015L9.72365 10.6183L30.6693 31.564C30.7928 31.6875 30.955 31.7495 31.1171 31.7495C31.2793 31.7495 31.4414 31.6875 31.5649 31.564C31.8126 31.3163 31.8126 30.916 31.5649 30.6684L10.6186 9.72208L14.0159 10.4771L32.8861 29.3472C33.1338 29.5949 33.534 29.5949 33.7816 29.3472C34.0292 29.0995 34.0292 28.6993 33.7816 28.4517L14.781 9.45102C14.6955 9.36552 14.5878 9.30659 14.4707 9.28069L8.7705 8.01395C8.7325 8.00572 8.6945 8.00445 8.65583 8.00319C8.64507 8.00252 8.63557 8 8.62481 8C8.55259 8.00126 8.48356 8.01648 8.41639 8.04052C8.40125 8.04624 8.3873 8.05322 8.37275 8.06019C8.30432 8.09062 8.23975 8.12989 8.18527 8.18437C8.13079 8.23877 8.09153 8.30342 8.0611 8.37177C8.05412 8.3864 8.04714 8.40027 8.0415 8.41549C8.01679 8.48266 8.00224 8.55228 8.00098 8.6245C8.00098 8.634 8.0035 8.6435 8.00417 8.653C8.00543 8.69167 8.0061 8.73093 8.01434 8.76953L9.28107 14.4697C9.30764 14.5875 9.36657 14.6952 9.45208 14.78L21.6714 26.9994L20.2191 28.4517C19.9714 28.6993 19.9714 29.0996 20.2191 29.3472C20.3426 29.4707 20.5048 29.5328 20.6669 29.5328C20.829 29.5328 20.9912 29.4707 21.1147 29.3472L22.567 27.8949L23.8881 29.2161L22.4358 30.6684C22.1881 30.916 22.1881 31.3164 22.4358 31.564C22.5593 31.6875 22.7215 31.7495 22.8836 31.7495C23.0458 31.7495 23.2079 31.6875 23.3314 31.564L24.7837 30.1117L26.1049 31.4329L24.6526 32.8852C24.4049 33.1329 24.4049 33.5331 24.6526 33.7807C24.7761 33.9042 24.9383 33.9663 25.1004 33.9663C25.2625 33.9663 25.4246 33.9042 25.5481 33.7807L27.0004 32.3284L28.4527 33.7807C28.5761 33.9042 28.7382 33.9663 28.9003 33.9663Z" fill="#FC78CE"/>
</g>
<path d="M17.3141 27.8186C17.0664 27.5709 16.6661 27.5709 16.4185 27.8186C14.5407 29.6958 14.5027 31.7593 16.2918 33.6455L12.2916 37.6451L11.6336 36.9921C11.1402 36.4981 10.3371 36.4968 9.84499 36.9889L8.37051 38.464C7.8765 38.9573 7.8765 39.7611 8.37051 40.2551L13.7439 45.6291C13.9909 45.8761 14.3159 45.9996 14.6401 45.9996C14.9644 45.9996 15.2893 45.8761 15.5357 45.6291L17.0102 44.1553C17.2686 43.8968 17.3934 43.5358 17.3534 43.1647C17.3167 42.8246 17.1489 42.4971 16.8683 42.2166L16.3553 41.7061L20.3512 37.7109C22.2632 39.5312 24.2755 39.4868 26.1812 37.5811C26.4288 37.3334 26.4288 36.9332 26.1812 36.6856L17.3141 27.8186ZM21.1111 36.6824L20.7919 36.3676C20.5443 36.1238 20.1465 36.125 19.8995 36.3708L15.4584 40.8125L14.4602 39.8187C14.2126 39.5717 13.8123 39.573 13.564 39.8207C13.317 40.0683 13.3182 40.4692 13.5659 40.7162L15.9733 43.1135C16.067 43.2066 16.0911 43.2794 16.1113 43.263L14.6395 44.7336L9.26607 39.3596L10.7399 37.8896L11.8476 38.9891C12.0946 39.2342 12.4949 39.2336 12.7413 38.9872L17.1818 34.5461L18.3186 35.6855C18.5663 35.9332 18.9666 35.9332 19.2142 35.6868C19.4624 35.4398 19.4624 35.0382 19.2154 34.7905L17.3141 32.8854C16.6022 32.1729 16.2399 31.4737 16.238 30.8055C16.2368 30.2823 16.4559 29.7396 16.891 29.1873L24.8143 37.1099C23.5571 38.1099 22.3968 37.9694 21.1111 36.6824Z" fill="#FC78CE"/>
<path d="M29.348 21.1136L39.9845 10.4771L43.3818 9.72208L30.6691 22.4348C30.4214 22.6824 30.4214 23.0827 30.6691 23.3303C30.7926 23.4538 30.9548 23.5159 31.1169 23.5159C31.2791 23.5159 31.4412 23.4538 31.5647 23.3303L44.2768 10.6183L43.5225 14.015L32.8859 24.6515C32.6382 24.8992 32.6382 25.2995 32.8859 25.5471C33.0094 25.6706 33.1716 25.7326 33.3337 25.7326C33.4958 25.7326 33.6579 25.6706 33.7814 25.5471L44.5485 14.7801C44.634 14.6953 44.6929 14.5876 44.7195 14.4698L45.9862 8.7696C45.9945 8.73093 45.9951 8.69167 45.9964 8.65307C45.9971 8.64357 45.9996 8.63407 45.9996 8.62457C45.9983 8.55235 45.9838 8.48273 45.9591 8.41556C45.9533 8.40035 45.9464 8.3864 45.9394 8.37185C45.9084 8.30342 45.8697 8.23884 45.8152 8.18437C45.7607 8.12989 45.6962 8.09129 45.6284 8.06019C45.6132 8.05322 45.5992 8.04624 45.5841 8.04052C45.517 8.01648 45.4473 8.00126 45.3758 8C45.365 8 45.3555 8.00252 45.3447 8.00319C45.3061 8.00445 45.2681 8.00572 45.2301 8.01395L39.5299 9.28069C39.4128 9.30666 39.3051 9.36552 39.2196 9.45102L28.4524 20.2181C28.2047 20.4658 28.2047 20.866 28.4524 21.1136C28.7 21.3612 29.1003 21.3612 29.348 21.1136Z" fill="#FC78CE"/>
<path d="M45.6296 38.464L44.1558 36.9895C43.71 36.543 42.8998 36.448 42.2165 37.132L41.7073 37.6438L37.7114 33.6486C39.531 31.7371 39.488 29.7249 37.5816 27.8186C37.3339 27.5709 36.9336 27.5709 36.686 27.8186L27.8191 36.6855C27.5714 36.9332 27.5714 37.3334 27.8191 37.581C29.6969 39.4589 31.761 39.4969 33.6459 37.7077L37.6462 41.708L36.9927 42.3661C36.4986 42.8601 36.4974 43.6626 36.9901 44.1547L38.4646 45.6291C38.7109 45.8761 39.0359 45.9997 39.3602 45.9997C39.6844 45.9997 40.0094 45.8761 40.2564 45.6291L45.6298 40.2557C46.1236 39.7617 46.1236 38.9574 45.6296 38.464ZM39.36 44.7336L37.89 43.2598L38.9895 42.152C39.2346 41.9043 39.234 41.5047 38.9876 41.2583L34.5465 36.8172L35.6859 35.681C35.9342 35.434 35.9342 35.033 35.6872 34.7847C35.4396 34.5377 35.0386 34.5371 34.7916 34.7841L32.8858 36.6854C32.1733 37.3973 31.4735 37.7596 30.8059 37.7615H30.8002C30.279 37.7615 29.7381 37.5423 29.1877 37.1079L37.1103 29.1859C38.111 30.4418 37.9685 31.6021 36.6821 32.8885L36.3679 33.2077C36.1241 33.456 36.1254 33.8544 36.3717 34.1001L40.8128 38.5412L39.8185 39.5394C39.5721 39.787 39.5734 40.1886 39.8204 40.4349C40.0693 40.6826 40.4696 40.6813 40.7166 40.433L43.1132 38.0262C43.207 37.9331 43.2779 37.9084 43.2633 37.8882L44.7339 39.36L39.36 44.7336Z" fill="#FC78CE"/>
<path d="M28.9003 33.9663C29.0625 33.9663 29.2246 33.9042 29.3481 33.7807C29.5957 33.5331 29.5957 33.1328 29.3481 32.8852L10.478 14.015L9.72365 10.6183L30.6693 31.564C30.7928 31.6875 30.955 31.7495 31.1171 31.7495C31.2793 31.7495 31.4414 31.6875 31.5649 31.564C31.8126 31.3163 31.8126 30.916 31.5649 30.6684L10.6186 9.72208L14.0159 10.4771L32.8861 29.3472C33.1338 29.5949 33.534 29.5949 33.7816 29.3472C34.0292 29.0995 34.0292 28.6993 33.7816 28.4517L14.781 9.45102C14.6955 9.36552 14.5878 9.30659 14.4707 9.28069L8.7705 8.01395C8.7325 8.00572 8.6945 8.00445 8.65583 8.00319C8.64507 8.00252 8.63557 8 8.62481 8C8.55259 8.00126 8.48356 8.01648 8.41639 8.04052C8.40125 8.04624 8.3873 8.05322 8.37275 8.06019C8.30432 8.09062 8.23975 8.12989 8.18527 8.18437C8.13079 8.23877 8.09153 8.30342 8.0611 8.37177C8.05412 8.3864 8.04714 8.40027 8.0415 8.41549C8.01679 8.48266 8.00224 8.55228 8.00098 8.6245C8.00098 8.634 8.0035 8.6435 8.00417 8.653C8.00543 8.69167 8.0061 8.73093 8.01434 8.76953L9.28107 14.4697C9.30764 14.5875 9.36657 14.6952 9.45208 14.78L21.6714 26.9994L20.2191 28.4517C19.9714 28.6993 19.9714 29.0996 20.2191 29.3472C20.3426 29.4707 20.5048 29.5328 20.6669 29.5328C20.829 29.5328 20.9912 29.4707 21.1147 29.3472L22.567 27.8949L23.8881 29.2161L22.4358 30.6684C22.1881 30.916 22.1881 31.3164 22.4358 31.564C22.5593 31.6875 22.7215 31.7495 22.8836 31.7495C23.0458 31.7495 23.2079 31.6875 23.3314 31.564L24.7837 30.1117L26.1049 31.4329L24.6526 32.8852C24.4049 33.1329 24.4049 33.5331 24.6526 33.7807C24.7761 33.9042 24.9383 33.9663 25.1004 33.9663C25.2625 33.9663 25.4246 33.9042 25.5481 33.7807L27.0004 32.3284L28.4527 33.7807C28.5761 33.9042 28.7382 33.9663 28.9003 33.9663Z" fill="#FC78CE"/>
<defs>
<filter id="filter0_f_940_56" x="0" y="0" width="54" height="54" filterUnits="userSpaceOnUse" color-interpolation-filters="sRGB">
<feFlood flood-opacity="0" result="BackgroundImageFix"/>
<feBlend mode="normal" in="SourceGraphic" in2="BackgroundImageFix" result="shape"/>
<feGaussianBlur stdDeviation="4" result="effect1_foregroundBlur_940_56"/>
</filter>
</defs>
</svg>
