<svg width="351" height="45" viewBox="0 0 351 45" fill="none" xmlns="http://www.w3.org/2000/svg">
<path d="M0 39.744V35.136H4.608V39.744H0ZM0 34.752V30.144H4.608V34.752H0ZM0 40.128H4.608L0 44.8V40.128ZM5.056 44.8V40.128H9.664V44.8H5.056ZM10.048 44.8V40.128H14.656V44.8H10.048ZM15.04 40.128H19.712L15.04 44.8V40.128ZM0 19.712V15.04H4.608V19.712H0ZM0 29.696V25.088H4.608V29.696H0ZM0 14.656V10.048H4.608V14.656H0ZM0 20.096H4.608L0 24.704V20.096ZM5.056 24.704V20.096H9.664V24.704H5.056ZM10.048 20.096H14.656L10.048 24.704V20.096ZM4.608 0V4.608H0L4.608 0ZM0 9.664V5.056H4.608V9.664H0ZM5.056 4.608V0H9.664V4.608H5.056ZM10.048 4.608V0H14.656V4.608H10.048ZM15.04 0H19.712L15.04 4.608V0Z" fill="white"/>
<path d="M23.8125 34.752V30.144H28.4205V34.752H23.8125ZM23.8125 35.136H28.4205L23.8125 39.744V35.136ZM28.8685 44.8V40.128H33.4765V44.8H28.8685ZM33.8605 40.128H38.4685L33.8605 44.8V40.128ZM23.8125 29.696V25.088H28.4205V29.696H23.8125ZM38.8525 34.752V30.144H43.4605V34.752H38.8525ZM38.8525 35.136H43.4605L38.8525 39.744V35.136ZM23.8125 19.712V15.04H28.4205V19.712H23.8125ZM23.8125 14.656V10.048H28.4205V14.656H23.8125ZM23.8125 20.096H28.4205L23.8125 24.704V20.096ZM38.8525 19.712V15.04H43.4605V19.712H38.8525ZM38.8525 24.704V20.096H43.4605V24.704H38.8525ZM38.8525 29.696V25.088H43.4605V29.696H38.8525ZM28.4205 0V4.608H23.8125L28.4205 0ZM23.8125 9.664V5.056H28.4205V9.664H23.8125ZM43.4605 0V4.608H38.8525L43.4605 0ZM38.8525 9.664V5.056H43.4605V9.664H38.8525ZM38.8525 14.656V10.048H43.4605V14.656H38.8525Z" fill="white"/>
<path d="M47.625 39.744V35.136H52.233V39.744H47.625ZM47.625 34.752V30.144H52.233V34.752H47.625ZM47.625 40.128H52.233L47.625 44.8V40.128ZM52.681 44.8V40.128H57.289V44.8H52.681ZM57.673 44.8V40.128H62.281V44.8H57.673ZM62.665 40.128H67.337L62.665 44.8V40.128ZM47.625 19.712V15.04H52.233V19.712H47.625ZM47.625 29.696V25.088H52.233V29.696H47.625ZM47.625 14.656V10.048H52.233V14.656H47.625ZM47.625 20.096H52.233L47.625 24.704V20.096ZM52.681 24.704V20.096H57.289V24.704H52.681ZM57.673 20.096H62.281L57.673 24.704V20.096ZM52.233 0V4.608H47.625L52.233 0ZM47.625 9.664V5.056H52.233V9.664H47.625ZM52.681 4.608V0H57.289V4.608H52.681ZM57.673 4.608V0H62.281V4.608H57.673ZM62.665 0H67.337L62.665 4.608V0Z" fill="white"/>
<path d="M71.4375 39.744V35.136H76.0455V39.744H71.4375ZM71.4375 34.752V30.144H76.0455V34.752H71.4375ZM71.4375 40.128H76.0455L71.4375 44.8V40.128ZM86.4775 39.744V35.136H91.1495V39.744H86.4775ZM86.4775 40.128H91.1495L86.4775 44.8V40.128ZM71.4375 19.712V15.04H76.0455V19.712H71.4375ZM71.4375 29.696V25.088H76.0455V29.696H71.4375ZM71.4375 20.096H76.0455L71.4375 24.704V20.096ZM86.4775 19.712V15.04H91.1495V19.712H86.4775ZM86.4775 24.704V20.096H91.1495V24.704H86.4775ZM86.4775 34.752V30.144H91.1495V34.752H86.4775ZM86.4775 29.696V25.088H91.1495V29.696H86.4775ZM76.0455 0V4.608H71.4375L76.0455 0ZM71.4375 9.664V5.056H76.0455V9.664H71.4375ZM71.4375 14.656V10.048H76.0455V14.656H71.4375ZM76.4935 4.608V0H81.1015V4.608H76.4935ZM81.4855 4.608V0H86.0935V4.608H81.4855ZM86.4775 9.664V5.056H91.1495V9.664H86.4775ZM86.4775 14.656V10.048H91.1495V14.656H86.4775ZM86.4775 0H91.1495L86.4775 4.608V0Z" fill="white"/>
<path d="M105.298 34.752V30.144H109.906V34.752H105.298ZM105.298 39.744V35.136H109.906V39.744H105.298ZM105.298 40.128H109.906L105.298 44.8V40.128ZM105.298 19.712V15.04H109.906V19.712H105.298ZM109.906 25.088V29.696H105.298V25.088H109.906ZM100.306 4.608V0H104.914V4.608H100.306ZM109.906 5.056V9.664H105.298V5.056H109.906ZM105.298 14.656V10.048H109.906V14.656H105.298ZM105.298 24.704V20.096H109.906L105.298 24.704ZM99.858 0V4.608H95.25L99.858 0ZM105.298 4.608V0H109.906V4.608H105.298ZM110.29 4.608V0H114.962V4.608H110.29ZM115.346 0H119.954L115.346 4.608V0Z" fill="white"/>
<path d="M140.062 44.8L144.671 40.128V44.8H140.062ZM145.118 44.8V40.128H149.727V44.8H145.118ZM150.111 44.8V40.128H154.719V44.8H150.111ZM155.103 39.744V35.136H159.775V39.744H155.103ZM155.103 40.128H159.775L155.103 44.8V40.128ZM140.062 19.712V15.04H144.671V19.712H140.062ZM140.062 14.656V10.048H144.671V14.656H140.062ZM140.062 20.096H144.671L140.062 24.704V20.096ZM145.118 24.704V20.096H149.727V24.704H145.118ZM150.111 24.704V20.096H154.719V24.704H150.111ZM155.103 24.704V20.096H159.775V24.704H155.103ZM155.103 34.752V30.144H159.775V34.752H155.103ZM155.103 29.696V25.088H159.775V29.696H155.103ZM144.671 0V4.608H140.062L144.671 0ZM140.062 9.664V5.056H144.671V9.664H140.062ZM145.118 4.608V0H149.727V4.608H145.118ZM150.111 4.608V0H154.719V4.608H150.111ZM155.103 0H159.775L155.103 4.608V0Z" fill="white"/>
<path d="M163.875 39.744V35.136H168.483V39.744H163.875ZM163.875 34.752V30.144H168.483V34.752H163.875ZM163.875 40.128H168.483L163.875 44.8V40.128ZM168.931 44.8V40.128H173.539V44.8H168.931ZM173.923 44.8V40.128H178.531V44.8H173.923ZM178.915 40.128H183.587L178.915 44.8V40.128ZM163.875 19.712V15.04H168.483V19.712H163.875ZM163.875 29.696V25.088H168.483V29.696H163.875ZM163.875 9.664V5.056H168.483V9.664H163.875ZM163.875 14.656V10.048H168.483V14.656H163.875ZM163.875 20.096H168.483L163.875 24.704V20.096ZM168.483 0V4.608H163.875L168.483 0ZM168.931 4.608V0H173.539V4.608H168.931ZM173.923 4.608V0H178.531V4.608H173.923ZM178.915 0H183.587L178.915 4.608V0Z" fill="white"/>
<path d="M202.728 19.712V15.04H207.4V19.712H202.728ZM202.728 39.744V35.136H207.4V39.744H202.728ZM202.728 20.096H207.4V24.704H202.728V20.096ZM202.728 9.664V5.056H207.4V9.664H202.728ZM202.728 34.752V30.144H207.4V34.752H202.728ZM202.728 29.696V25.088H207.4V29.696H202.728ZM187.688 19.712V15.04H192.296V19.712H187.688ZM202.728 14.656V10.048H207.4V14.656H202.728ZM187.688 39.744V35.136H192.296V39.744H187.688ZM192.743 24.704V20.096H197.352V24.704H192.743ZM187.688 34.752V30.144H192.296V34.752H187.688ZM187.688 9.664V5.056H192.296V9.664H187.688ZM187.688 29.696V25.088H192.296V29.696H187.688ZM187.688 14.656V10.048H192.296V14.656H187.688ZM202.728 40.128H207.4L202.728 44.8V40.128ZM207.4 0V4.608H202.728L207.4 0ZM187.688 40.128H192.296L187.688 44.8V40.128ZM187.688 20.096H192.296L187.688 24.704V20.096ZM192.296 0V4.608H187.688L192.296 0ZM197.736 20.096H202.344L197.736 24.704V20.096Z" fill="white"/>
<path d="M211.5 39.744V35.136H216.108V39.744H211.5ZM211.5 34.752V30.144H216.108V34.752H211.5ZM211.5 40.128H216.108L211.5 44.8V40.128ZM216.556 44.8V40.128H221.164V44.8H216.556ZM221.548 44.8V40.128H226.156V44.8H221.548ZM226.54 40.128H231.212L226.54 44.8V40.128ZM211.5 19.712V15.04H216.108V19.712H211.5ZM211.5 29.696V25.088H216.108V29.696H211.5ZM211.5 14.656V10.048H216.108V14.656H211.5ZM211.5 20.096H216.108L211.5 24.704V20.096ZM216.556 24.704V20.096H221.164V24.704H216.556ZM221.548 20.096H226.156L221.548 24.704V20.096ZM216.108 0V4.608H211.5L216.108 0ZM211.5 9.664V5.056H216.108V9.664H211.5ZM216.556 4.608V0H221.164V4.608H216.556ZM221.548 4.608V0H226.156V4.608H221.548ZM226.54 0H231.212L226.54 4.608V0Z" fill="white"/>
<path d="M235.312 39.744V35.136H239.921V39.744H235.312ZM235.312 34.752V30.144H239.921V34.752H235.312ZM235.312 40.128H239.921L235.312 44.8V40.128ZM240.368 44.8V40.128H244.977V44.8H240.368ZM245.361 44.8V40.128H249.969V44.8H245.361ZM250.353 39.744V35.136H255.025V39.744H250.353ZM250.353 40.128H255.025L250.353 44.8V40.128ZM235.312 19.712V15.04H239.921V19.712H235.312ZM235.312 29.696V25.088H239.921V29.696H235.312ZM235.312 20.096H239.921L235.312 24.704V20.096ZM250.353 19.712V15.04H255.025V19.712H250.353ZM250.353 24.704V20.096H255.025V24.704H250.353ZM250.353 34.752V30.144H255.025V34.752H250.353ZM250.353 29.696V25.088H255.025V29.696H250.353ZM239.921 0V4.608H235.312L239.921 0ZM235.312 9.664V5.056H239.921V9.664H235.312ZM235.312 14.656V10.048H239.921V14.656H235.312ZM240.368 4.608V0H244.977V4.608H240.368ZM245.361 4.608V0H249.969V4.608H245.361ZM250.353 9.664V5.056H255.025V9.664H250.353ZM250.353 14.656V10.048H255.025V14.656H250.353ZM250.353 0H255.025L250.353 4.608V0Z" fill="white"/>
<path d="M259.125 39.744V35.136H263.733V39.744H259.125ZM259.125 34.752V30.144H263.733V34.752H259.125ZM259.125 40.128H263.733L259.125 44.8V40.128ZM264.181 44.8V40.128H268.789V44.8H264.181ZM269.173 44.8V40.128H273.781V44.8H269.173ZM274.165 39.744V35.136H278.773V39.744H274.165ZM274.165 40.128H278.773L274.165 44.8V40.128ZM259.125 19.712V15.04H263.733V19.712H259.125ZM259.125 29.696V25.088H263.733V29.696H259.125ZM259.125 20.096H263.733L259.125 24.704V20.096ZM274.165 19.712V15.04H278.773V19.712H274.165ZM274.165 24.704V20.096H278.773V24.704H274.165ZM274.165 34.752V30.144H278.773V34.752H274.165ZM274.165 29.696V25.088H278.773V29.696H274.165ZM263.733 0V4.608H259.125L263.733 0ZM259.125 9.664V5.056H263.733V9.664H259.125ZM259.125 14.656V10.048H263.733V14.656H259.125ZM278.773 0V4.608H274.165L278.773 0ZM274.165 9.664V5.056H278.773V9.664H274.165ZM274.165 14.656V10.048H278.773V14.656H274.165Z" fill="white"/>
<path d="M282.938 39.744V35.136H287.546V39.744H282.938ZM282.938 34.752V30.144H287.546V34.752H282.938ZM282.938 40.128H287.546L282.938 44.8V40.128ZM287.993 44.8V40.128H292.602V44.8H287.993ZM292.986 44.8V40.128H297.594V44.8H292.986ZM298.042 40.128H302.65L298.042 44.8V40.128ZM282.938 19.712V15.04H287.546V19.712H282.938ZM282.938 29.696V25.088H287.546V29.696H282.938ZM282.938 9.664V5.056H287.546V9.664H282.938ZM282.938 14.656V10.048H287.546V14.656H282.938ZM282.938 20.096H287.546L282.938 24.704V20.096ZM287.546 0V4.608H282.938L287.546 0Z" fill="white"/>
<path d="M306.75 39.744V35.136H311.358V39.744H306.75ZM306.75 34.752V30.144H311.358V34.752H306.75ZM306.75 40.128H311.358L306.75 44.8V40.128ZM311.806 44.8V40.128H316.414V44.8H311.806ZM316.798 44.8V40.128H321.406V44.8H316.798ZM321.79 40.128H326.462L321.79 44.8V40.128ZM306.75 19.712V15.04H311.358V19.712H306.75ZM306.75 29.696V25.088H311.358V29.696H306.75ZM306.75 14.656V10.048H311.358V14.656H306.75ZM306.75 20.096H311.358L306.75 24.704V20.096ZM311.806 24.704V20.096H316.414V24.704H311.806ZM316.798 20.096H321.406L316.798 24.704V20.096ZM311.358 0V4.608H306.75L311.358 0ZM306.75 9.664V5.056H311.358V9.664H306.75ZM311.806 4.608V0H316.414V4.608H311.806ZM316.798 4.608V0H321.406V4.608H316.798ZM321.79 0H326.462L321.79 4.608V0Z" fill="white"/>
<path d="M330.562 44.8L335.171 40.128V44.8H330.562ZM335.618 44.8V40.128H340.227V44.8H335.618ZM340.611 44.8V40.128H345.219V44.8H340.611ZM345.603 39.744V35.136H350.275V39.744H345.603ZM345.603 40.128H350.275L345.603 44.8V40.128ZM330.562 19.712V15.04H335.171V19.712H330.562ZM330.562 14.656V10.048H335.171V14.656H330.562ZM330.562 20.096H335.171L330.562 24.704V20.096ZM335.618 24.704V20.096H340.227V24.704H335.618ZM340.611 24.704V20.096H345.219V24.704H340.611ZM345.603 24.704V20.096H350.275V24.704H345.603ZM345.603 34.752V30.144H350.275V34.752H345.603ZM345.603 29.696V25.088H350.275V29.696H345.603ZM335.171 0V4.608H330.562L335.171 0ZM330.562 9.664V5.056H335.171V9.664H330.562ZM335.618 4.608V0H340.227V4.608H335.618ZM340.611 4.608V0H345.219V4.608H340.611ZM345.603 0H350.275L345.603 4.608V0Z" fill="white"/>
</svg>
