<svg width="37" height="37" viewBox="0 0 37 37" fill="none" xmlns="http://www.w3.org/2000/svg">
<path d="M36.3127 18.6414L31.7833 13.4031C31.5107 13.0999 31.1397 12.9028 30.7358 12.8467C30.332 12.7906 29.9213 12.8791 29.5764 13.0966C29.37 13.2168 29.1938 13.3828 29.0615 13.5817C28.9291 13.7806 28.8441 14.0072 28.813 14.2441C28.7819 14.481 28.8055 14.7218 28.8819 14.9482C28.9584 15.1745 29.0857 15.3803 29.2541 15.5498L31.2524 17.8221L20.4118 17.1267L21.1071 6.28608L23.1055 8.55832C23.252 8.74699 23.4399 8.89956 23.6546 9.00432C23.8693 9.10908 24.1052 9.16323 24.3441 9.16263C24.5831 9.16203 24.8187 9.10669 25.0329 9.00085C25.247 8.89502 25.4341 8.74151 25.5798 8.5521C25.8395 8.23781 25.9798 7.84181 25.9757 7.43411C25.9717 7.0264 25.8236 6.63325 25.5577 6.32416L20.941 1.16266C20.805 0.993969 20.6355 0.855376 20.4431 0.755667C20.2508 0.655958 20.0398 0.597309 19.8236 0.583441C19.6074 0.569574 19.3907 0.600789 19.1872 0.675107C18.9837 0.749426 18.7978 0.865225 18.6414 1.01516L13.4031 5.54454C13.0999 5.81713 12.9028 6.18815 12.8467 6.592C12.7906 6.99584 12.8791 7.40652 13.0966 7.75141C13.2168 7.95787 13.3828 8.13403 13.5817 8.26636C13.7806 8.39869 14.0072 8.48368 14.2441 8.5148C14.481 8.54592 14.7218 8.52234 14.9482 8.44588C15.1745 8.36941 15.3804 8.24209 15.5498 8.0737L17.8221 6.07538L17.1268 16.916L6.2861 16.2207L8.55834 14.2224C8.74701 14.0758 8.89958 13.8879 9.00434 13.6732C9.10909 13.4585 9.16325 13.2226 9.16265 12.9837C9.16205 12.7448 9.10671 12.5092 9.00087 12.295C8.89504 12.0808 8.74152 11.8937 8.55212 11.7481C8.23783 11.4883 7.84183 11.3481 7.43412 11.3521C7.02642 11.3561 6.63327 11.5042 6.32418 11.7701L1.16267 16.3869C0.993987 16.5228 0.855393 16.6923 0.755684 16.8847C0.655975 17.077 0.597327 17.288 0.583459 17.5042C0.569591 17.7204 0.600807 17.9371 0.675125 18.1406C0.749443 18.3442 0.865243 18.53 1.01518 18.6864L5.54456 23.9247C5.81715 24.228 6.18817 24.425 6.59201 24.4811C6.99586 24.5372 7.40653 24.4487 7.75143 24.2312C7.95789 24.111 8.13405 23.945 8.26638 23.7461C8.39871 23.5472 8.4837 23.3206 8.51482 23.0837C8.54594 22.8468 8.52236 22.606 8.4459 22.3796C8.36943 22.1533 8.24211 21.9475 8.07371 21.778L6.07539 19.5057L16.916 20.2011L16.2207 31.0417L14.2224 28.7695C14.0758 28.5808 13.8879 28.4282 13.6732 28.3235C13.4585 28.2187 13.2226 28.1646 12.9837 28.1652C12.7448 28.1658 12.5092 28.2211 12.295 28.327C12.0808 28.4328 11.8937 28.5863 11.7481 28.7757C11.4883 29.09 11.3481 29.486 11.3521 29.8937C11.3562 30.3014 11.5042 30.6946 11.7701 31.0036L16.3869 36.1652C16.5228 36.3338 16.6923 36.4724 16.8847 36.5721C17.077 36.6719 17.288 36.7305 17.5042 36.7444C17.7204 36.7582 17.9372 36.727 18.1407 36.6527C18.3442 36.5784 18.53 36.4626 18.6864 36.3126L23.9248 31.7833C24.228 31.5107 24.425 31.1397 24.4811 30.7358C24.5372 30.332 24.4487 29.9213 24.2312 29.5764C24.111 29.3699 23.9451 29.1938 23.7461 29.0614C23.5472 28.9291 23.3206 28.8441 23.0837 28.813C22.8469 28.7819 22.606 28.8055 22.3796 28.8819C22.1533 28.9584 21.9475 29.0857 21.778 29.2541L19.5058 31.2524L20.2011 20.4118L31.0417 21.1071L28.7695 23.1054C28.5808 23.252 28.4283 23.4399 28.3235 23.6546C28.2187 23.8693 28.1646 24.1052 28.1652 24.3441C28.1658 24.583 28.2211 24.8186 28.327 25.0328C28.4328 25.247 28.5863 25.4341 28.7757 25.5798C29.09 25.8395 29.486 25.9797 29.8937 25.9757C30.3014 25.9717 30.6946 25.8236 31.0037 25.5577L36.1652 20.941C36.3339 20.805 36.4725 20.6355 36.5722 20.4431C36.6719 20.2508 36.7305 20.0398 36.7444 19.8236C36.7583 19.6074 36.727 19.3907 36.6527 19.1872C36.5784 18.9837 36.4626 18.7978 36.3127 18.6414Z" fill="#F3F3F3"/>
</svg>
