<svg width="40" height="40" viewBox="0 0 40 40" fill="none" xmlns="http://www.w3.org/2000/svg">
<path fill-rule="evenodd" clip-rule="evenodd" d="M30.5 33C29.6735 33 29 32.3265 29 31.5C29 30.6735 29.6735 30 30.5 30C31.3265 30 32 30.6735 32 31.5C32 32.3265 31.3265 33 30.5 33ZM15.8675 23.0116C13.5065 19.0606 18.008 14.4752 22.0115 16.8677C23.4455 17.7257 24.2195 19.26 24.2195 20.718C24.2195 25.173 18.2405 26.9806 15.8675 23.0116ZM9.5 33C8.6735 33 8 32.3265 8 31.5C8 30.6735 8.6735 30 9.5 30C10.3265 30 11 30.6735 11 31.5C11 32.3265 10.3265 33 9.5 33ZM9.5 12C8.6735 12 8 11.3265 8 10.5C8 9.6735 8.6735 9 9.5 9C10.3265 9 11 9.6735 11 10.5C11 11.3265 10.3265 12 9.5 12ZM30.5 9C31.3265 9 32 9.6735 32 10.5C32 11.3265 31.3265 12 30.5 12C29.6735 12 29 11.3265 29 10.5C29 9.6735 29.6735 9 30.5 9ZM30.5 27C29.807 27 29.1575 27.1696 28.571 27.4501L25.9715 24.8503C27.4565 22.6063 27.728 19.614 26.1695 16.9515L28.571 14.5499C29.1575 14.8304 29.807 15 30.5 15C32.9855 15 35 12.9855 35 10.5C35 8.0145 32.9855 6 30.5 6C28.0145 6 26 8.0145 26 10.5C26 11.193 26.1695 11.8423 26.45 12.4288L24.1685 14.7103C21.515 12.7423 18.1295 12.7831 15.587 14.4661L13.55 12.4288C13.8305 11.8423 14 11.193 14 10.5C14 8.0145 11.9855 6 9.5 6C7.0145 6 5 8.0145 5 10.5C5 12.9855 7.0145 15 9.5 15C10.193 15 10.8425 14.8304 11.429 14.5499L13.466 16.5872C11.783 19.1282 11.741 22.5151 13.7105 25.1686L11.429 27.4501C10.8425 27.1696 10.193 27 9.5 27C7.0145 27 5 29.0145 5 31.5C5 33.9855 7.0145 36 9.5 36C11.9855 36 14 33.9855 14 31.5C14 30.807 13.8305 30.1577 13.55 29.5712L15.9515 27.1696C18.6035 28.7221 21.5975 28.4624 23.8505 26.9714L26.45 29.5712C26.1695 30.1577 26 30.807 26 31.5C26 33.9855 28.0145 36 30.5 36C32.9855 36 35 33.9855 35 31.5C35 29.0145 32.9855 27 30.5 27Z" fill="#A3A19E"/>
</svg>
