<svg width="27" height="36" viewBox="0 0 27 36" fill="none" xmlns="http://www.w3.org/2000/svg">
<path d="M22.8182 12.3333C22.3636 12.3333 21.6818 12.3333 21.4545 12.3333C21.4545 11.88 21 10.9733 20.5455 10.52C20.0909 10.0667 19.1818 9.61333 18.0455 9.61333C17.5909 9.61333 17.1364 9.61333 16.6818 9.84C16.4545 9.38667 16.2273 9.16 16 8.70667C15.5455 8.25333 14.8636 7.8 13.5 7.8C13.0455 7.8 12.5909 7.8 12.3636 8.02667V4.17333C12.3636 2.81333 11.4545 1 9.18182 1C8.27273 1 7.36364 1.45333 6.68182 1.90667C5.54545 3.26667 5.54545 5.08 5.54545 5.08V14.8267C4.18182 15.0533 3.04545 15.5067 2.36364 16.1867C1 17.7733 1 19.8133 1 22.5333C1 22.9867 1 23.6667 1 24.12C1 27.2933 2.59091 28.88 4.18182 30.4667L4.86364 31.3733C7.81818 34.0933 10.3182 35 16.4545 35C23.0455 35 26 31.3733 26 23.44V17.7733C26 16.1867 25.5455 13.0133 22.8182 12.3333ZM23.7273 17.7733V23.6667C23.7273 31.3733 20.7727 32.96 16.4545 32.96C11 32.96 8.95455 32.28 6.68182 30.0133C6.45455 29.7867 6.22727 29.56 5.77273 29.1067C4.18182 27.2933 3.27273 26.3867 3.27273 24.12C3.27273 23.6667 3.27273 22.9867 3.27273 22.5333C3.27273 20.2667 3.27273 18.68 3.95455 17.7733C4.18182 17.5467 4.86364 17.32 5.54545 17.32V18.4533L4.86364 21.8533C4.86364 22.08 4.86364 22.08 5.09091 22.3067C5.31818 22.5333 5.54545 22.3067 5.54545 22.3067L7.81818 19.5867C7.81818 19.36 7.81818 19.1333 7.81818 19.1333V5.08C7.81818 4.85333 7.81818 3.94667 8.27273 3.49333C8.5 3.49333 8.72727 3.26667 9.18182 3.26667C9.86364 3.26667 10.0909 3.94667 10.0909 4.17333V11.2V13.92C10.0909 14.6 10.5455 15.28 11.2273 15.28C11.9091 15.28 12.3636 14.6 12.3636 14.1467V11.2C12.3636 10.9733 12.5909 10.0667 13.5 10.0667C14.1818 10.0667 14.6364 10.2933 14.6364 10.9733V13.92C14.6364 14.6 15.0909 15.28 15.7727 15.28C16.4545 15.28 16.9091 14.6 16.9091 14.1467V12.56C16.9091 12.3333 17.1364 11.88 18.0455 11.88C18.5 11.88 18.7273 12.1067 18.7273 12.1067C19.1818 12.3333 19.1818 13.0133 19.1818 13.0133V14.8267C19.1818 15.5067 19.6364 15.96 20.0909 15.96C20.7727 15.96 21.2273 15.7333 21.2273 15.0533C21.2273 14.8267 21.4545 14.6 21.6818 14.3733C21.6818 14.3733 21.9091 14.3733 22.1364 14.3733C23.5 14.8267 23.7273 17.0933 23.7273 17.7733C23.7273 17.5467 23.7273 17.5467 23.7273 17.7733Z" fill="#A3A19E"/>
<path d="M23.7273 17.7733V23.6667C23.7273 31.3733 20.7727 32.96 16.4545 32.96C11 32.96 8.95455 32.28 6.68182 30.0133C6.45455 29.7867 6.22727 29.56 5.77273 29.1067C4.18182 27.2933 3.27273 26.3867 3.27273 24.12C3.27273 23.6667 3.27273 22.9867 3.27273 22.5333C3.27273 20.2667 3.27273 18.68 3.95455 17.7733C4.18182 17.5467 4.86364 17.32 5.54545 17.32V18.4533L4.86364 21.8533C4.86364 22.08 4.86364 22.08 5.09091 22.3067C5.31818 22.5333 5.54545 22.3067 5.54545 22.3067L7.81818 19.5867C7.81818 19.36 7.81818 19.1333 7.81818 19.1333V5.08C7.81818 4.85333 7.81818 3.94667 8.27273 3.49333C8.5 3.49333 8.72727 3.26667 9.18182 3.26667C9.86364 3.26667 10.0909 3.94667 10.0909 4.17333V11.2V13.92C10.0909 14.6 10.5455 15.28 11.2273 15.28C11.9091 15.28 12.3636 14.6 12.3636 14.1467V11.2C12.3636 10.9733 12.5909 10.0667 13.5 10.0667C14.1818 10.0667 14.6364 10.2933 14.6364 10.9733V13.92C14.6364 14.6 15.0909 15.28 15.7727 15.28C16.4545 15.28 16.9091 14.6 16.9091 14.1467V12.56C16.9091 12.3333 17.1364 11.88 18.0455 11.88C18.5 11.88 18.7273 12.1067 18.7273 12.1067C19.1818 12.3333 19.1818 13.0133 19.1818 13.0133V14.8267C19.1818 15.5067 19.6364 15.96 20.0909 15.96C20.7727 15.96 21.2273 15.7333 21.2273 15.0533C21.2273 14.8267 21.4545 14.6 21.6818 14.3733C21.6818 14.3733 21.9091 14.3733 22.1364 14.3733C23.5 14.8267 23.7273 17.0933 23.7273 17.7733ZM23.7273 17.7733C23.7273 17.5467 23.7273 17.5467 23.7273 17.7733ZM22.8182 12.3333C22.3636 12.3333 21.6818 12.3333 21.4545 12.3333C21.4545 11.88 21 10.9733 20.5455 10.52C20.0909 10.0667 19.1818 9.61333 18.0455 9.61333C17.5909 9.61333 17.1364 9.61333 16.6818 9.84C16.4545 9.38667 16.2273 9.16 16 8.70667C15.5455 8.25333 14.8636 7.8 13.5 7.8C13.0455 7.8 12.5909 7.8 12.3636 8.02667V4.17333C12.3636 2.81333 11.4545 1 9.18182 1C8.27273 1 7.36364 1.45333 6.68182 1.90667C5.54545 3.26667 5.54545 5.08 5.54545 5.08V14.8267C4.18182 15.0533 3.04545 15.5067 2.36364 16.1867C1 17.7733 1 19.8133 1 22.5333C1 22.9867 1 23.6667 1 24.12C1 27.2933 2.59091 28.88 4.18182 30.4667L4.86364 31.3733C7.81818 34.0933 10.3182 35 16.4545 35C23.0455 35 26 31.3733 26 23.44V17.7733C26 16.1867 25.5455 13.0133 22.8182 12.3333Z" stroke="#A3A19E" stroke-width="0.5"/>
</svg>
