<svg width="56" height="49" viewBox="0 0 56 49" fill="none" xmlns="http://www.w3.org/2000/svg">
<g filter="url(#filter0_f_1279_108)">
<path d="M42 9H14C12.6076 9 11.2723 9.55312 10.2877 10.5377C9.30312 11.5223 8.75 12.8576 8.75 14.25V35.25C8.75 36.6424 9.30312 37.9777 10.2877 38.9623C11.2723 39.9469 12.6076 40.5 14 40.5H42C43.3924 40.5 44.7277 39.9469 45.7123 38.9623C46.6969 37.9777 47.25 36.6424 47.25 35.25V14.25C47.25 12.8576 46.6969 11.5223 45.7123 10.5377C44.7277 9.55312 43.3924 9 42 9ZM43.75 35.25C43.75 35.7141 43.5656 36.1593 43.2374 36.4874C42.9092 36.8156 42.4641 37 42 37H14C13.5359 37 13.0908 36.8156 12.7626 36.4874C12.4344 36.1593 12.25 35.7141 12.25 35.25V14.25C12.25 13.7859 12.4344 13.3408 12.7626 13.0126C13.0908 12.6844 13.5359 12.5 14 12.5H42C42.4641 12.5 42.9092 12.6844 43.2374 13.0126C43.5656 13.3408 43.75 13.7859 43.75 14.25V35.25ZM22.75 24.75V31.75C22.75 32.2141 22.5656 32.6593 22.2374 32.9874C21.9092 33.3156 21.4641 33.5 21 33.5C20.5359 33.5 20.0908 33.3156 19.7626 32.9874C19.4344 32.6593 19.25 32.2141 19.25 31.75V24.75C19.25 24.2859 19.4344 23.8408 19.7626 23.5126C20.0908 23.1844 20.5359 23 21 23C21.4641 23 21.9092 23.1844 22.2374 23.5126C22.5656 23.8408 22.75 24.2859 22.75 24.75ZM29.75 21.25V31.75C29.75 32.2141 29.5656 32.6593 29.2374 32.9874C28.9092 33.3156 28.4641 33.5 28 33.5C27.5359 33.5 27.0908 33.3156 26.7626 32.9874C26.4344 32.6593 26.25 32.2141 26.25 31.75V21.25C26.25 20.7859 26.4344 20.3408 26.7626 20.0126C27.0908 19.6844 27.5359 19.5 28 19.5C28.4641 19.5 28.9092 19.6844 29.2374 20.0126C29.5656 20.3408 29.75 20.7859 29.75 21.25ZM36.75 17.75V31.75C36.75 32.2141 36.5656 32.6593 36.2374 32.9874C35.9093 33.3156 35.4641 33.5 35 33.5C34.5359 33.5 34.0908 33.3156 33.7626 32.9874C33.4344 32.6593 33.25 32.2141 33.25 31.75V17.75C33.25 17.2859 33.4344 16.8408 33.7626 16.5126C34.0908 16.1844 34.5359 16 35 16C35.4641 16 35.9093 16.1844 36.2374 16.5126C36.5656 16.8408 36.75 17.2859 36.75 17.75Z" fill="#FC78CE"/>
</g>
<path d="M42 9H14C12.6076 9 11.2723 9.55312 10.2877 10.5377C9.30312 11.5223 8.75 12.8576 8.75 14.25V35.25C8.75 36.6424 9.30312 37.9777 10.2877 38.9623C11.2723 39.9469 12.6076 40.5 14 40.5H42C43.3924 40.5 44.7277 39.9469 45.7123 38.9623C46.6969 37.9777 47.25 36.6424 47.25 35.25V14.25C47.25 12.8576 46.6969 11.5223 45.7123 10.5377C44.7277 9.55312 43.3924 9 42 9ZM43.75 35.25C43.75 35.7141 43.5656 36.1593 43.2374 36.4874C42.9092 36.8156 42.4641 37 42 37H14C13.5359 37 13.0908 36.8156 12.7626 36.4874C12.4344 36.1593 12.25 35.7141 12.25 35.25V14.25C12.25 13.7859 12.4344 13.3408 12.7626 13.0126C13.0908 12.6844 13.5359 12.5 14 12.5H42C42.4641 12.5 42.9092 12.6844 43.2374 13.0126C43.5656 13.3408 43.75 13.7859 43.75 14.25V35.25ZM22.75 24.75V31.75C22.75 32.2141 22.5656 32.6593 22.2374 32.9874C21.9092 33.3156 21.4641 33.5 21 33.5C20.5359 33.5 20.0908 33.3156 19.7626 32.9874C19.4344 32.6593 19.25 32.2141 19.25 31.75V24.75C19.25 24.2859 19.4344 23.8408 19.7626 23.5126C20.0908 23.1844 20.5359 23 21 23C21.4641 23 21.9092 23.1844 22.2374 23.5126C22.5656 23.8408 22.75 24.2859 22.75 24.75ZM29.75 21.25V31.75C29.75 32.2141 29.5656 32.6593 29.2374 32.9874C28.9092 33.3156 28.4641 33.5 28 33.5C27.5359 33.5 27.0908 33.3156 26.7626 32.9874C26.4344 32.6593 26.25 32.2141 26.25 31.75V21.25C26.25 20.7859 26.4344 20.3408 26.7626 20.0126C27.0908 19.6844 27.5359 19.5 28 19.5C28.4641 19.5 28.9092 19.6844 29.2374 20.0126C29.5656 20.3408 29.75 20.7859 29.75 21.25ZM36.75 17.75V31.75C36.75 32.2141 36.5656 32.6593 36.2374 32.9874C35.9093 33.3156 35.4641 33.5 35 33.5C34.5359 33.5 34.0908 33.3156 33.7626 32.9874C33.4344 32.6593 33.25 32.2141 33.25 31.75V17.75C33.25 17.2859 33.4344 16.8408 33.7626 16.5126C34.0908 16.1844 34.5359 16 35 16C35.4641 16 35.9093 16.1844 36.2374 16.5126C36.5656 16.8408 36.75 17.2859 36.75 17.75Z" fill="#FC78CE"/>
<defs>
<filter id="filter0_f_1279_108" x="0.75" y="1" width="54.5" height="47.5" filterUnits="userSpaceOnUse" color-interpolation-filters="sRGB">
<feFlood flood-opacity="0" result="BackgroundImageFix"/>
<feBlend mode="normal" in="SourceGraphic" in2="BackgroundImageFix" result="shape"/>
<feGaussianBlur stdDeviation="4" result="effect1_foregroundBlur_1279_108"/>
</filter>
</defs>
</svg>
