<svg width="41" height="41" viewBox="0 0 41 41" fill="none" xmlns="http://www.w3.org/2000/svg">
<path d="M41 20.5C41 24.5545 39.7977 28.518 37.5451 31.8892C35.2926 35.2604 32.0909 37.8879 28.345 39.4395C24.5991 40.9911 20.4773 41.3971 16.5007 40.6061C12.524 39.8151 8.87129 37.8627 6.00432 34.9957C3.13734 32.1287 1.18491 28.476 0.393911 24.4993C-0.397086 20.5227 0.00888231 16.4009 1.56048 12.655C3.11207 8.9091 5.73961 5.70744 9.11082 3.45487C12.482 1.2023 16.4455 0 20.5 0C23.1921 0 25.8578 0.530248 28.345 1.56047C30.8322 2.59069 33.0921 4.10071 34.9957 6.00431C36.8993 7.90791 38.4093 10.1678 39.4395 12.655C40.4698 15.1422 41 17.8079 41 20.5ZM30.0444 15.5336C30.0444 12.9981 29.0372 10.5665 27.2444 8.7737C25.4515 6.98087 23.0199 5.97366 20.4845 5.97366C17.949 5.97366 15.5174 6.98087 13.7246 8.7737C11.9317 10.5665 10.9245 12.9981 10.9245 15.5336C10.9236 17.0291 11.2683 18.5046 11.9318 19.8449C12.4619 20.8829 13.0888 21.8686 13.8039 22.789C14.3884 23.4209 14.8167 24.1809 15.0546 25.0081V27.1236C15.0546 27.3391 15.0971 27.5524 15.1796 27.7514C15.2621 27.9505 15.3831 28.1313 15.5356 28.2835C15.688 28.4357 15.869 28.5564 16.0682 28.6386C16.2673 28.7209 16.4808 28.763 16.6962 28.7627H24.2727C24.7074 28.7627 25.1243 28.59 25.4317 28.2826C25.7391 27.9752 25.9118 27.5583 25.9118 27.1236V25.0081C26.1494 24.1807 26.5777 23.4207 27.1624 22.789C27.8788 21.8689 28.5065 20.8832 29.0371 19.8449C29.7006 18.5046 30.0453 17.0291 30.0444 15.5336ZM25.0909 30.9196C25.0903 30.7028 25.0038 30.4951 24.8505 30.3418C24.6972 30.1885 24.4895 30.102 24.2727 30.1014H16.6936C16.5821 30.0951 16.4705 30.1116 16.3657 30.15C16.2608 30.1883 16.1648 30.2477 16.0837 30.3244C16.0025 30.4011 15.9379 30.4936 15.8937 30.5962C15.8495 30.6987 15.8267 30.8092 15.8267 30.9209C15.8267 31.0326 15.8495 31.1431 15.8937 31.2456C15.9379 31.3482 16.0025 31.4407 16.0837 31.5174C16.1648 31.5941 16.2608 31.6534 16.3657 31.6918C16.4705 31.7301 16.5821 31.7467 16.6936 31.7404H24.2701C24.4874 31.7397 24.6955 31.653 24.8489 31.4991C25.0022 31.3452 25.0909 31.1368 25.0909 30.9196ZM23.8662 33.3355C23.8386 33.2545 23.7862 33.1842 23.7165 33.1345C23.6469 33.0848 23.5634 33.0582 23.4778 33.0584H17.3876C17.3019 33.0577 17.2182 33.0838 17.1482 33.1332C17.0782 33.1826 17.0255 33.2527 16.9974 33.3336C16.9694 33.4146 16.9675 33.5023 16.992 33.5844C17.0164 33.6665 17.0661 33.7388 17.1338 33.7912C18.0768 34.5242 19.2371 34.9221 20.4314 34.9221C21.6257 34.9221 22.786 34.5242 23.7289 33.7912C23.7965 33.739 23.846 33.6671 23.8706 33.5853C23.8953 33.5036 23.8937 33.4163 23.8662 33.3355Z" fill="#EFEAE4"/>
</svg>
