<svg width="56" height="57" viewBox="0 0 56 57" fill="none" xmlns="http://www.w3.org/2000/svg">
<g filter="url(#filter0_f_1916_237)">
<path d="M27.8887 24.5312L37.0133 26.9762" stroke="#FC78CE" stroke-width="2.83397" stroke-linecap="round"/>
<path d="M26.4209 30.0059L31.8958 31.4727" stroke="#FC78CE" stroke-width="2.83397" stroke-linecap="round"/>
<path d="M44.0131 29.5331C42.8716 33.7937 42.3006 35.9239 41.0066 37.3055C39.9849 38.3964 38.6625 39.1599 37.207 39.4992C37.0251 39.5417 36.8405 39.5744 36.6512 39.5977C34.9223 39.811 32.8128 39.2457 28.9726 38.2168C24.712 37.075 22.5817 36.5043 21.2001 35.2103C20.1092 34.1885 19.3458 32.8662 19.0064 31.4105C18.5765 29.5669 19.1473 27.4367 20.2889 23.1762L21.2669 19.5263C21.4311 18.9136 21.5835 18.3449 21.7279 17.8161C22.5876 14.6685 23.1654 12.9367 24.2734 11.7538C25.2951 10.6629 26.6174 9.89946 28.0731 9.56007C29.9165 9.13021 32.0469 9.70101 36.3075 10.8426C40.5679 11.9842 42.6983 12.555 44.08 13.8491C45.1708 14.8708 45.9343 16.1931 46.2736 17.6488C46.5776 18.9525 46.3811 20.3996 45.8363 22.6422" stroke="#FC78CE" stroke-width="2.83397" stroke-linecap="round"/>
<path d="M11.8206 37.0896C12.9622 41.3502 13.533 43.4804 14.8271 44.8621C15.8488 45.953 17.1711 46.7164 18.6268 47.0558C20.4703 47.4856 22.6006 46.9148 26.8612 45.7733C31.1216 44.6316 33.252 44.0608 34.6337 42.7668C35.5649 41.8945 36.2575 40.8033 36.6515 39.5969M21.7282 17.8154C21.0621 17.9876 20.3323 18.1832 19.5263 18.3992C15.2657 19.5408 13.1354 20.1116 11.7538 21.4056C10.6629 22.4274 9.89946 23.7497 9.56007 25.2053C9.25606 26.5091 9.45256 27.9565 9.99754 30.1993" stroke="#FC78CE" stroke-width="2.83397" stroke-linecap="round" stroke-linejoin="round"/>
</g>
<path d="M27.8887 24.5312L37.0133 26.9762" stroke="#FC78CE" stroke-width="2.83397" stroke-linecap="round"/>
<path d="M26.4209 30.0059L31.8958 31.4727" stroke="#FC78CE" stroke-width="2.83397" stroke-linecap="round"/>
<path d="M44.0131 29.5331C42.8716 33.7937 42.3006 35.9239 41.0066 37.3055C39.9849 38.3964 38.6625 39.1599 37.207 39.4992C37.0251 39.5417 36.8405 39.5744 36.6512 39.5977C34.9223 39.811 32.8128 39.2457 28.9726 38.2168C24.712 37.075 22.5817 36.5043 21.2001 35.2103C20.1092 34.1885 19.3458 32.8662 19.0064 31.4105C18.5765 29.5669 19.1473 27.4367 20.2889 23.1762L21.2669 19.5263C21.4311 18.9136 21.5835 18.3449 21.7279 17.8161C22.5876 14.6685 23.1654 12.9367 24.2734 11.7538C25.2951 10.6629 26.6174 9.89946 28.0731 9.56007C29.9165 9.13021 32.0469 9.70101 36.3075 10.8426C40.5679 11.9842 42.6983 12.555 44.08 13.8491C45.1708 14.8708 45.9343 16.1931 46.2736 17.6488C46.5776 18.9525 46.3811 20.3996 45.8363 22.6422" stroke="#FC78CE" stroke-width="2.83397" stroke-linecap="round"/>
<path d="M11.8206 37.0896C12.9622 41.3502 13.533 43.4804 14.8271 44.8621C15.8488 45.953 17.1711 46.7164 18.6268 47.0558C20.4703 47.4856 22.6006 46.9148 26.8612 45.7733C31.1216 44.6316 33.252 44.0608 34.6337 42.7668C35.5649 41.8945 36.2575 40.8033 36.6515 39.5969M21.7282 17.8154C21.0621 17.9876 20.3323 18.1832 19.5263 18.3992C15.2657 19.5408 13.1354 20.1116 11.7538 21.4056C10.6629 22.4274 9.89946 23.7497 9.56007 25.2053C9.25606 26.5091 9.45256 27.9565 9.99754 30.1993" stroke="#FC78CE" stroke-width="2.83397" stroke-linecap="round" stroke-linejoin="round"/>
<defs>
<filter id="filter0_f_1916_237" x="0" y="0" width="55.833" height="56.6162" filterUnits="userSpaceOnUse" color-interpolation-filters="sRGB">
<feFlood flood-opacity="0" result="BackgroundImageFix"/>
<feBlend mode="normal" in="SourceGraphic" in2="BackgroundImageFix" result="shape"/>
<feGaussianBlur stdDeviation="4" result="effect1_foregroundBlur_1916_237"/>
</filter>
</defs>
</svg>
