<svg width="41" height="41" viewBox="0 0 41 41" fill="none" xmlns="http://www.w3.org/2000/svg">
<rect x="0.375" y="0.375" width="40.125" height="39.75" rx="19.875" stroke="#ABABAB" stroke-width="0.75"/>
<path fill-rule="evenodd" clip-rule="evenodd" d="M13.2354 12.75H28.0146C29.226 12.75 29.6665 12.8805 30.1091 13.1258C30.5517 13.371 30.8997 13.731 31.1368 14.1889C31.3738 14.6467 31.5 15.1012 31.5 16.3556V24.8944C31.5 26.1488 31.3738 26.6033 31.1368 27.0611C30.905 27.5141 30.5469 27.8845 30.1091 28.1243C29.6665 28.3695 29.2271 28.5 28.0146 28.5H13.2354C12.0229 28.5 11.5835 28.3695 11.1409 28.1243C10.7031 27.8845 10.345 27.5141 10.1132 27.0611C9.87615 26.6033 9.75 26.1488 9.75 24.8944V16.3556C9.75 15.1012 9.87615 14.6467 10.1132 14.1889C10.3503 13.731 10.6983 13.371 11.1409 13.1258C11.5835 12.8805 12.0229 12.75 13.2354 12.75ZM11.925 17.8125L11.7673 15.8584L11.8587 15.7954L13.0103 16.8338L19.059 21.2426C19.5173 21.5767 20.0643 21.756 20.625 21.756C21.1857 21.756 21.7327 21.5767 22.191 21.2426L28.2353 16.8382L29.3902 15.7954L29.4827 15.8584L29.325 17.8125V24.8944C29.325 25.3748 29.3043 25.6751 29.2717 25.8495C29.2641 25.903 29.2459 25.9543 29.2184 26.0002C29.1896 26.0611 29.1422 26.1106 29.0836 26.1409C29.039 26.1689 28.9895 26.1873 28.9378 26.1949C28.7693 26.2286 28.4789 26.25 28.0146 26.25H13.2354C12.7711 26.25 12.4807 26.2286 12.3122 26.1949C12.2605 26.187 12.2109 26.1682 12.1664 26.1398C12.108 26.1097 12.0606 26.0607 12.0316 26.0002C12.0041 25.9543 11.9859 25.903 11.9783 25.8495C11.9457 25.6751 11.925 25.3748 11.925 24.8944V17.8125ZM27.7481 14.6625L24.975 15H16.275L13.5019 14.6625L13.3899 14.7401C14.1851 15.0667 14.9404 15.4893 15.6399 15.999L20.3118 19.4032C20.4035 19.4701 20.5129 19.5059 20.625 19.5059C20.7371 19.5059 20.8465 19.4701 20.9382 19.4032L25.6057 16.0012C26.3066 15.4908 27.0633 15.0679 27.8601 14.7413L27.7481 14.6625Z" fill="#B5B5B5"/>
</svg>
