<svg width="643" height="151" viewBox="0 0 643 151" fill="none" xmlns="http://www.w3.org/2000/svg">
<g opacity="0.5">
<path opacity="0.5" d="M423.966 25.36C423.87 25.36 423.822 25.3 423.822 25.216V4.624C423.822 4.54 423.87 4.48 423.966 4.48H429.906C430.002 4.48 430.05 4.54 430.05 4.624V6.016C430.05 6.1 430.002 6.16 429.906 6.16H425.754V23.668H429.906C430.002 23.668 430.05 23.728 430.05 23.812V25.216C430.05 25.3 430.002 25.36 429.906 25.36H423.966ZM448.979 22C448.883 22 448.835 21.94 448.835 21.856V20.536C448.835 20.452 448.883 20.392 448.979 20.392H452.987L453.011 15.652L452.987 11.248H448.979C448.883 11.248 448.835 11.188 448.835 11.104V9.784C448.835 9.7 448.883 9.64 448.979 9.64H452.987V9.496C452.987 6.508 454.799 4.78 458.003 4.78C458.987 4.78 459.959 4.948 460.955 5.296C461.027 5.32 461.063 5.38 461.063 5.464L461.039 6.736C461.039 6.832 460.979 6.88 460.883 6.856C459.971 6.556 459.155 6.4 458.315 6.4C456.191 6.4 455.183 7.432 455.183 9.496V9.64H460.931C461.027 9.64 461.075 9.7 461.075 9.784V11.104C461.075 11.188 461.027 11.248 460.931 11.248H455.183L455.171 15.652L455.195 20.392H460.331C460.427 20.392 460.475 20.452 460.475 20.536V21.856C460.475 21.94 460.427 22 460.331 22H448.979ZM463.789 22C463.693 22 463.645 21.94 463.645 21.856V20.536C463.645 20.452 463.693 20.392 463.789 20.392H468.589L468.613 13.324L468.589 6.808H464.029C463.933 6.808 463.885 6.748 463.885 6.664V5.344C463.885 5.26 463.933 5.2 464.029 5.2H470.677C470.773 5.2 470.821 5.248 470.821 5.344L470.785 13.324L470.809 20.392H475.381C475.477 20.392 475.525 20.452 475.525 20.536V21.856C475.525 21.94 475.477 22 475.381 22H463.789ZM483.712 22.276C479.848 22.276 477.664 19.732 477.664 15.844C477.664 11.956 479.848 9.364 483.712 9.364C487.576 9.364 489.736 11.92 489.736 15.808C489.736 19.696 487.576 22.276 483.712 22.276ZM483.712 20.752C486.256 20.752 487.492 18.988 487.492 15.844C487.492 12.724 486.244 10.888 483.7 10.888C481.144 10.9 479.896 12.724 479.896 15.856C479.896 18.988 481.168 20.752 483.712 20.752ZM494.143 22C494.095 22 494.047 21.964 494.035 21.916L491.323 9.748C491.311 9.676 491.347 9.64 491.407 9.64H493.231C493.279 9.64 493.315 9.676 493.327 9.724L495.187 19.144L497.251 9.724C497.263 9.676 497.311 9.64 497.359 9.64H498.919C498.967 9.64 499.015 9.676 499.027 9.724L501.091 19.096L502.951 9.724C502.963 9.676 502.999 9.64 503.047 9.64H504.751C504.811 9.64 504.847 9.676 504.835 9.748L502.123 21.916C502.111 21.964 502.063 22 502.015 22H500.215C500.167 22 500.119 21.964 500.107 21.916L498.115 12.712L496.099 21.916C496.087 21.964 496.039 22 495.991 22H494.143ZM523.104 25.36C523.008 25.36 522.96 25.3 522.96 25.216V23.812C522.96 23.728 523.008 23.668 523.104 23.668H527.256V6.16H523.104C523.008 6.16 522.96 6.1 522.96 6.016V4.624C522.96 4.54 523.008 4.48 523.104 4.48H529.044C529.14 4.48 529.188 4.54 529.188 4.624V25.216C529.188 25.3 529.14 25.36 529.044 25.36H523.104Z" fill="#E60000"/>
<path opacity="0.5" d="M322.541 71H317.789L310.589 45.8H315.161L320.273 64.916H320.525L325.601 45.8H330.101L335.213 64.916H335.429L340.505 45.8H345.113L337.913 71H333.197L327.977 52.136H327.761L322.541 71ZM353.639 71.504C348.203 71.504 344.531 67.832 344.531 62.504V61.424C344.531 56.276 348.347 52.532 353.639 52.496C359.003 52.532 362.747 56.204 362.747 61.424V62.504C362.747 67.904 359.111 71.504 353.639 71.504ZM353.639 68.228C356.411 68.228 358.103 65.852 358.103 63.044V60.956C358.103 58.112 356.375 55.772 353.675 55.772C350.903 55.772 349.139 58.076 349.139 60.956V63.044C349.139 65.852 350.867 68.228 353.639 68.228ZM370.043 71H365.435V53H370.043V53.612C370.043 54.404 369.935 55.016 369.611 55.808L369.395 56.276L369.503 56.348L370.043 55.556C370.691 54.44 371.807 53.468 373.031 53C373.679 52.748 374.399 52.568 375.191 52.532H376.307V56.492L374.435 56.456C371.447 56.42 370.043 58.832 370.043 61.568V71ZM383.649 71H379.041V45.8H383.649V61.316H383.865L391.569 53H396.501L388.221 61.712L396.501 71H391.569L383.829 62.18H383.649V71ZM416.902 67.796V71.252C413.626 71.828 410.926 71.432 409.558 70.244C408.406 69.272 407.902 67.976 407.902 66.104V56.708H404.986V53H406.786C407.65 53 408.01 52.532 408.01 51.704V49.076L412.582 47.924V51.38C412.582 52.28 412.114 52.748 411.61 52.928V52.964L416.794 53V56.708H412.582V65.168C412.582 67.58 413.986 68.12 416.902 67.796ZM424.641 71H420.033V45.8H424.641V53.252C424.641 54.08 424.497 54.764 424.101 55.484L423.957 55.844L424.029 55.916L424.641 55.16C425.793 53.576 427.773 52.496 430.005 52.496C434.505 52.46 436.953 55.268 436.953 60.416V71H432.381V60.236C432.381 57.356 431.193 55.772 429.033 55.772C426.693 55.772 424.641 57.608 424.641 60.524V71ZM445.102 71H440.494V53H445.102V53.612C445.102 54.404 444.994 55.016 444.67 55.808L444.454 56.276L444.562 56.348L445.102 55.556C445.75 54.44 446.866 53.468 448.09 53C448.738 52.748 449.458 52.568 450.25 52.532H451.366V56.492L449.494 56.456C446.506 56.42 445.102 58.832 445.102 61.568V71ZM461.323 71.504C455.887 71.504 452.215 67.832 452.215 62.504V61.424C452.215 56.276 456.031 52.532 461.323 52.496C466.687 52.532 470.431 56.204 470.431 61.424V62.504C470.431 67.904 466.795 71.504 461.323 71.504ZM461.323 68.228C464.095 68.228 465.787 65.852 465.787 63.044V60.956C465.787 58.112 464.059 55.772 461.359 55.772C458.587 55.772 456.823 58.076 456.823 60.956V63.044C456.823 65.852 458.551 68.228 461.323 68.228ZM479.923 71.504C475.423 71.54 472.939 68.732 472.939 63.584V53H477.547V63.764C477.547 66.644 478.699 68.228 480.859 68.228C483.235 68.228 485.287 66.392 485.287 63.476V53H489.859V71H485.287V70.352C485.323 69.74 485.431 69.2 485.791 68.516L485.935 68.192L485.863 68.12L485.287 68.876C484.099 70.46 482.155 71.504 479.923 71.504ZM502.035 78.704C497.535 78.704 494.295 76.508 493.611 73.916L497.787 73.232C498.363 74.6 500.019 75.5 501.963 75.5C504.375 75.5 506.211 73.916 506.211 71.828V68.624H506.067C505.023 70.604 502.827 71.504 500.667 71.504C495.951 71.504 492.891 68.012 492.891 62.468V61.388C492.891 56.204 495.951 52.46 500.667 52.46C502.899 52.46 505.239 53.612 506.211 55.736L506.715 56.78L506.787 56.744L506.499 55.88C506.319 55.16 506.211 54.656 506.211 54.08V53H510.747V71.648C510.747 75.824 507.183 78.704 502.035 78.704ZM501.747 68.192C504.303 68.192 506.103 66.104 506.103 62.936V61.028C506.103 57.86 504.267 55.736 501.675 55.736C499.335 55.736 497.463 57.896 497.463 61.352V62.576C497.463 66.032 499.371 68.192 501.747 68.192ZM518.93 71H514.322V45.8H518.93V53.252C518.93 54.08 518.786 54.764 518.39 55.484L518.246 55.844L518.318 55.916L518.93 55.16C520.082 53.576 522.062 52.496 524.294 52.496C528.794 52.46 531.242 55.268 531.242 60.416V71H526.67V60.236C526.67 57.356 525.482 55.772 523.322 55.772C520.982 55.772 518.93 57.608 518.93 60.524V71ZM549.864 71.504C544.932 71.504 541.764 69.56 541.512 66.248H546.228C546.552 67.58 547.884 68.3 549.9 68.3C552.024 68.3 553.5 67.364 553.5 66.104C553.5 65.024 552.888 64.484 550.368 63.98L547.236 63.368C543.636 62.684 541.872 60.92 541.872 58.148C541.872 54.656 544.932 52.496 549.828 52.496C554.652 52.496 557.568 54.404 557.712 57.716H553.176C552.96 56.42 551.736 55.7 549.828 55.7C547.956 55.7 546.48 56.456 546.48 57.86C546.48 59.048 547.236 59.552 549.504 59.984L552.708 60.596C556.416 61.28 558.288 62.972 558.288 65.672C558.288 69.272 555.012 71.504 549.864 71.504ZM571.343 67.796V71.252C568.067 71.828 565.367 71.432 563.999 70.244C562.847 69.272 562.343 67.976 562.343 66.104V56.708H559.427V53H561.227C562.091 53 562.451 52.532 562.451 51.704V49.076L567.023 47.924V51.38C567.023 52.28 566.555 52.748 566.051 52.928V52.964L571.235 53V56.708H567.023V65.168C567.023 67.58 568.427 68.12 571.343 67.796ZM578.766 71H574.158V53H578.766V53.612C578.766 54.404 578.658 55.016 578.334 55.808L578.118 56.276L578.226 56.348L578.766 55.556C579.414 54.44 580.53 53.468 581.754 53C582.402 52.748 583.122 52.568 583.914 52.532H585.03V56.492L583.158 56.456C580.17 56.42 578.766 58.832 578.766 61.568V71ZM594.987 71.504C589.551 71.504 585.879 67.868 585.879 62.54V61.388C585.879 56.276 589.695 52.532 594.987 52.496C600.387 52.532 604.131 56.168 604.131 61.388V62.864H590.487V63.188C590.487 65.996 592.251 68.228 594.987 68.228C596.967 68.228 598.515 67.04 599.235 64.916H603.843C602.943 69.02 599.595 71.504 594.987 71.504ZM590.523 60.056H599.487C599.127 57.464 597.399 55.772 595.059 55.772C592.719 55.772 590.919 57.428 590.523 60.056ZM614.551 71.504C609.619 71.504 606.451 69.56 606.199 66.248H610.915C611.239 67.58 612.571 68.3 614.587 68.3C616.711 68.3 618.187 67.364 618.187 66.104C618.187 65.024 617.575 64.484 615.055 63.98L611.923 63.368C608.323 62.684 606.559 60.92 606.559 58.148C606.559 54.656 609.619 52.496 614.515 52.496C619.339 52.496 622.255 54.404 622.399 57.716H617.863C617.647 56.42 616.423 55.7 614.515 55.7C612.643 55.7 611.167 56.456 611.167 57.86C611.167 59.048 611.923 59.552 614.191 59.984L617.395 60.596C621.103 61.28 622.975 62.972 622.975 65.672C622.975 69.272 619.699 71.504 614.551 71.504ZM633.395 71.504C628.463 71.504 625.295 69.56 625.043 66.248H629.759C630.083 67.58 631.415 68.3 633.431 68.3C635.555 68.3 637.031 67.364 637.031 66.104C637.031 65.024 636.419 64.484 633.899 63.98L630.767 63.368C627.167 62.684 625.403 60.92 625.403 58.148C625.403 54.656 628.463 52.496 633.359 52.496C638.183 52.496 641.099 54.404 641.243 57.716H636.707C636.491 56.42 635.267 55.7 633.359 55.7C631.487 55.7 630.011 56.456 630.011 57.86C630.011 59.048 630.767 59.552 633.035 59.984L636.239 60.596C639.947 61.28 641.819 62.972 641.819 65.672C641.819 69.272 638.543 71.504 633.395 71.504Z" fill="#0D0D0D"/>
</g>
<g opacity="0.25">
<rect x="464.5" y="127" width="24" height="24" rx="12" fill="#E60000"/>
<circle cx="476.5" cy="139" r="8" fill="white"/>
</g>
<path opacity="0.25" d="M434.5 131C229 70.5 91.5 73.0002 2 110.5" stroke="#8C00FF" stroke-width="6" stroke-dasharray="32 32"/>
</svg>
