<svg width="553" height="400" viewBox="0 0 553 400" fill="none" xmlns="http://www.w3.org/2000/svg">
<g opacity="0.25">
<path d="M295.466 346.36C295.37 346.36 295.322 346.3 295.322 346.216V325.624C295.322 325.54 295.37 325.48 295.466 325.48H301.406C301.502 325.48 301.55 325.54 301.55 325.624V327.016C301.55 327.1 301.502 327.16 301.406 327.16H297.254V344.668H301.406C301.502 344.668 301.55 344.728 301.55 344.812V346.216C301.55 346.3 301.502 346.36 301.406 346.36H295.466ZM320.479 343C320.383 343 320.335 342.94 320.335 342.856V341.536C320.335 341.452 320.383 341.392 320.479 341.392H324.487L324.511 336.652L324.487 332.248H320.479C320.383 332.248 320.335 332.188 320.335 332.104V330.784C320.335 330.7 320.383 330.64 320.479 330.64H324.487V330.496C324.487 327.508 326.299 325.78 329.503 325.78C330.487 325.78 331.459 325.948 332.455 326.296C332.527 326.32 332.563 326.38 332.563 326.464L332.539 327.736C332.539 327.832 332.479 327.88 332.383 327.856C331.471 327.556 330.655 327.4 329.815 327.4C327.691 327.4 326.683 328.432 326.683 330.496V330.64H332.431C332.527 330.64 332.575 330.7 332.575 330.784V332.104C332.575 332.188 332.527 332.248 332.431 332.248H326.683L326.671 336.652L326.695 341.392H331.831C331.927 341.392 331.975 341.452 331.975 341.536V342.856C331.975 342.94 331.927 343 331.831 343H320.479ZM335.289 343C335.193 343 335.145 342.94 335.145 342.856V341.536C335.145 341.452 335.193 341.392 335.289 341.392H340.089L340.113 334.324L340.089 327.808H335.529C335.433 327.808 335.385 327.748 335.385 327.664V326.344C335.385 326.26 335.433 326.2 335.529 326.2H342.177C342.273 326.2 342.321 326.248 342.321 326.344L342.285 334.324L342.309 341.392H346.881C346.977 341.392 347.025 341.452 347.025 341.536V342.856C347.025 342.94 346.977 343 346.881 343H335.289ZM355.212 343.276C351.348 343.276 349.164 340.732 349.164 336.844C349.164 332.956 351.348 330.364 355.212 330.364C359.076 330.364 361.236 332.92 361.236 336.808C361.236 340.696 359.076 343.276 355.212 343.276ZM355.212 341.752C357.756 341.752 358.992 339.988 358.992 336.844C358.992 333.724 357.744 331.888 355.2 331.888C352.644 331.9 351.396 333.724 351.396 336.856C351.396 339.988 352.668 341.752 355.212 341.752ZM365.643 343C365.595 343 365.547 342.964 365.535 342.916L362.823 330.748C362.811 330.676 362.847 330.64 362.907 330.64H364.731C364.779 330.64 364.815 330.676 364.827 330.724L366.687 340.144L368.751 330.724C368.763 330.676 368.811 330.64 368.859 330.64H370.419C370.467 330.64 370.515 330.676 370.527 330.724L372.591 340.096L374.451 330.724C374.463 330.676 374.499 330.64 374.547 330.64H376.251C376.311 330.64 376.347 330.676 376.335 330.748L373.623 342.916C373.611 342.964 373.563 343 373.515 343H371.715C371.667 343 371.619 342.964 371.607 342.916L369.615 333.712L367.599 342.916C367.587 342.964 367.539 343 367.491 343H365.643ZM394.604 346.36C394.508 346.36 394.46 346.3 394.46 346.216V344.812C394.46 344.728 394.508 344.668 394.604 344.668H398.756V327.16H394.604C394.508 327.16 394.46 327.1 394.46 327.016V325.624C394.46 325.54 394.508 325.48 394.604 325.48H400.544C400.64 325.48 400.688 325.54 400.688 325.624V346.216C400.688 346.3 400.64 346.36 400.544 346.36H394.604Z" fill="#E60000"/>
<path d="M223.235 392.504C214.631 392.504 211.247 385.736 211.247 379.616V379.256C211.247 373.28 214.631 366.296 223.235 366.296C229.859 366.296 234.107 370.292 234.539 375.008H229.895C229.463 372.092 226.943 370.004 223.235 370.004C217.727 370.04 215.819 375.116 215.819 379.22V379.616C215.819 383.864 217.727 388.76 223.235 388.796C226.943 388.796 229.535 386.708 229.895 383.828H234.575C234.143 388.544 229.859 392.504 223.235 392.504ZM246.022 392.504C240.586 392.504 236.914 388.832 236.914 383.504V382.424C236.914 377.276 240.73 373.532 246.022 373.496C251.386 373.532 255.13 377.204 255.13 382.424V383.504C255.13 388.904 251.494 392.504 246.022 392.504ZM246.022 389.228C248.794 389.228 250.486 386.852 250.486 384.044V381.956C250.486 379.112 248.758 376.772 246.058 376.772C243.286 376.772 241.522 379.076 241.522 381.956V384.044C241.522 386.852 243.25 389.228 246.022 389.228ZM262.426 399.2H257.818V374H262.426V375.08C262.39 375.728 262.318 376.268 262.03 377.024L261.814 377.564L261.886 377.636L262.426 376.772C263.398 374.648 265.702 373.496 267.934 373.496C272.686 373.496 275.746 376.988 275.746 382.532V383.576C275.746 388.796 272.65 392.504 267.934 392.504C265.774 392.504 263.65 391.46 262.642 389.444H262.426V399.2ZM266.926 389.264C269.266 389.264 271.138 387.068 271.138 383.612V382.388C271.138 378.968 269.23 376.772 266.854 376.772C264.334 376.772 262.498 378.86 262.498 382.028V383.972C262.498 387.14 264.37 389.264 266.926 389.264ZM286.979 392.504C281.543 392.504 277.871 388.868 277.871 383.54V382.388C277.871 377.276 281.687 373.532 286.979 373.496C292.379 373.532 296.123 377.168 296.123 382.388V383.864H282.479V384.188C282.479 386.996 284.243 389.228 286.979 389.228C288.959 389.228 290.507 388.04 291.227 385.916H295.835C294.935 390.02 291.587 392.504 286.979 392.504ZM282.515 381.056H291.479C291.119 378.464 289.391 376.772 287.051 376.772C284.711 376.772 282.911 378.428 282.515 381.056ZM315.431 392H310.103L305.099 374H309.239L312.875 387.68H313.055L316.907 374H321.299L325.187 387.68H325.403L329.003 374H333.179L328.175 392H322.811L319.211 379.364H319.031L315.431 392ZM340.051 370.904H335.443V366.8H340.051V370.904ZM340.051 392H335.443V373.964H340.051V392ZM354.109 388.796V392.252C350.833 392.828 348.133 392.432 346.765 391.244C345.613 390.272 345.109 388.976 345.109 387.104V377.708H342.193V374H343.993C344.857 374 345.217 373.532 345.217 372.704V370.076L349.789 368.924V372.38C349.789 373.28 349.321 373.748 348.817 373.928V373.964L354.001 374V377.708H349.789V386.168C349.789 388.58 351.193 389.12 354.109 388.796ZM361.848 392H357.24V366.8H361.848V374.252C361.848 375.08 361.704 375.764 361.308 376.484L361.164 376.844L361.236 376.916L361.848 376.16C363 374.576 364.98 373.496 367.212 373.496C371.712 373.46 374.16 376.268 374.16 381.416V392H369.588V381.236C369.588 378.356 368.4 376.772 366.24 376.772C363.9 376.772 361.848 378.608 361.848 381.524V392ZM392.782 392.504C387.85 392.504 384.682 390.56 384.43 387.248H389.146C389.47 388.58 390.802 389.3 392.818 389.3C394.942 389.3 396.418 388.364 396.418 387.104C396.418 386.024 395.806 385.484 393.286 384.98L390.154 384.368C386.554 383.684 384.79 381.92 384.79 379.148C384.79 375.656 387.85 373.496 392.746 373.496C397.57 373.496 400.486 375.404 400.63 378.716H396.094C395.878 377.42 394.654 376.7 392.746 376.7C390.874 376.7 389.398 377.456 389.398 378.86C389.398 380.048 390.154 380.552 392.422 380.984L395.626 381.596C399.334 382.28 401.206 383.972 401.206 386.672C401.206 390.272 397.93 392.504 392.782 392.504ZM414.261 388.796V392.252C410.985 392.828 408.285 392.432 406.917 391.244C405.765 390.272 405.261 388.976 405.261 387.104V377.708H402.345V374H404.145C405.009 374 405.369 373.532 405.369 372.704V370.076L409.941 368.924V372.38C409.941 373.28 409.473 373.748 408.969 373.928V373.964L414.153 374V377.708H409.941V386.168C409.941 388.58 411.345 389.12 414.261 388.796ZM421.684 392H417.076V374H421.684V374.612C421.684 375.404 421.576 376.016 421.252 376.808L421.036 377.276L421.144 377.348L421.684 376.556C422.332 375.44 423.448 374.468 424.672 374C425.32 373.748 426.04 373.568 426.832 373.532H427.948V377.492L426.076 377.456C423.088 377.42 421.684 379.832 421.684 382.568V392ZM437.905 392.504C432.469 392.504 428.797 388.868 428.797 383.54V382.388C428.797 377.276 432.613 373.532 437.905 373.496C443.305 373.532 447.049 377.168 447.049 382.388V383.864H433.405V384.188C433.405 386.996 435.169 389.228 437.905 389.228C439.885 389.228 441.433 388.04 442.153 385.916H446.761C445.861 390.02 442.513 392.504 437.905 392.504ZM433.441 381.056H442.405C442.045 378.464 440.317 376.772 437.977 376.772C435.637 376.772 433.837 378.428 433.441 381.056ZM457.469 392.504C452.537 392.504 449.369 390.56 449.117 387.248H453.833C454.157 388.58 455.489 389.3 457.505 389.3C459.629 389.3 461.105 388.364 461.105 387.104C461.105 386.024 460.493 385.484 457.973 384.98L454.841 384.368C451.241 383.684 449.477 381.92 449.477 379.148C449.477 375.656 452.537 373.496 457.433 373.496C462.257 373.496 465.173 375.404 465.317 378.716H460.781C460.565 377.42 459.341 376.7 457.433 376.7C455.561 376.7 454.085 377.456 454.085 378.86C454.085 380.048 454.841 380.552 457.109 380.984L460.313 381.596C464.021 382.28 465.893 383.972 465.893 386.672C465.893 390.272 462.617 392.504 457.469 392.504ZM476.313 392.504C471.381 392.504 468.213 390.56 467.961 387.248H472.677C473.001 388.58 474.333 389.3 476.349 389.3C478.473 389.3 479.949 388.364 479.949 387.104C479.949 386.024 479.337 385.484 476.817 384.98L473.685 384.368C470.085 383.684 468.321 381.92 468.321 379.148C468.321 375.656 471.381 373.496 476.277 373.496C481.101 373.496 484.017 375.404 484.161 378.716H479.625C479.409 377.42 478.185 376.7 476.277 376.7C474.405 376.7 472.929 377.456 472.929 378.86C472.929 380.048 473.685 380.552 475.953 380.984L479.157 381.596C482.865 382.28 484.737 383.972 484.737 386.672C484.737 390.272 481.461 392.504 476.313 392.504Z" fill="#0D0D0D"/>
</g>
<g opacity="0.25">
<rect x="529" y="321" width="24" height="24" rx="12" fill="#E60000"/>
<circle cx="541" cy="333" r="8" fill="white"/>
</g>
<path opacity="0.25" d="M522.5 328C239.5 267.5 274 21.9998 1 3.5" stroke="#8C00FF" stroke-width="6" stroke-dasharray="32 32"/>
</svg>
