<svg width="63" height="55" viewBox="0 0 63 55" fill="none" xmlns="http://www.w3.org/2000/svg">
<g filter="url(#filter0_f_2517_70)">
<path d="M50.5 42H54.75V46.25H8V42H12.25V10.125C12.25 9.56141 12.4739 9.02091 12.8724 8.6224C13.2709 8.22388 13.8114 8 14.375 8H35.625C36.1886 8 36.7291 8.22388 37.1276 8.6224C37.5261 9.02091 37.75 9.56141 37.75 10.125V42H46.25V25H42V20.75H48.375C48.9386 20.75 49.4791 20.9739 49.8776 21.3724C50.2761 21.7709 50.5 22.3114 50.5 22.875V42ZM16.5 12.25V42H33.5V12.25H16.5ZM20.75 25H29.25V29.25H20.75V25ZM20.75 16.5H29.25V20.75H20.75V16.5Z" fill="#FC78CE"/>
</g>
<path d="M50.5 42H54.75V46.25H8V42H12.25V10.125C12.25 9.56141 12.4739 9.02091 12.8724 8.6224C13.2709 8.22388 13.8114 8 14.375 8H35.625C36.1886 8 36.7291 8.22388 37.1276 8.6224C37.5261 9.02091 37.75 9.56141 37.75 10.125V42H46.25V25H42V20.75H48.375C48.9386 20.75 49.4791 20.9739 49.8776 21.3724C50.2761 21.7709 50.5 22.3114 50.5 22.875V42ZM16.5 12.25V42H33.5V12.25H16.5ZM20.75 25H29.25V29.25H20.75V25ZM20.75 16.5H29.25V20.75H20.75V16.5Z" fill="#FC78CE"/>
<defs>
<filter id="filter0_f_2517_70" x="-2.125" y="-6.375" width="67" height="67" filterUnits="userSpaceOnUse" color-interpolation-filters="sRGB">
<feFlood flood-opacity="0" result="BackgroundImageFix"/>
<feBlend mode="normal" in="SourceGraphic" in2="BackgroundImageFix" result="shape"/>
<feGaussianBlur stdDeviation="4" result="effect1_foregroundBlur_2517_70"/>
</filter>
</defs>
</svg>
