<svg width="40" height="38" viewBox="0 0 40 38" fill="none" xmlns="http://www.w3.org/2000/svg">
<path d="M39.431 30.9282L24.1538 2.48279C23.7493 1.73156 23.152 1.10447 22.4246 0.667537C21.6973 0.230605 20.8669 0 20.0208 0C19.1747 0 18.3443 0.230605 17.617 0.667537C16.8896 1.10447 16.2923 1.73156 15.8878 2.48279L0.594888 30.9282C0.194614 31.6545 -0.0103583 32.4742 0.000402914 33.3055C0.0111642 34.1368 0.237283 34.9508 0.65622 35.6662C1.07516 36.3817 1.67228 36.9737 2.38807 37.3831C3.10386 37.7926 3.91331 38.0052 4.73574 37.9999H35.2902C36.1059 38.0007 36.9077 37.787 37.6171 37.38C38.3265 36.973 38.9191 36.3866 39.3367 35.6783C39.7542 34.9699 39.9825 34.164 39.999 33.3396C40.0156 32.5152 39.8198 31.7006 39.431 30.9758V30.9282ZM17.6759 10.6327C17.6759 10.0019 17.9238 9.39697 18.365 8.95093C18.8062 8.5049 19.4047 8.25432 20.0286 8.25432C20.6526 8.25432 21.2511 8.5049 21.6923 8.95093C22.1335 9.39697 22.3814 10.0019 22.3814 10.6327V21.5574C22.3814 22.1882 22.1335 22.7931 21.6923 23.2392C21.2511 23.6852 20.6526 23.9358 20.0286 23.9358C19.4047 23.9358 18.8062 23.6852 18.365 23.2392C17.9238 22.7931 17.6759 22.1882 17.6759 21.5574V10.6327ZM20.0914 32.054C19.5578 32.054 19.0362 31.894 18.5926 31.5943C18.1489 31.2947 17.8031 30.8687 17.5989 30.3704C17.3947 29.8721 17.3413 29.3237 17.4454 28.7947C17.5495 28.2657 17.8064 27.7797 18.1837 27.3983C18.561 27.0169 19.0417 26.7572 19.5651 26.6519C20.0884 26.5467 20.6308 26.6007 21.1238 26.8071C21.6168 27.0136 22.0381 27.3631 22.3345 27.8116C22.631 28.2601 22.7892 28.7874 22.7892 29.3267C22.7892 30.0501 22.505 30.7437 21.999 31.2552C21.4931 31.7666 20.8069 32.054 20.0914 32.054Z" fill="#EFEAE4"/>
</svg>
