<svg width="54" height="54" viewBox="0 0 54 54" fill="none" xmlns="http://www.w3.org/2000/svg">
<g filter="url(#filter0_f_2601_67)">
<path d="M42.669 16.412C40.852 13.693 38.3615 11.4911 35.4403 10.0208C32.5191 8.55063 29.2669 7.86226 26.0005 8.02284C22.7342 8.18341 19.5651 9.18744 16.8022 10.9371C14.0393 12.6867 11.7768 15.1223 10.2352 18.0065C8.69363 20.8906 7.92549 24.1249 8.00569 27.3943C8.0859 30.6636 9.0117 33.8563 10.6929 36.6614C12.374 39.4665 14.7532 41.7882 17.5986 43.4003C20.444 45.0124 23.6584 45.8598 26.9287 45.86C27.5563 45.86 28.1582 45.6107 28.6019 45.167C29.0457 44.7232 29.295 44.1213 29.295 43.4938C29.295 42.8662 29.0457 42.2643 28.6019 41.8206C28.1582 41.3768 27.5563 41.1275 26.9287 41.1275C24.1207 41.1275 21.3758 40.2948 19.041 38.7348C16.7063 37.1748 14.8865 34.9574 13.812 32.3632C12.7374 29.7689 12.4562 26.9143 13.004 24.1602C13.5518 21.4062 14.904 18.8764 16.8896 16.8909C18.8751 14.9053 21.4049 13.5531 24.1589 13.0053C26.913 12.4575 29.7676 12.7387 32.3619 13.8132C34.9561 14.8878 37.1735 16.7075 38.7335 19.0423C40.2936 21.3771 41.1262 24.122 41.1262 26.93C41.1262 27.5576 41.3755 28.1594 41.8193 28.6032C42.2631 29.047 42.8649 29.2963 43.4925 29.2963C44.1201 29.2963 44.7219 29.047 45.1657 28.6032C45.6094 28.1594 45.8587 27.5576 45.8587 26.93C45.8591 23.1857 44.7491 19.5254 42.669 16.412Z" fill="#FC78CE"/>
<path d="M38.758 35.417L35.6985 32.3574C35.4802 32.1314 35.2191 31.9511 34.9304 31.8271C34.6417 31.7031 34.3312 31.6378 34.017 31.6351C33.7028 31.6324 33.3912 31.6923 33.1004 31.8112C32.8096 31.9302 32.5454 32.1059 32.3232 32.3281C32.1011 32.5503 31.9254 32.8145 31.8064 33.1053C31.6874 33.3961 31.6275 33.7076 31.6303 34.0218C31.633 34.336 31.6983 34.6465 31.8223 34.9352C31.9463 35.2239 32.1266 35.485 32.3526 35.7033L35.4121 38.7629L32.3526 41.8224C32.1266 42.0407 31.9463 42.3018 31.8223 42.5905C31.6983 42.8792 31.633 43.1897 31.6303 43.5039C31.6275 43.8181 31.6874 44.1297 31.8064 44.4205C31.9254 44.7113 32.1011 44.9755 32.3232 45.1976C32.5454 45.4198 32.8096 45.5955 33.1004 45.7145C33.3912 45.8335 33.7028 45.8933 34.017 45.8906C34.3312 45.8879 34.6417 45.8226 34.9304 45.6986C35.2191 45.5746 35.4802 45.3943 35.6985 45.1683L38.758 42.1087L41.8176 45.1683C42.2639 45.5993 42.8616 45.8378 43.482 45.8324C44.1024 45.8271 44.6959 45.5782 45.1346 45.1395C45.5734 44.7008 45.8222 44.1073 45.8276 43.4868C45.833 42.8664 45.5945 42.2687 45.1635 41.8224L42.1039 38.7629L45.1635 35.7033C45.5945 35.257 45.833 34.6593 45.8276 34.0389C45.8222 33.4184 45.5734 32.825 45.1346 32.3862C44.6959 31.9475 44.1024 31.6987 43.482 31.6933C42.8616 31.6879 42.2639 31.9264 41.8176 32.3574L38.758 35.417ZM32.3526 20.5262L24.5605 28.3182L21.5009 25.2587L21.2785 25.0623C20.8029 24.6945 20.2052 24.5216 19.6067 24.5786C19.0082 24.6356 18.4539 24.9183 18.0563 25.3692C17.6587 25.8201 17.4476 26.4055 17.4659 27.0064C17.4843 27.6073 17.7307 28.1787 18.1551 28.6045L22.8876 33.337L23.11 33.5334C23.5653 33.8866 24.1338 34.0615 24.7088 34.0254C25.2839 33.9892 25.826 33.7445 26.2334 33.337L35.6985 23.872L35.8948 23.6496C36.2626 23.174 36.4355 22.5763 36.3785 21.9778C36.3215 21.3793 36.0388 20.825 35.5879 20.4274C35.137 20.0298 34.5516 19.8187 33.9507 19.837C33.3498 19.8554 32.7784 20.1018 32.3526 20.5262Z" fill="#FC78CE"/>
</g>
<path d="M42.669 16.412C40.852 13.693 38.3615 11.4911 35.4403 10.0208C32.5191 8.55063 29.2669 7.86226 26.0005 8.02284C22.7342 8.18341 19.5651 9.18744 16.8022 10.9371C14.0393 12.6867 11.7768 15.1223 10.2352 18.0065C8.69363 20.8906 7.92549 24.1249 8.00569 27.3943C8.0859 30.6636 9.0117 33.8563 10.6929 36.6614C12.374 39.4665 14.7532 41.7882 17.5986 43.4003C20.444 45.0124 23.6584 45.8598 26.9287 45.86C27.5563 45.86 28.1582 45.6107 28.6019 45.167C29.0457 44.7232 29.295 44.1213 29.295 43.4938C29.295 42.8662 29.0457 42.2643 28.6019 41.8206C28.1582 41.3768 27.5563 41.1275 26.9287 41.1275C24.1207 41.1275 21.3758 40.2948 19.041 38.7348C16.7063 37.1748 14.8865 34.9574 13.812 32.3632C12.7374 29.7689 12.4562 26.9143 13.004 24.1602C13.5518 21.4062 14.904 18.8764 16.8896 16.8909C18.8751 14.9053 21.4049 13.5531 24.1589 13.0053C26.913 12.4575 29.7676 12.7387 32.3619 13.8132C34.9561 14.8878 37.1735 16.7075 38.7335 19.0423C40.2936 21.3771 41.1262 24.122 41.1262 26.93C41.1262 27.5576 41.3755 28.1594 41.8193 28.6032C42.2631 29.047 42.8649 29.2963 43.4925 29.2963C44.1201 29.2963 44.7219 29.047 45.1657 28.6032C45.6094 28.1594 45.8587 27.5576 45.8587 26.93C45.8591 23.1857 44.7491 19.5254 42.669 16.412Z" fill="#FC78CE"/>
<path d="M38.758 35.417L35.6985 32.3574C35.4802 32.1314 35.2191 31.9511 34.9304 31.8271C34.6417 31.7031 34.3312 31.6378 34.017 31.6351C33.7028 31.6324 33.3912 31.6923 33.1004 31.8112C32.8096 31.9302 32.5454 32.1059 32.3232 32.3281C32.1011 32.5503 31.9254 32.8145 31.8064 33.1053C31.6874 33.3961 31.6275 33.7076 31.6303 34.0218C31.633 34.336 31.6983 34.6465 31.8223 34.9352C31.9463 35.2239 32.1266 35.485 32.3526 35.7033L35.4121 38.7629L32.3526 41.8224C32.1266 42.0407 31.9463 42.3018 31.8223 42.5905C31.6983 42.8792 31.633 43.1897 31.6303 43.5039C31.6275 43.8181 31.6874 44.1297 31.8064 44.4205C31.9254 44.7113 32.1011 44.9755 32.3232 45.1976C32.5454 45.4198 32.8096 45.5955 33.1004 45.7145C33.3912 45.8335 33.7028 45.8933 34.017 45.8906C34.3312 45.8879 34.6417 45.8226 34.9304 45.6986C35.2191 45.5746 35.4802 45.3943 35.6985 45.1683L38.758 42.1087L41.8176 45.1683C42.2639 45.5993 42.8616 45.8378 43.482 45.8324C44.1024 45.8271 44.6959 45.5782 45.1346 45.1395C45.5734 44.7008 45.8222 44.1073 45.8276 43.4868C45.833 42.8664 45.5945 42.2687 45.1635 41.8224L42.1039 38.7629L45.1635 35.7033C45.5945 35.257 45.833 34.6593 45.8276 34.0389C45.8222 33.4184 45.5734 32.825 45.1346 32.3862C44.6959 31.9475 44.1024 31.6987 43.482 31.6933C42.8616 31.6879 42.2639 31.9264 41.8176 32.3574L38.758 35.417ZM32.3526 20.5262L24.5605 28.3182L21.5009 25.2587L21.2785 25.0623C20.8029 24.6945 20.2052 24.5216 19.6067 24.5786C19.0082 24.6356 18.4539 24.9183 18.0563 25.3692C17.6587 25.8201 17.4476 26.4055 17.4659 27.0064C17.4843 27.6073 17.7307 28.1787 18.1551 28.6045L22.8876 33.337L23.11 33.5334C23.5653 33.8866 24.1338 34.0615 24.7088 34.0254C25.2839 33.9892 25.826 33.7445 26.2334 33.337L35.6985 23.872L35.8948 23.6496C36.2626 23.174 36.4355 22.5763 36.3785 21.9778C36.3215 21.3793 36.0388 20.825 35.5879 20.4274C35.137 20.0298 34.5516 19.8187 33.9507 19.837C33.3498 19.8554 32.7784 20.1018 32.3526 20.5262Z" fill="#FC78CE"/>
<defs>
<filter id="filter0_f_2601_67" x="0" y="0" width="53.8594" height="53.8906" filterUnits="userSpaceOnUse" color-interpolation-filters="sRGB">
<feFlood flood-opacity="0" result="BackgroundImageFix"/>
<feBlend mode="normal" in="SourceGraphic" in2="BackgroundImageFix" result="shape"/>
<feGaussianBlur stdDeviation="4" result="effect1_foregroundBlur_2601_67"/>
</filter>
</defs>
</svg>
