<svg width="59" height="59" viewBox="0 0 59 59" fill="none" xmlns="http://www.w3.org/2000/svg">
<g filter="url(#filter0_f_2716_65)">
<path fill-rule="evenodd" clip-rule="evenodd" d="M46.7 27.35C46.7 26.1632 45.7368 25.2 44.55 25.2H14.45C13.2632 25.2 12.3 26.1632 12.3 27.35V44.55C12.3 45.7368 13.2632 46.7 14.45 46.7H18.75C19.9368 46.7 20.9 45.7368 20.9 44.55C20.9 43.3632 21.8632 42.4 23.05 42.4H35.95C37.1368 42.4 38.1 43.3632 38.1 44.55C38.1 45.7368 39.0632 46.7 40.25 46.7H44.55C45.7368 46.7 46.7 45.7368 46.7 44.55V27.35ZM51 25.2V46.7C51 49.0758 49.0758 51 46.7 51H38.1C35.7243 51 33.8 49.0758 33.8 46.7H25.2C25.2 49.0758 23.2758 51 20.9 51H12.3C9.92425 51 8 49.0758 8 46.7V25.2C8 22.8243 9.92425 20.9 12.3 20.9H27.35V16.6C27.35 14.2243 29.2743 12.3 31.65 12.3H35.95C37.1368 12.3 38.1 11.3368 38.1 10.15V8H42.4V12.3C42.4 14.6758 40.4758 16.6 38.1 16.6H33.8C32.6132 16.6 31.65 17.5632 31.65 18.75V20.9H46.7C49.0758 20.9 51 22.8243 51 25.2ZM40.25 29.5H35.95C34.7632 29.5 33.8 30.4632 33.8 31.65V33.8V35.95C33.8 37.1368 34.7632 38.1 35.95 38.1H40.25C41.4368 38.1 42.4 37.1368 42.4 35.95V33.8V31.65C42.4 30.4632 41.4368 29.5 40.25 29.5ZM25.2 31.65V33.8V35.95C25.2 37.1368 24.2368 38.1 23.05 38.1H18.75C17.5632 38.1 16.6 37.1368 16.6 35.95V33.8V31.65C16.6 30.4632 17.5632 29.5 18.75 29.5H23.05C24.2368 29.5 25.2 30.4632 25.2 31.65Z" fill="#FC78CE"/>
</g>
<path fill-rule="evenodd" clip-rule="evenodd" d="M46.7 27.35C46.7 26.1632 45.7368 25.2 44.55 25.2H14.45C13.2632 25.2 12.3 26.1632 12.3 27.35V44.55C12.3 45.7368 13.2632 46.7 14.45 46.7H18.75C19.9368 46.7 20.9 45.7368 20.9 44.55C20.9 43.3632 21.8632 42.4 23.05 42.4H35.95C37.1368 42.4 38.1 43.3632 38.1 44.55C38.1 45.7368 39.0632 46.7 40.25 46.7H44.55C45.7368 46.7 46.7 45.7368 46.7 44.55V27.35ZM51 25.2V46.7C51 49.0758 49.0758 51 46.7 51H38.1C35.7243 51 33.8 49.0758 33.8 46.7H25.2C25.2 49.0758 23.2758 51 20.9 51H12.3C9.92425 51 8 49.0758 8 46.7V25.2C8 22.8243 9.92425 20.9 12.3 20.9H27.35V16.6C27.35 14.2243 29.2743 12.3 31.65 12.3H35.95C37.1368 12.3 38.1 11.3368 38.1 10.15V8H42.4V12.3C42.4 14.6758 40.4758 16.6 38.1 16.6H33.8C32.6132 16.6 31.65 17.5632 31.65 18.75V20.9H46.7C49.0758 20.9 51 22.8243 51 25.2ZM40.25 29.5H35.95C34.7632 29.5 33.8 30.4632 33.8 31.65V33.8V35.95C33.8 37.1368 34.7632 38.1 35.95 38.1H40.25C41.4368 38.1 42.4 37.1368 42.4 35.95V33.8V31.65C42.4 30.4632 41.4368 29.5 40.25 29.5ZM25.2 31.65V33.8V35.95C25.2 37.1368 24.2368 38.1 23.05 38.1H18.75C17.5632 38.1 16.6 37.1368 16.6 35.95V33.8V31.65C16.6 30.4632 17.5632 29.5 18.75 29.5H23.05C24.2368 29.5 25.2 30.4632 25.2 31.65Z" fill="#FC78CE"/>
<defs>
<filter id="filter0_f_2716_65" x="0" y="0" width="59" height="59" filterUnits="userSpaceOnUse" color-interpolation-filters="sRGB">
<feFlood flood-opacity="0" result="BackgroundImageFix"/>
<feBlend mode="normal" in="SourceGraphic" in2="BackgroundImageFix" result="shape"/>
<feGaussianBlur stdDeviation="4" result="effect1_foregroundBlur_2716_65"/>
</filter>
</defs>
</svg>
