<svg width="42" height="42" viewBox="0 0 42 42" fill="none" xmlns="http://www.w3.org/2000/svg">
<g clip-path="url(#clip0_2517_96)">
<g filter="url(#filter0_f_2517_96)">
<path d="M29.2268 3.70343L11.1344 21.7958C10.9564 21.9728 10.8224 22.1892 10.7435 22.4275L8.15888 30.1813C8.07799 30.4242 8.05597 30.6828 8.09463 30.9358C8.1333 31.1888 8.23153 31.4291 8.38125 31.6367C8.53096 31.8443 8.72787 32.0133 8.95574 32.1299C9.18361 32.2465 9.43592 32.3073 9.69188 32.3072C9.86533 32.3069 10.0376 32.2791 10.2023 32.2248L17.9562 29.6402C18.1941 29.5604 18.4103 29.4266 18.5879 29.2493L36.6803 11.1569C36.9831 10.8539 37.1532 10.4431 37.1532 10.0148C37.1532 9.58643 36.9831 9.17562 36.6803 8.87269L31.511 3.70343C31.2081 3.40059 30.7973 3.23047 30.3689 3.23047C29.9406 3.23047 29.5298 3.40059 29.2268 3.70343ZM16.5735 26.6953L12.2458 28.1379L13.6884 23.8102L30.3689 7.12968L33.254 10.0148L16.5735 26.6953ZM6.4611 35.538H33.9228C34.3512 35.538 34.7621 35.7082 35.065 36.0111C35.368 36.3141 35.5382 36.725 35.5382 37.1534C35.5382 37.5818 35.368 37.9927 35.065 38.2956C34.7621 38.5986 34.3512 38.7688 33.9228 38.7688H6.4611C6.03267 38.7688 5.62179 38.5986 5.31884 38.2956C5.0159 37.9927 4.8457 37.5818 4.8457 37.1534C4.8457 36.725 5.0159 36.3141 5.31884 36.0111C5.62179 35.7082 6.03267 35.538 6.4611 35.538Z" fill="#FC78CE"/>
</g>
<path d="M29.2268 3.70343L11.1344 21.7958C10.9564 21.9728 10.8224 22.1892 10.7435 22.4275L8.15888 30.1813C8.07799 30.4242 8.05597 30.6828 8.09463 30.9358C8.1333 31.1888 8.23153 31.4291 8.38125 31.6367C8.53096 31.8443 8.72787 32.0133 8.95574 32.1299C9.18361 32.2465 9.43592 32.3073 9.69188 32.3072C9.86533 32.3069 10.0376 32.2791 10.2023 32.2248L17.9562 29.6402C18.1941 29.5604 18.4103 29.4266 18.5879 29.2493L36.6803 11.1569C36.9831 10.8539 37.1532 10.4431 37.1532 10.0148C37.1532 9.58643 36.9831 9.17562 36.6803 8.87269L31.511 3.70343C31.2081 3.40059 30.7973 3.23047 30.3689 3.23047C29.9406 3.23047 29.5298 3.40059 29.2268 3.70343ZM16.5735 26.6953L12.2458 28.1379L13.6884 23.8102L30.3689 7.12968L33.254 10.0148L16.5735 26.6953ZM6.4611 35.538H33.9228C34.3512 35.538 34.7621 35.7082 35.065 36.0111C35.368 36.3141 35.5382 36.725 35.5382 37.1534C35.5382 37.5818 35.368 37.9927 35.065 38.2956C34.7621 38.5986 34.3512 38.7688 33.9228 38.7688H6.4611C6.03267 38.7688 5.62179 38.5986 5.31884 38.2956C5.0159 37.9927 4.8457 37.5818 4.8457 37.1534C4.8457 36.725 5.0159 36.3141 5.31884 36.0111C5.62179 35.7082 6.03267 35.538 6.4611 35.538Z" fill="#FC78CE"/>
</g>
<defs>
<filter id="filter0_f_2517_96" x="-1.11883" y="-2.73406" width="44.2357" height="47.4671" filterUnits="userSpaceOnUse" color-interpolation-filters="sRGB">
<feFlood flood-opacity="0" result="BackgroundImageFix"/>
<feBlend mode="normal" in="SourceGraphic" in2="BackgroundImageFix" result="shape"/>
<feGaussianBlur stdDeviation="2.98226" result="effect1_foregroundBlur_2517_96"/>
</filter>
<clipPath id="clip0_2517_96">
<rect width="42" height="42" fill="white"/>
</clipPath>
</defs>
</svg>
