<svg width="72" height="72" viewBox="0 0 72 72" fill="none" xmlns="http://www.w3.org/2000/svg">
<path d="M17.252 26.627L36.002 36.002M17.252 26.627V45.377L36.002 54.752M17.252 26.627L36.002 17.252L54.752 26.627M36.002 36.002L54.752 26.627M36.002 36.002V54.752M36.002 54.752L54.752 45.377V26.627M21.002 6.00195H13.502C9.35982 6.00195 6.00195 9.35982 6.00195 13.502V21.002M21.002 66.0019H13.502C9.35982 66.0019 6.00195 62.6442 6.00195 58.5019V51.002M51.002 6.00195H58.5019C62.6442 6.00195 66.0019 9.35982 66.0019 13.502V21.002M51.002 66.0019H58.5019C62.6442 66.0019 66.0019 62.6442 66.0019 58.5019V51.002" stroke="#EFEAE4" stroke-width="4" stroke-linecap="round" stroke-linejoin="round"/>
</svg>
