<svg width="270" height="180" viewBox="0 0 270 180" fill="none" xmlns="http://www.w3.org/2000/svg">
<path d="M-0.000382423 139.008V120.576H18.4316V139.008H-0.000382423ZM-0.000382423 158.976V140.544H18.4316V158.976H-0.000382423ZM-0.000382423 160.512H18.4316L-0.000382423 179.2V160.512ZM60.1596 139.008V120.576H78.8476V139.008H60.1596ZM60.1596 160.512H78.8476L60.1596 179.2V160.512ZM-0.000382423 78.848V60.16H18.4316V78.848H-0.000382423ZM-0.000382423 118.784V100.352H18.4316V118.784H-0.000382423ZM60.1596 140.544H78.8476L60.1596 158.976V140.544ZM-0.000382423 58.624V40.192H18.4316V58.624H-0.000382423ZM-0.000382423 80.384H18.4316L-0.000382423 98.816V80.384ZM20.2236 98.816V80.384H38.6556V98.816H20.2236ZM40.1916 80.384H58.6236L40.1916 98.816V80.384ZM-0.000382423 38.656V20.224H18.4316V38.656H-0.000382423ZM60.1596 78.848V60.16H78.8476V78.848H60.1596ZM60.1596 118.784V100.352H78.8476V118.784H60.1596ZM60.1596 98.816V80.384H78.8476V98.816H60.1596ZM18.4316 0V18.432H-0.000382423L18.4316 0ZM20.2236 18.432V0H38.6556V18.432H20.2236ZM40.1916 18.432V0H58.6236V18.432H40.1916ZM60.1596 58.624V40.192H78.8476V58.624H60.1596ZM60.1596 38.656V20.224H78.8476V38.656H60.1596ZM60.1596 0H78.8476L60.1596 18.432V0ZM190.5 158.976V140.544H208.932V158.976H190.5ZM190.5 139.008V120.576H208.932V139.008H190.5ZM190.5 160.512H208.932L190.5 179.2V160.512ZM210.724 179.2V160.512H229.156V179.2H210.724ZM230.692 179.2V160.512H249.124V179.2H230.692ZM250.66 160.512H269.348L250.66 179.2V160.512ZM190.5 78.848V60.16H208.932V78.848H190.5ZM190.5 118.784V100.352H208.932V118.784H190.5ZM190.5 38.656V20.224H208.932V38.656H190.5ZM190.5 58.624V40.192H208.932V58.624H190.5ZM190.5 80.384H208.932L190.5 98.816V80.384ZM208.932 0V18.432H190.5L208.932 0ZM210.724 18.432V0H229.156V18.432H210.724ZM230.692 18.432V0H249.124V18.432H230.692ZM250.66 0H269.348L250.66 18.432V0Z" fill="white"/>
<path d="M95.2496 158.976V140.544H113.682V158.976H95.2496ZM95.2496 139.008V120.576H113.682V139.008H95.2496ZM95.2496 160.512H113.682L95.2496 179.2V160.512ZM155.41 179.2V160.512H174.098V179.2H155.41ZM95.2496 118.784V100.352H113.682V118.784H95.2496ZM155.41 158.976V140.544H174.098V158.976H155.41ZM155.41 139.008V120.576H174.098V139.008H155.41ZM95.2496 78.848V60.16H113.682V78.848H95.2496ZM95.2496 58.624V40.192H113.682V58.624H95.2496ZM95.2496 80.384H113.682L95.2496 98.816V80.384ZM115.474 98.816V80.384H133.906V98.816H115.474ZM135.442 78.848L153.874 60.16V78.848H135.442ZM135.442 98.816V80.384H153.874L135.442 98.816ZM155.41 118.784V100.352H174.098V118.784H155.41ZM155.41 98.816L174.098 80.384V98.816H155.41ZM113.682 0V18.432H95.2496L113.682 0ZM95.2496 38.656V20.224H113.682V38.656H95.2496ZM115.474 18.432V0H133.906V18.432H115.474ZM135.442 18.432V0H153.874V18.432H135.442ZM155.41 38.656V20.224H174.098V38.656H155.41ZM155.41 58.624V40.192H174.098V58.624H155.41ZM155.41 0H174.098L155.41 18.432V0Z" fill="#FF0000"/>
</svg>
