<svg width="465" height="45" viewBox="0 0 465 45" fill="none" xmlns="http://www.w3.org/2000/svg">
<path d="M2.048 45L6.656 40.328V45H2.048ZM7.104 45V40.328H11.712V45H7.104ZM12.096 45V40.328H16.704V45H12.096ZM17.088 39.944V35.336H21.76V39.944H17.088ZM17.088 40.328H21.76L17.088 45V40.328ZM2.048 19.912V15.24H6.656V19.912H2.048ZM2.048 14.856V10.248H6.656V14.856H2.048ZM2.048 20.296H6.656L2.048 24.904V20.296ZM7.104 24.904V20.296H11.712V24.904H7.104ZM12.096 24.904V20.296H16.704V24.904H12.096ZM17.088 24.904V20.296H21.76V24.904H17.088ZM17.088 34.952V30.344H21.76V34.952H17.088ZM17.088 29.896V25.288H21.76V29.896H17.088ZM6.656 0.199997V4.808H2.048L6.656 0.199997ZM2.048 9.864V5.256H6.656V9.864H2.048ZM7.104 4.808V0.199997H11.712V4.808H7.104ZM12.096 4.808V0.199997H16.704V4.808H12.096ZM17.088 0.199997H21.76L17.088 4.808V0.199997ZM25.8605 39.944V35.336H30.4685V39.944H25.8605ZM25.8605 34.952V30.344H30.4685V34.952H25.8605ZM25.8605 40.328H30.4685L25.8605 45V40.328ZM30.9165 45V40.328H35.5245V45H30.9165ZM35.9085 45V40.328H40.5165V45H35.9085ZM40.9005 40.328H45.5725L40.9005 45V40.328ZM25.8605 19.912V15.24H30.4685V19.912H25.8605ZM25.8605 29.896V25.288H30.4685V29.896H25.8605ZM25.8605 14.856V10.248H30.4685V14.856H25.8605ZM25.8605 20.296H30.4685L25.8605 24.904V20.296ZM30.9165 24.904V20.296H35.5245V24.904H30.9165ZM35.9085 20.296H40.5165L35.9085 24.904V20.296ZM30.4685 0.199997V4.808H25.8605L30.4685 0.199997ZM25.8605 9.864V5.256H30.4685V9.864H25.8605ZM30.9165 4.808V0.199997H35.5245V4.808H30.9165ZM35.9085 4.808V0.199997H40.5165V4.808H35.9085ZM40.9005 0.199997H45.5725L40.9005 4.808V0.199997ZM49.673 45V40.328H54.281V45H49.673ZM49.673 39.944V35.336H54.281V39.944H49.673ZM49.673 34.952V30.344H54.281V34.952H49.673ZM54.729 45V40.328H59.337V45H54.729ZM59.721 45V40.328H64.329V45H59.721ZM64.713 39.944V35.336H69.385V39.944H64.713ZM64.713 34.952V30.344H69.385V34.952H64.713ZM64.713 40.328H69.385L64.713 45V40.328ZM49.673 19.912V15.24H54.281V19.912H49.673ZM49.673 29.896V25.288H54.281V29.896H49.673ZM49.673 9.864V5.256H54.281V9.864H49.673ZM49.673 14.856V10.248H54.281V14.856H49.673ZM49.673 20.296H54.281L49.673 24.904V20.296ZM64.713 19.912V15.24H69.385V19.912H64.713ZM64.713 24.904V20.296H69.385V24.904H64.713ZM64.713 29.896V25.288H69.385V29.896H64.713ZM54.281 0.199997V4.808H49.673L54.281 0.199997ZM54.729 4.808V0.199997H59.337V4.808H54.729ZM59.721 4.808V0.199997H64.329V4.808H59.721ZM64.713 9.864V5.256H69.385V9.864H64.713ZM64.713 14.856V10.248H69.385V14.856H64.713ZM64.713 4.808V0.199997H69.385V4.808H64.713ZM73.4855 39.944V35.336H78.0935V39.944H73.4855ZM73.4855 34.952V30.344H78.0935V34.952H73.4855ZM73.4855 40.328H78.0935L73.4855 45V40.328ZM78.5415 45V40.328H83.1495V45H78.5415ZM83.5335 45V40.328H88.1415V45H83.5335ZM88.5255 39.944V35.336H93.1335V39.944H88.5255ZM88.5255 40.328H93.1335L88.5255 45V40.328ZM73.4855 19.912V15.24H78.0935V19.912H73.4855ZM73.4855 29.896V25.288H78.0935V29.896H73.4855ZM73.4855 20.296H78.0935L73.4855 24.904V20.296ZM88.5255 19.912V15.24H93.1335V19.912H88.5255ZM88.5255 24.904V20.296H93.1335V24.904H88.5255ZM88.5255 34.952V30.344H93.1335V34.952H88.5255ZM88.5255 29.896V25.288H93.1335V29.896H88.5255ZM78.0935 0.199997V4.808H73.4855L78.0935 0.199997ZM73.4855 9.864V5.256H78.0935V9.864H73.4855ZM73.4855 14.856V10.248H78.0935V14.856H73.4855ZM93.1335 0.199997V4.808H88.5255L93.1335 0.199997ZM88.5255 9.864V5.256H93.1335V9.864H88.5255ZM88.5255 14.856V10.248H93.1335V14.856H88.5255ZM97.298 39.944V35.336H101.906V39.944H97.298ZM97.298 34.952V30.344H101.906V34.952H97.298ZM97.298 40.328H101.906L97.298 45V40.328ZM102.354 45V40.328H106.962V45H102.354ZM107.346 45V40.328H111.954V45H107.346ZM112.402 40.328H117.01L112.402 45V40.328ZM97.298 19.912V15.24H101.906V19.912H97.298ZM97.298 29.896V25.288H101.906V29.896H97.298ZM97.298 9.864V5.256H101.906V9.864H97.298ZM97.298 14.856V10.248H101.906V14.856H97.298ZM97.298 20.296H101.906L97.298 24.904V20.296ZM101.906 0.199997V4.808H97.298L101.906 0.199997Z" fill="white"/>
<path d="M137.048 45L141.656 40.328V45H137.048ZM142.04 45V40.328H146.712V45H142.04ZM147.096 45V40.328H151.704V45H147.096ZM147.096 39.944V35.336H151.704V39.944H147.096ZM147.096 34.952V30.344H151.704V34.952H147.096ZM152.088 45V40.328H156.696V45H152.088ZM157.144 40.328H161.752L157.144 45V40.328ZM147.096 19.912V15.24H151.704V19.912H147.096ZM147.096 29.896V25.288H151.704V29.896H147.096ZM147.096 24.904V20.296H151.704L147.096 24.904ZM141.656 0.199997V4.808H137.048L141.656 0.199997ZM142.04 4.808V0.199997H146.712V4.808H142.04ZM151.704 5.256V9.864H147.096V5.256H151.704ZM147.096 4.808V0.199997H151.704V4.808H147.096ZM147.096 14.856V10.248H151.704V14.856H147.096ZM152.088 4.808V0.199997H156.696V4.808H152.088ZM157.144 0.199997H161.752L157.144 4.808V0.199997ZM165.861 39.944V35.336H170.469V39.944H165.861ZM165.861 34.952V30.344H170.469V34.952H165.861ZM165.861 40.328H170.469L165.861 45V40.328ZM180.901 39.944V35.336H185.573V39.944H180.901ZM180.901 40.328H185.573L180.901 45V40.328ZM165.861 19.912V15.24H170.469V19.912H165.861ZM165.861 29.896V25.288H170.469V29.896H165.861ZM165.861 20.296H170.469L165.861 24.904V20.296ZM180.901 19.912V15.24H185.573V19.912H180.901ZM180.901 24.904V20.296H185.573V24.904H180.901ZM180.901 34.952V30.344H185.573V34.952H180.901ZM180.901 29.896V25.288H185.573V29.896H180.901ZM170.469 0.199997V4.808H165.861L170.469 0.199997ZM165.861 9.864V5.256H170.469V9.864H165.861ZM165.861 14.856V10.248H170.469V14.856H165.861ZM170.917 4.808V0.199997H175.525V4.808H170.917ZM175.909 4.808V0.199997H180.517V4.808H175.909ZM180.901 9.864V5.256H185.573V9.864H180.901ZM180.901 14.856V10.248H185.573V14.856H180.901ZM180.901 0.199997H185.573L180.901 4.808V0.199997ZM199.721 34.952V30.344H204.329V34.952H199.721ZM199.721 39.944V35.336H204.329V39.944H199.721ZM199.721 40.328H204.329L199.721 45V40.328ZM199.721 19.912V15.24H204.329V19.912H199.721ZM204.329 25.288V29.896H199.721V25.288H204.329ZM194.729 4.808V0.199997H199.337V4.808H194.729ZM204.329 5.256V9.864H199.721V5.256H204.329ZM199.721 14.856V10.248H204.329V14.856H199.721ZM199.721 24.904V20.296H204.329L199.721 24.904ZM194.281 0.199997V4.808H189.673L194.281 0.199997ZM199.721 4.808V0.199997H204.329V4.808H199.721ZM204.713 4.808V0.199997H209.385V4.808H204.713ZM209.769 0.199997H214.377L209.769 4.808V0.199997ZM218.486 39.944V35.336H223.094V39.944H218.486ZM218.486 34.952V30.344H223.094V34.952H218.486ZM218.486 40.328H223.094L218.486 45V40.328ZM223.542 45V40.328H228.15V45H223.542ZM228.534 45V40.328H233.142V45H228.534ZM233.526 40.328H238.198L233.526 45V40.328ZM218.486 19.912V15.24H223.094V19.912H218.486ZM218.486 29.896V25.288H223.094V29.896H218.486ZM218.486 14.856V10.248H223.094V14.856H218.486ZM218.486 20.296H223.094L218.486 24.904V20.296ZM223.542 24.904V20.296H228.15V24.904H223.542ZM228.534 20.296H233.142L228.534 24.904V20.296ZM223.094 0.199997V4.808H218.486L223.094 0.199997ZM218.486 9.864V5.256H223.094V9.864H218.486ZM223.542 4.808V0.199997H228.15V4.808H223.542ZM228.534 4.808V0.199997H233.142V4.808H228.534ZM233.526 0.199997H238.198L233.526 4.808V0.199997ZM242.298 39.944V35.336H246.906V39.944H242.298ZM242.298 34.952V30.344H246.906V34.952H242.298ZM242.298 40.328H246.906L242.298 45V40.328ZM257.338 45V40.328H262.01V45H257.338ZM242.298 29.896V25.288H246.906V29.896H242.298ZM257.338 39.944V35.336H262.01V39.944H257.338ZM257.338 34.952V30.344H262.01V34.952H257.338ZM242.298 19.912V15.24H246.906V19.912H242.298ZM242.298 14.856V10.248H246.906V14.856H242.298ZM242.298 20.296H246.906L242.298 24.904V20.296ZM247.354 24.904V20.296H251.962V24.904H247.354ZM252.346 19.912L256.954 15.24V19.912H252.346ZM252.346 24.904V20.296H256.954L252.346 24.904ZM257.338 29.896V25.288H262.01V29.896H257.338ZM257.338 24.904L262.01 20.296V24.904H257.338ZM246.906 0.199997V4.808H242.298L246.906 0.199997ZM242.298 9.864V5.256H246.906V9.864H242.298ZM247.354 4.808V0.199997H251.962V4.808H247.354ZM252.346 4.808V0.199997H256.954V4.808H252.346ZM257.338 9.864V5.256H262.01V9.864H257.338ZM257.338 14.856V10.248H262.01V14.856H257.338ZM257.338 0.199997H262.01L257.338 4.808V0.199997ZM266.111 39.944V35.336H270.719V39.944H266.111ZM266.111 34.952V30.344H270.719V34.952H266.111ZM266.111 40.328H270.719L266.111 45V40.328ZM281.151 39.944V35.336H285.823V39.944H281.151ZM281.151 40.328H285.823L281.151 45V40.328ZM266.111 19.912V15.24H270.719V19.912H266.111ZM266.111 29.896V25.288H270.719V29.896H266.111ZM266.111 20.296H270.719L266.111 24.904V20.296ZM281.151 19.912V15.24H285.823V19.912H281.151ZM281.151 24.904V20.296H285.823V24.904H281.151ZM281.151 34.952V30.344H285.823V34.952H281.151ZM281.151 29.896V25.288H285.823V29.896H281.151ZM270.719 0.199997V4.808H266.111L270.719 0.199997ZM266.111 9.864V5.256H270.719V9.864H266.111ZM266.111 14.856V10.248H270.719V14.856H266.111ZM271.167 4.808V0.199997H275.775V4.808H271.167ZM276.159 4.808V0.199997H280.767V4.808H276.159ZM281.151 9.864V5.256H285.823V9.864H281.151ZM281.151 14.856V10.248H285.823V14.856H281.151ZM281.151 0.199997H285.823L281.151 4.808V0.199997ZM289.923 34.952V30.344H294.531V34.952H289.923ZM289.923 39.944V35.336H294.531V39.944H289.923ZM289.923 40.328H294.531L289.923 45V40.328ZM304.963 34.952V30.344H309.635V34.952H304.963ZM304.963 40.328H309.635L304.963 45V40.328ZM289.923 19.912V15.24H294.531V19.912H289.923ZM289.923 29.896V25.288H294.531V29.896H289.923ZM304.963 35.336H309.635L304.963 39.944V35.336ZM289.923 14.856V10.248H294.531V14.856H289.923ZM289.923 20.296H294.531L289.923 24.904V20.296ZM294.979 24.904V20.296H299.587V24.904H294.979ZM299.971 20.296H304.579L299.971 24.904V20.296ZM289.923 9.864V5.256H294.531V9.864H289.923ZM304.963 19.912V15.24H309.635V19.912H304.963ZM304.963 29.896V25.288H309.635V29.896H304.963ZM304.963 24.904V20.296H309.635V24.904H304.963ZM294.531 0.199997V4.808H289.923L294.531 0.199997ZM294.979 4.808V0.199997H299.587V4.808H294.979ZM299.971 4.808V0.199997H304.579V4.808H299.971ZM304.963 14.856V10.248H309.635V14.856H304.963ZM304.963 9.864V5.256H309.635V9.864H304.963ZM304.963 0.199997H309.635L304.963 4.808V0.199997ZM323.784 34.952V30.344H328.392V34.952H323.784ZM323.784 39.944V35.336H328.392V39.944H323.784ZM323.784 40.328H328.392L323.784 45V40.328ZM323.784 19.912V15.24H328.392V19.912H323.784ZM328.392 25.288V29.896H323.784V25.288H328.392ZM318.792 4.808V0.199997H323.4V4.808H318.792ZM328.392 5.256V9.864H323.784V5.256H328.392ZM323.784 14.856V10.248H328.392V14.856H323.784ZM323.784 24.904V20.296H328.392L323.784 24.904ZM318.344 0.199997V4.808H313.736L318.344 0.199997ZM323.784 4.808V0.199997H328.392V4.808H323.784ZM328.776 4.808V0.199997H333.448V4.808H328.776ZM333.832 0.199997H338.44L333.832 4.808V0.199997ZM342.548 45L347.156 40.328V45H342.548ZM347.54 45V40.328H352.212V45H347.54ZM352.596 45V40.328H357.204V45H352.596ZM352.596 39.944V35.336H357.204V39.944H352.596ZM352.596 34.952V30.344H357.204V34.952H352.596ZM357.588 45V40.328H362.196V45H357.588ZM362.644 40.328H367.252L362.644 45V40.328ZM352.596 19.912V15.24H357.204V19.912H352.596ZM352.596 29.896V25.288H357.204V29.896H352.596ZM352.596 24.904V20.296H357.204L352.596 24.904ZM347.156 0.199997V4.808H342.548L347.156 0.199997ZM347.54 4.808V0.199997H352.212V4.808H347.54ZM357.204 5.256V9.864H352.596V5.256H357.204ZM352.596 4.808V0.199997H357.204V4.808H352.596ZM352.596 14.856V10.248H357.204V14.856H352.596ZM357.588 4.808V0.199997H362.196V4.808H357.588ZM362.644 0.199997H367.252L362.644 4.808V0.199997ZM371.361 45V40.328H375.969V45H371.361ZM371.361 39.944V35.336H375.969V39.944H371.361ZM371.361 34.952V30.344H375.969V34.952H371.361ZM376.417 45V40.328H381.025V45H376.417ZM381.409 45V40.328H386.017V45H381.409ZM386.401 39.944V35.336H391.073V39.944H386.401ZM386.401 34.952V30.344H391.073V34.952H386.401ZM386.401 40.328H391.073L386.401 45V40.328ZM371.361 19.912V15.24H375.969V19.912H371.361ZM371.361 29.896V25.288H375.969V29.896H371.361ZM371.361 9.864V5.256H375.969V9.864H371.361ZM371.361 14.856V10.248H375.969V14.856H371.361ZM371.361 20.296H375.969L371.361 24.904V20.296ZM386.401 19.912V15.24H391.073V19.912H386.401ZM386.401 24.904V20.296H391.073V24.904H386.401ZM386.401 29.896V25.288H391.073V29.896H386.401ZM375.969 0.199997V4.808H371.361L375.969 0.199997ZM376.417 4.808V0.199997H381.025V4.808H376.417ZM381.409 4.808V0.199997H386.017V4.808H381.409ZM386.401 9.864V5.256H391.073V9.864H386.401ZM386.401 14.856V10.248H391.073V14.856H386.401ZM386.401 4.808V0.199997H391.073V4.808H386.401ZM395.173 39.944V35.336H399.781V39.944H395.173ZM395.173 34.952V30.344H399.781V34.952H395.173ZM395.173 40.328H399.781L395.173 45V40.328ZM410.213 39.944V35.336H414.885V39.944H410.213ZM410.213 40.328H414.885L410.213 45V40.328ZM395.173 19.912V15.24H399.781V19.912H395.173ZM395.173 29.896V25.288H399.781V29.896H395.173ZM395.173 20.296H399.781L395.173 24.904V20.296ZM410.213 19.912V15.24H414.885V19.912H410.213ZM410.213 24.904V20.296H414.885V24.904H410.213ZM410.213 34.952V30.344H414.885V34.952H410.213ZM410.213 29.896V25.288H414.885V29.896H410.213ZM399.781 0.199997V4.808H395.173L399.781 0.199997ZM395.173 9.864V5.256H399.781V9.864H395.173ZM395.173 14.856V10.248H399.781V14.856H395.173ZM400.229 4.808V0.199997H404.837V4.808H400.229ZM405.221 4.808V0.199997H409.829V4.808H405.221ZM410.213 9.864V5.256H414.885V9.864H410.213ZM410.213 14.856V10.248H414.885V14.856H410.213ZM410.213 0.199997H414.885L410.213 4.808V0.199997ZM418.986 34.952V30.344H423.594V34.952H418.986ZM418.986 39.944V35.336H423.594V39.944H418.986ZM418.986 40.328H423.594L418.986 45V40.328ZM434.026 34.952V30.344H438.698V34.952H434.026ZM434.026 40.328H438.698L434.026 45V40.328ZM418.986 19.912V15.24H423.594V19.912H418.986ZM418.986 29.896V25.288H423.594V29.896H418.986ZM434.026 35.336H438.698L434.026 39.944V35.336ZM418.986 14.856V10.248H423.594V14.856H418.986ZM418.986 20.296H423.594L418.986 24.904V20.296ZM424.042 24.904V20.296H428.65V24.904H424.042ZM429.034 20.296H433.642L429.034 24.904V20.296ZM418.986 9.864V5.256H423.594V9.864H418.986ZM434.026 19.912V15.24H438.698V19.912H434.026ZM434.026 29.896V25.288H438.698V29.896H434.026ZM434.026 24.904V20.296H438.698V24.904H434.026ZM423.594 0.199997V4.808H418.986L423.594 0.199997ZM424.042 4.808V0.199997H428.65V4.808H424.042ZM429.034 4.808V0.199997H433.642V4.808H429.034ZM434.026 14.856V10.248H438.698V14.856H434.026ZM434.026 9.864V5.256H438.698V9.864H434.026ZM434.026 0.199997H438.698L434.026 4.808V0.199997ZM442.798 39.944V35.336H447.406V39.944H442.798ZM442.798 34.952V30.344H447.406V34.952H442.798ZM442.798 40.328H447.406L442.798 45V40.328ZM447.854 45V40.328H452.462V45H447.854ZM452.846 45V40.328H457.454V45H452.846ZM457.902 40.328H462.51L457.902 45V40.328ZM442.798 19.912V15.24H447.406V19.912H442.798ZM442.798 29.896V25.288H447.406V29.896H442.798ZM442.798 9.864V5.256H447.406V9.864H442.798ZM442.798 14.856V10.248H447.406V14.856H442.798ZM442.798 20.296H447.406L442.798 24.904V20.296ZM447.406 0.199997V4.808H442.798L447.406 0.199997Z" fill="white"/>
</svg>
