<svg width="120" height="45" viewBox="0 0 120 45" fill="none" xmlns="http://www.w3.org/2000/svg">
<path d="M0.000148535 44.8L4.60815 40.128V44.8H0.000148535ZM5.05615 44.8V40.128H9.66415V44.8H5.05615ZM10.0481 44.8V40.128H14.6561V44.8H10.0481ZM15.0401 39.744V35.136H19.7121V39.744H15.0401ZM15.0401 40.128H19.7121L15.0401 44.8V40.128ZM0.000148535 19.712V15.04H4.60815V19.712H0.000148535ZM0.000148535 14.656V10.048H4.60815V14.656H0.000148535ZM0.000148535 20.096H4.60815L0.000148535 24.704V20.096ZM5.05615 24.704V20.096H9.66415V24.704H5.05615ZM10.0481 24.704V20.096H14.6561V24.704H10.0481ZM15.0401 24.704V20.096H19.7121V24.704H15.0401ZM15.0401 34.752V30.144H19.7121V34.752H15.0401ZM15.0401 29.696V25.088H19.7121V29.696H15.0401ZM4.60815 -1.52588e-05V4.60799H0.000148535L4.60815 -1.52588e-05ZM0.000148535 9.66399V5.05598H4.60815V9.66399H0.000148535ZM5.05615 4.60799V-1.52588e-05H9.66415V4.60799H5.05615ZM10.0481 4.60799V-1.52588e-05H14.6561V4.60799H10.0481ZM15.0401 -1.52588e-05H19.7121L15.0401 4.60799V-1.52588e-05ZM23.8126 44.8L28.4206 40.128V44.8H23.8126ZM28.8046 44.8V40.128H33.4766V44.8H28.8046ZM33.8606 44.8V40.128H38.4686V44.8H33.8606ZM33.8606 39.744V35.136H38.4686V39.744H33.8606ZM33.8606 34.752V30.144H38.4686V34.752H33.8606ZM38.8526 44.8V40.128H43.4606V44.8H38.8526ZM43.9086 40.128H48.5166L43.9086 44.8V40.128ZM33.8606 19.712V15.04H38.4686V19.712H33.8606ZM33.8606 29.696V25.088H38.4686V29.696H33.8606ZM33.8606 24.704V20.096H38.4686L33.8606 24.704ZM28.4206 -1.52588e-05V4.60799H23.8126L28.4206 -1.52588e-05ZM28.8046 4.60799V-1.52588e-05H33.4766V4.60799H28.8046ZM38.4686 5.05598V9.66399H33.8606V5.05598H38.4686ZM33.8606 4.60799V-1.52588e-05H38.4686V4.60799H33.8606ZM33.8606 14.656V10.048H38.4686V14.656H33.8606ZM38.8526 4.60799V-1.52588e-05H43.4606V4.60799H38.8526ZM43.9086 -1.52588e-05H48.5166L43.9086 4.60799V-1.52588e-05ZM52.6251 34.752V30.144H57.2331V34.752H52.6251ZM52.6251 39.744V35.136H57.2331V39.744H52.6251ZM52.6251 40.128H57.2331L52.6251 44.8V40.128ZM67.6651 34.752V30.144H72.3371V34.752H67.6651ZM67.6651 40.128H72.3371L67.6651 44.8V40.128ZM52.6251 19.712V15.04H57.2331V19.712H52.6251ZM52.6251 29.696V25.088H57.2331V29.696H52.6251ZM67.6651 35.136H72.3371L67.6651 39.744V35.136ZM52.6251 14.656V10.048H57.2331V14.656H52.6251ZM52.6251 20.096H57.2331L52.6251 24.704V20.096ZM57.6811 24.704V20.096H62.2891V24.704H57.6811ZM62.6731 20.096H67.2811L62.6731 24.704V20.096ZM52.6251 9.66399V5.05598H57.2331V9.66399H52.6251ZM67.6651 19.712V15.04H72.3371V19.712H67.6651ZM67.6651 29.696V25.088H72.3371V29.696H67.6651ZM67.6651 24.704V20.096H72.3371V24.704H67.6651ZM57.2331 -1.52588e-05V4.60799H52.6251L57.2331 -1.52588e-05ZM57.6811 4.60799V-1.52588e-05H62.2891V4.60799H57.6811ZM62.6731 4.60799V-1.52588e-05H67.2811V4.60799H62.6731ZM67.6651 14.656V10.048H72.3371V14.656H67.6651ZM67.6651 9.66399V5.05598H72.3371V9.66399H67.6651ZM67.6651 -1.52588e-05H72.3371L67.6651 4.60799V-1.52588e-05ZM76.4376 39.744V35.136H81.0456V39.744H76.4376ZM76.4376 34.752V30.144H81.0456V34.752H76.4376ZM76.4376 40.128H81.0456L76.4376 44.8V40.128ZM76.4376 19.712V15.04H81.0456V19.712H76.4376ZM76.4376 29.696V25.088H81.0456V29.696H76.4376ZM76.4376 14.656V10.048H81.0456V14.656H76.4376ZM76.4376 20.096H81.0456L76.4376 24.704V20.096ZM81.4936 24.704V20.096H86.1016V24.704H81.4936ZM86.4856 20.096H91.0936L86.4856 24.704V20.096ZM81.0456 -1.52588e-05V4.60799H76.4376L81.0456 -1.52588e-05ZM76.4376 9.66399V5.05598H81.0456V9.66399H76.4376ZM81.4936 4.60799V-1.52588e-05H86.1016V4.60799H81.4936ZM86.4856 4.60799V-1.52588e-05H91.0936V4.60799H86.4856ZM91.4776 -1.52588e-05H96.1496L91.4776 4.60799V-1.52588e-05ZM100.25 39.744V35.136H104.858V39.744H100.25ZM100.25 34.752V30.144H104.858V34.752H100.25ZM100.25 40.128H104.858L100.25 44.8V40.128ZM100.25 19.712V15.04H104.858V19.712H100.25ZM100.25 29.696V25.088H104.858V29.696H100.25ZM100.25 14.656V10.048H104.858V14.656H100.25ZM100.25 20.096H104.858L100.25 24.704V20.096ZM105.306 24.704V20.096H109.914V24.704H105.306ZM110.298 20.096H114.906L110.298 24.704V20.096ZM104.858 -1.52588e-05V4.60799H100.25L104.858 -1.52588e-05ZM100.25 9.66399V5.05598H104.858V9.66399H100.25ZM105.306 4.60799V-1.52588e-05H109.914V4.60799H105.306ZM110.298 4.60799V-1.52588e-05H114.906V4.60799H110.298ZM115.29 -1.52588e-05H119.962L115.29 4.60799V-1.52588e-05Z" fill="white"/>
</svg>
