<svg width="41" height="41" viewBox="0 0 41 41" fill="none" xmlns="http://www.w3.org/2000/svg">
<rect x="0.375" y="0.375" width="39.3818" height="39.75" rx="19.6909" stroke="#ABABAB" stroke-width="0.75"/>
<path fill-rule="evenodd" clip-rule="evenodd" d="M23.342 26.0175L30.3114 20.094C30.5865 19.866 30.7461 19.5248 30.7461 19.1645C30.7461 18.8042 30.5865 18.4631 30.3114 18.235L23.342 12.3115C22.9702 11.9893 22.4499 11.9103 22.0014 12.108C21.5529 12.3058 21.2549 12.7456 21.2338 13.241V15.5773C11.4492 13.8586 8.99609 22.7375 8.99609 27.7505C11.2659 23.9317 17.1478 17.0093 21.2338 22.7375V25.0802C21.2521 25.5771 21.549 26.0196 21.998 26.2192C22.4471 26.4188 22.9691 26.3405 23.342 26.0175Z" stroke="#B5B5B5" stroke-width="2.25" stroke-linecap="round" stroke-linejoin="round"/>
</svg>
