<svg width="41" height="41" viewBox="0 0 41 41" fill="none" xmlns="http://www.w3.org/2000/svg">
<rect x="0.375" y="0.375" width="40.125" height="39.75" rx="19.875" stroke="#ABABAB" stroke-width="0.75"/>
<path d="M19.9237 12.7275C21.0298 11.6214 22.53 11 24.0943 11C27.3516 11 29.9922 13.6406 29.9922 16.898C29.9922 18.4622 29.3709 19.9624 28.2648 21.0685L25.9582 23.375L24.3672 21.784L26.6738 19.4775C27.3579 18.7933 27.7422 17.8655 27.7422 16.898C27.7422 14.8833 26.1089 13.25 24.0943 13.25C23.1267 13.25 22.1988 13.6343 21.5147 14.3185L19.2082 16.625L17.6172 15.034L19.9237 12.7275Z" fill="#B5B5B5"/>
<path d="M20.4697 25.6816L22.7762 23.375L24.3672 24.966L22.0607 27.2726C20.9546 28.3787 19.4544 29 17.8902 29C14.6328 29 11.9922 26.3594 11.9922 23.1021C11.9922 21.5378 12.6136 20.0376 13.7197 18.9315L16.0262 16.625L17.6172 18.216L15.3107 20.5225C14.6265 21.2067 14.2422 22.1345 14.2422 23.1021C14.2422 25.1167 15.8754 26.75 17.8902 26.75C18.8577 26.75 19.7855 26.3657 20.4697 25.6816Z" fill="#B5B5B5"/>
<path d="M18.4123 24.1706L25.1623 17.4206L23.5713 15.8296L16.8213 22.5796L18.4123 24.1706Z" fill="#B5B5B5"/>
</svg>
