<svg width="202" height="28" viewBox="0 0 202 28" fill="none" xmlns="http://www.w3.org/2000/svg">
<path d="M0 21.4V17.48H4.04597V21.4H0ZM0 17.12V13.2H4.04597V17.12H0ZM0 12.84V8.92H4.04597V12.84H0ZM0 8.56L4.04597 4.64V8.56H0ZM4.41754 21.4V17.48H8.46352V21.4H4.41754ZM4.41754 8.56V4.64H8.46352V8.56H4.41754ZM8.7938 17.12V13.2H12.8811V17.12H8.7938ZM8.7938 21.4V17.48H12.8811L8.7938 21.4ZM12.8811 4.64V8.56H8.7938V4.64H12.8811ZM8.7938 12.84V8.92H12.8811V12.84H8.7938ZM26.1337 8.92V12.84H22.0877V8.92H26.1337ZM17.6289 21.72H21.7161L17.6289 25.72V21.72ZM17.6702 21.4V17.48H21.7161V21.4H17.6702ZM17.6702 17.12V13.2H21.7161V17.12H17.6702ZM17.6702 12.84V8.92H21.7161V12.84H17.6702ZM17.6702 8.56V4.64H21.7161V8.56H17.6702ZM17.6289 4.32L21.7161 0.359998V4.32H17.6289Z" fill="white"/>
<path d="M30.7625 23.72V19.8H34.8085V23.72H30.7625ZM35.18 17.2V13.24H39.226V17.2H35.18ZM35.18 23.72V19.8H39.226V23.72H35.18ZM39.5563 17.2V13.24H43.6436V17.2H39.5563ZM39.5976 23.72V19.8H43.6436V23.72H39.5976ZM43.9738 23.72V19.8H48.1024V23.72H43.9738ZM48.4327 23.72V19.8H52.4786V23.72H48.4327ZM35.18 10.56V6.6H39.226V10.56H35.18ZM35.18 12.88V10.92H39.226V12.88H35.18ZM48.3914 17.2V13.28H52.4374L48.3914 17.2ZM39.226 0V3.96H35.18L39.226 0ZM35.18 6.28V4.28H39.226V6.28H35.18ZM39.5976 3.96V0H43.6436V3.96H39.5976ZM39.5976 10.56V6.6H43.6436V10.56H39.5976ZM43.9738 17.2V13.24H48.0198V17.2H43.9738ZM56.8962 19.8V23.72H52.8502V19.8H56.8962ZM43.9738 10.56V6.6H48.0611V10.56H43.9738ZM43.9738 3.96V0H48.0611V3.96H43.9738ZM48.3914 3.96V0H52.4374V3.96H48.3914ZM48.3914 10.56V6.6H52.4374V10.56H48.3914Z" fill="white"/>
<path d="M61.525 19.44V15.52H65.571V19.44H61.525ZM61.525 23.72V19.8H65.571V23.72H61.525ZM65.9425 23.72V19.8H69.9885V23.72H65.9425ZM70.3601 23.72V19.8H74.4473L70.3601 23.72ZM79.2365 21.72H83.2824L79.2365 25.72V21.72ZM61.525 8.56V4.64H65.571V8.56H61.525ZM65.571 15.16H61.525L65.571 11.24V15.16ZM65.9425 15.16V11.24H69.9885V15.16H65.9425ZM79.2365 17.12V13.2H83.2824V17.12H79.2365ZM79.2365 21.4V17.48H83.2824V21.4H79.2365ZM65.9425 8.56V4.64H69.9885V8.56H65.9425ZM74.4473 11.24V15.16H70.3601V11.24H74.4473ZM70.3601 19.44V15.52H74.4473V19.44H70.3601ZM65.9425 4.32V0.359998H70.0298V4.32H65.9425ZM70.3601 8.56V4.64H74.4473V8.56H70.3601ZM79.2365 12.84V8.92H83.2824V12.84H79.2365ZM87.7 8.92V12.84H83.654V8.92H87.7ZM79.2365 4.32L83.2824 0.359998V4.32H79.2365ZM79.2365 8.56V4.64H83.2824V8.56H79.2365Z" fill="white"/>
<path d="M92.3278 12.84V8.92H96.4151V12.84H92.3278ZM92.3278 19.44V15.52H96.4151V19.44H92.3278ZM96.7454 19.44V15.52H100.833V19.44H96.7454ZM96.7454 12.84V8.92H100.833V12.84H96.7454ZM101.163 19.44V15.52H105.209V19.44H101.163ZM101.163 23.72V19.8H105.209V23.72H101.163ZM92.3278 8.56V4.64H96.4151V8.56H92.3278ZM101.163 12.84V8.92H105.209V12.84H101.163ZM105.58 12.84V8.92H109.626V12.84H105.58ZM105.58 19.44V15.52H109.626V19.44H105.58ZM109.998 12.84V8.92H114.044L109.998 12.84ZM114.044 15.52V19.44H109.998V15.52H114.044ZM92.3278 4.28L96.4151 0.359998V4.28H92.3278ZM96.7454 4.28V0.359998H100.833V4.28H96.7454ZM101.163 4.28V0.359998H105.209V4.28H101.163ZM105.58 4.28V0.359998H109.626V4.28H105.58ZM109.998 8.56V4.64H114.044V8.56H109.998ZM109.998 4.28V0.359998H114.044V4.28H109.998ZM101.163 28V24.08H105.209V28H101.163Z" fill="white"/>
<path d="M118.696 23.72V19.76H122.783V23.72H118.696ZM123.113 23.72V19.76H127.2V23.72H123.113ZM127.572 23.72V19.76H131.618V23.72H127.572ZM131.99 23.72V19.76H136.036V23.72H131.99ZM140.453 19.76V23.72H136.366V19.76H140.453ZM122.783 15.16H118.696L122.783 11.24V15.16ZM127.2 10.88H123.113L127.2 6.92V10.88ZM123.113 15.16V11.24H127.2L123.113 15.16ZM127.531 6.6V2.64H131.618V6.6H127.531ZM127.572 10.88V6.96H131.618V10.88H127.572ZM136.036 11.24V15.16H131.99V11.24H136.036Z" fill="white"/>
<path d="M145.064 23.72V19.8H149.109V23.72H145.064ZM149.481 23.72V19.8H153.568V23.72H149.481ZM157.986 19.44H153.899L157.986 15.52V19.44ZM153.899 23.72V19.8H157.986V23.72H153.899ZM158.316 19.44V15.52H162.403L158.316 19.44ZM158.316 23.72V19.8H162.403V23.72H158.316ZM162.734 23.72V19.8H166.78V23.72H162.734ZM171.197 19.8V23.72H167.151V19.8H171.197ZM149.481 15.16V11.24H153.568V15.16H149.481ZM149.481 10.88V6.96H153.568V10.88H149.481ZM153.899 15.16V11.24H157.986V15.16H153.899ZM158.316 15.16V11.24H162.403V15.16H158.316ZM149.481 6.6V2.64H153.568V6.6H149.481ZM153.899 6.6V2.64H157.986V6.6H153.899ZM158.316 6.6V2.64H162.403V6.6H158.316ZM162.734 6.6V2.64H166.78V6.6H162.734ZM162.734 10.88V6.96H166.78V10.88H162.734ZM162.734 15.16V11.24H166.78V15.16H162.734Z" fill="white"/>
<path d="M175.866 23.72V19.8H179.912V23.72H175.866ZM180.284 23.72V19.8H184.371V23.72H180.284ZM188.789 19.44H184.701L188.789 15.52V19.44ZM184.701 23.72V19.8H188.789V23.72H184.701ZM189.119 19.44V15.52H193.206L189.119 19.44ZM189.119 23.72V19.8H193.206V23.72H189.119ZM193.536 23.72V19.8H197.582V23.72H193.536ZM202 19.8V23.72H197.954V19.8H202ZM180.284 15.16V11.24H184.371V15.16H180.284ZM180.284 10.88V6.96H184.371V10.88H180.284ZM184.701 15.16V11.24H188.789V15.16H184.701ZM189.119 15.16V11.24H193.206V15.16H189.119ZM180.284 6.6V2.64H184.371V6.6H180.284ZM184.701 6.6V2.64H188.789V6.6H184.701ZM189.119 6.6V2.64H193.206V6.6H189.119ZM193.536 6.6V2.64H197.582V6.6H193.536ZM193.536 10.88V6.96H197.582V10.88H193.536ZM193.536 15.16V11.24H197.582V15.16H193.536Z" fill="white"/>
</svg>
