<?xml version="1.0" encoding="UTF-8"?>
<svg id="uuid-841e0677-f577-4b5c-b84c-5367e2e47bcb" data-name="Layer 2" xmlns="http://www.w3.org/2000/svg" viewBox="0 0 31.08 8.29">
  <defs>
    <style>
      .uuid-19e949f3-3d20-4760-a946-f9e623517239, .uuid-1e27f816-6d01-4e52-921f-e132520afccb {
        fill: #fff;
      }

      .uuid-1e27f816-6d01-4e52-921f-e132520afccb {
        stroke: #000;
        stroke-miterlimit: 10;
        stroke-width: 0px;
      }
    </style>
  </defs>
  <g id="uuid-92823ae2-ad31-497d-a2c5-0384d696a813" data-name="Layer 1">
    <rect class="uuid-1e27f816-6d01-4e52-921f-e132520afccb" x="27.58" y="1.2" width="1.1" height=".55"/>
    <rect class="uuid-1e27f816-6d01-4e52-921f-e132520afccb" x="20.99" y="1.76" width="1.1" height=".55"/>
    <rect class="uuid-1e27f816-6d01-4e52-921f-e132520afccb" x="19.79" y="1.76" width="1.1" height=".55"/>
    <rect class="uuid-19e949f3-3d20-4760-a946-f9e623517239" x="20.38" y="5.99" width="1.1" height="1.1"/>
    <rect class="uuid-19e949f3-3d20-4760-a946-f9e623517239" x="20.38" y="4.79" width="1.1" height="1.1"/>
    <rect class="uuid-19e949f3-3d20-4760-a946-f9e623517239" x="20.38" y="7.19" width="1.1" height="1.1"/>
    <rect class="uuid-19e949f3-3d20-4760-a946-f9e623517239" x="17.99" y="4.79" width="1.1" height="1.1"/>
    <rect class="uuid-19e949f3-3d20-4760-a946-f9e623517239" x="19.18" y="4.79" width="1.11" height="1.1"/>
    <rect class="uuid-19e949f3-3d20-4760-a946-f9e623517239" x="21.58" y="4.79" width="1.1" height="1.1"/>
    <rect class="uuid-19e949f3-3d20-4760-a946-f9e623517239" x="22.78" y="4.79" width="1.1" height="1.1"/>
    <rect class="uuid-19e949f3-3d20-4760-a946-f9e623517239" x="26.38" y="6.63" width="1.1" height="1.11"/>
    <rect class="uuid-19e949f3-3d20-4760-a946-f9e623517239" x="25.18" y="6.63" width="1.1" height="1.11"/>
    <rect class="uuid-19e949f3-3d20-4760-a946-f9e623517239" x="27.58" y="6.63" width="1.1" height="1.11"/>
    <rect class="uuid-19e949f3-3d20-4760-a946-f9e623517239" x="28.78" y="6.63" width="1.1" height="1.11"/>
    <rect class="uuid-19e949f3-3d20-4760-a946-f9e623517239" x="29.97" y="6.63" width="1.11" height="1.11"/>
    <rect class="uuid-19e949f3-3d20-4760-a946-f9e623517239" x="27.58" y="3.04" width="1.1" height="1.1"/>
    <rect class="uuid-19e949f3-3d20-4760-a946-f9e623517239" x="27.58" y="1.84" width="1.1" height="1.1"/>
    <polygon class="uuid-19e949f3-3d20-4760-a946-f9e623517239" points="25.18 5.34 26.28 4.24 26.28 5.34 25.18 5.34"/>
    <polygon class="uuid-19e949f3-3d20-4760-a946-f9e623517239" points="26.38 4.24 27.48 4.24 26.38 5.34 26.38 4.24"/>
    <polygon class="uuid-19e949f3-3d20-4760-a946-f9e623517239" points="26.38 4.14 27.48 3.04 27.48 4.14 26.38 4.14"/>
    <rect class="uuid-19e949f3-3d20-4760-a946-f9e623517239" x="28.78" y="4.24" width="1.1" height="1.1"/>
    <rect class="uuid-19e949f3-3d20-4760-a946-f9e623517239" x="13.18" y="2.39" width="1.1" height=".01"/>
    <rect class="uuid-19e949f3-3d20-4760-a946-f9e623517239" x="14.37" y="3.59" width="1.11" height="1.1"/>
    <rect class="uuid-19e949f3-3d20-4760-a946-f9e623517239" x="14.37" y="2.39" width="1.11" height="1.1"/>
    <rect class="uuid-19e949f3-3d20-4760-a946-f9e623517239" x="14.37" width="1.11" height="1.1"/>
    <rect class="uuid-19e949f3-3d20-4760-a946-f9e623517239" x="14.37" y="4.79" width="1.11" height="1.1"/>
    <rect class="uuid-19e949f3-3d20-4760-a946-f9e623517239" x="14.37" y="1.19" width="1.11" height="1.11"/>
    <polygon class="uuid-19e949f3-3d20-4760-a946-f9e623517239" points="9.49 4.14 8.38 5.25 8.38 4.14 9.49 4.14"/>
    <polygon class="uuid-19e949f3-3d20-4760-a946-f9e623517239" points="7.19 5.25 8.29 4.14 8.29 5.25 7.19 5.25"/>
    <polygon class="uuid-19e949f3-3d20-4760-a946-f9e623517239" points="9.49 2.96 9.49 4.05 8.38 4.05 9.49 2.96"/>
    <rect class="uuid-19e949f3-3d20-4760-a946-f9e623517239" x="8.38" y="1.76" width="1.11" height="1.1"/>
    <rect class="uuid-19e949f3-3d20-4760-a946-f9e623517239" x="10.78" y="1.76" width="1.1" height="1.1"/>
    <rect class="uuid-19e949f3-3d20-4760-a946-f9e623517239" x="9.58" y="2.96" width="1.1" height="1.1"/>
    <rect class="uuid-19e949f3-3d20-4760-a946-f9e623517239" x="9.58" y="1.76" width="1.1" height="1.1"/>
    <rect class="uuid-19e949f3-3d20-4760-a946-f9e623517239" x="9.58" y=".56" width="1.1" height="1.1"/>
    <rect class="uuid-19e949f3-3d20-4760-a946-f9e623517239" x="10.78" y="4.14" width="1.1" height="1.11"/>
    <rect class="uuid-1e27f816-6d01-4e52-921f-e132520afccb" x="13.18" y="2.4" width="1.1" height="1.1"/>
    <rect class="uuid-19e949f3-3d20-4760-a946-f9e623517239" x="2.39" y="7.18" width="1.1" height="1.1"/>
    <rect class="uuid-19e949f3-3d20-4760-a946-f9e623517239" x="2.39" y="5.98" width="1.1" height="1.1"/>
    <rect class="uuid-19e949f3-3d20-4760-a946-f9e623517239" y="5.98" width="1.1" height="1.1"/>
    <rect class="uuid-19e949f3-3d20-4760-a946-f9e623517239" x="1.19" y="5.98" width="1.11" height="1.1"/>
    <rect class="uuid-19e949f3-3d20-4760-a946-f9e623517239" x="3.59" y="5.98" width="1.1" height="1.1"/>
    <rect class="uuid-19e949f3-3d20-4760-a946-f9e623517239" x="4.79" y="5.98" width="1.1" height="1.1"/>
    <polygon class="uuid-19e949f3-3d20-4760-a946-f9e623517239" points="2.3 4.14 1.19 5.24 1.19 4.14 2.3 4.14"/>
    <polygon class="uuid-19e949f3-3d20-4760-a946-f9e623517239" points="0 5.24 1.1 4.14 1.1 5.24 0 5.24"/>
    <polygon class="uuid-19e949f3-3d20-4760-a946-f9e623517239" points="2.3 2.95 2.3 4.05 1.19 4.05 2.3 2.95"/>
    <rect class="uuid-19e949f3-3d20-4760-a946-f9e623517239" x="0" y="1.75" width="1.1" height="1.1"/>
    <rect class="uuid-19e949f3-3d20-4760-a946-f9e623517239" x="1.19" y="1.75" width="1.11" height="1.1"/>
    <rect class="uuid-19e949f3-3d20-4760-a946-f9e623517239" x="3.59" y="1.75" width="1.1" height="1.1"/>
    <rect class="uuid-19e949f3-3d20-4760-a946-f9e623517239" x="2.39" y="2.95" width="1.1" height="1.1"/>
    <rect class="uuid-19e949f3-3d20-4760-a946-f9e623517239" x="2.39" y="1.75" width="1.1" height="1.1"/>
    <rect class="uuid-19e949f3-3d20-4760-a946-f9e623517239" x="2.39" y=".55" width="1.1" height="1.1"/>
    <rect class="uuid-19e949f3-3d20-4760-a946-f9e623517239" x="4.79" y="1.75" width="1.1" height="1.1"/>
    <rect class="uuid-19e949f3-3d20-4760-a946-f9e623517239" x="3.59" y="4.14" width="1.1" height="1.11"/>
    <rect class="uuid-1e27f816-6d01-4e52-921f-e132520afccb" x="9.59" y="7.19" width="1.1" height="1.1"/>
    <polygon class="uuid-1e27f816-6d01-4e52-921f-e132520afccb" points="10.69 6 10.69 7.1 9.59 7.1 9.6 7.09 9.59 7.09 9.59 6 10.69 6"/>
    <rect class="uuid-1e27f816-6d01-4e52-921f-e132520afccb" x="13.18" y="7.19" width="1.1" height="1.1"/>
    <rect class="uuid-1e27f816-6d01-4e52-921f-e132520afccb" x="11.98" y="7.19" width="1.1" height="1.1"/>
    <rect class="uuid-1e27f816-6d01-4e52-921f-e132520afccb" x="14.38" y="7.19" width="1.1" height="1.1"/>
    <rect class="uuid-1e27f816-6d01-4e52-921f-e132520afccb" x="10.78" y="7.19" width="1.11" height="1.1"/>
    <rect class="uuid-1e27f816-6d01-4e52-921f-e132520afccb" x="18.59" y="1.76" width="1.1" height="1.1"/>
    <rect class="uuid-1e27f816-6d01-4e52-921f-e132520afccb" x="22.19" y="2.96" width="1.1" height="1.1"/>
    <rect class="uuid-1e27f816-6d01-4e52-921f-e132520afccb" x="22.19" y="1.76" width="1.1" height="1.1"/>
    <rect class="uuid-1e27f816-6d01-4e52-921f-e132520afccb" x="22.19" y=".56" width="1.1" height="1.1"/>
    <rect class="uuid-1e27f816-6d01-4e52-921f-e132520afccb" x="18.59" y=".56" width="1.1" height="1.1"/>
    <rect class="uuid-1e27f816-6d01-4e52-921f-e132520afccb" x="19.79" y="2.96" width="1.1" height="1.1"/>
    <rect class="uuid-1e27f816-6d01-4e52-921f-e132520afccb" x="18.59" y="2.96" width="1.1" height="1.1"/>
    <rect class="uuid-1e27f816-6d01-4e52-921f-e132520afccb" x="20.99" y="2.96" width="1.1" height="1.1"/>
  </g>
</svg>