<svg width="182" height="57" viewBox="0 0 182 57" fill="none" xmlns="http://www.w3.org/2000/svg">
<path d="M6.27588 48.0347V42.5723H11.7673V48.0347H6.27588ZM6.27588 54.0173V48.5549H11.7673V54.0173H6.27588ZM6.27588 42.052L11.7673 36.5896V42.052H6.27588ZM12.2031 54.0173V48.5549H17.6945V54.0173H12.2031ZM18.2175 54.0173V48.5549H23.7088V54.0173H18.2175ZM24.2318 54.0173V48.5549H29.7232V54.0173H24.2318ZM0 30.1734V24.711H5.57855V30.1734H0ZM12.0287 30.1734V24.711H17.5201V30.1734H12.0287ZM12.2031 42.052V36.5896H17.6945V42.052H12.2031ZM18.2175 42.052V36.5896H23.7088V42.052H18.2175ZM24.2318 42.052V36.5896H29.7232V42.052H24.2318ZM30.2462 48.5549H35.7376L30.2462 54.0173V48.5549ZM30.2462 48.0347V42.5723H35.7376V48.0347H30.2462ZM0 24.1908V18.7283H5.57855V24.1908H0ZM17.9559 24.1908V18.7283H23.5345V24.1908H17.9559ZM17.9559 24.711H23.5345L17.9559 30.1734V24.711ZM30.2462 42.052V36.5896H35.7376V42.052H30.2462ZM35.9119 36.1561V30.6069H41.4904V36.1561H35.9119ZM0 18.2081V12.7457H5.57855V18.2081H0ZM6.01434 30.1734V24.711H11.5058V30.1734H6.01434ZM0 12.2254L5.57855 6.76301V12.2254H0ZM12.0287 12.2254V6.76301H17.5201V12.2254H12.0287ZM17.9559 18.2081V12.7457H23.5345V18.2081H17.9559ZM35.9119 30.1734V24.711H41.4904V30.1734H35.9119ZM6.01434 12.2254V6.76301H11.5058V12.2254H6.01434ZM17.9559 12.2254V6.76301H23.5345V12.2254H17.9559ZM23.9703 12.2254L29.4617 6.76301V12.2254H23.9703ZM23.9703 24.1908L29.4617 18.7283V24.1908H23.9703ZM29.9847 12.2254V6.76301H35.4761V12.2254H29.9847ZM29.9847 24.1908V18.7283H35.4761V24.1908H29.9847ZM35.9119 24.1908V18.7283H41.4904V24.1908H35.9119ZM35.9119 6.32948V0.780347H41.4904V6.32948H35.9119ZM35.9119 12.2254V6.76301H41.4904V12.2254H35.9119ZM35.9119 18.2081V12.7457H41.4904V18.2081H35.9119Z" fill="white"/>
<path d="M66.0287 14.2197V8.15029H72.1303V14.2197H66.0287ZM66.0287 7.54335V1.47399H72.1303V7.54335H66.0287ZM72.6533 14.2197V8.15029H78.7548V14.2197H72.6533ZM85.4665 8.15029V14.2197H79.2778V8.15029H85.4665ZM52.6925 14.2197V8.15029H58.7941V14.2197H52.6925ZM59.317 14.2197V8.15029H65.5058V14.2197H59.317ZM92.7012 31.1272V24.9711H98.8028V31.1272H92.7012ZM92.7012 48.0347V41.8786H98.8028V48.0347H92.7012ZM98.8028 8.15029V14.2197H92.7012V8.15029H98.8028ZM92.7012 37.7168V31.6474H98.8028V37.7168H92.7012ZM92.7012 24.5376V18.3815H98.8028V24.5376H92.7012ZM92.7012 41.3584V38.3237H98.8028V41.3584H92.7012ZM92.7012 17.7746V14.7399H98.8028V17.7746H92.7012ZM92.7012 7.54335V1.47399H98.8028V7.54335H92.7012ZM92.7012 54.711V48.5549H98.8028V54.711H92.7012ZM105.427 24.9711V31.1272H99.3257V24.9711H105.427ZM52.6925 31.1272V25.0578H58.7941V31.1272H52.6925ZM52.6925 37.7168V31.6474H58.7941V37.7168H52.6925ZM58.7941 24.4509H52.6925L58.7941 18.3815V24.4509ZM59.317 37.7168V31.6474H65.5058V37.7168H59.317ZM59.317 24.4509V18.3815H65.5058V24.4509H59.317ZM66.0287 37.7168V31.6474H72.1303V37.7168H66.0287ZM66.0287 24.4509V18.3815H72.1303V24.4509H66.0287ZM72.7404 37.7168V31.6474H78.842V37.7168H72.7404ZM72.7404 24.4509V18.3815H78.842V24.4509H72.7404ZM85.4665 18.3815V24.4509H79.2778V18.3815H85.4665ZM79.2778 37.7168V31.6474H85.4665L79.2778 37.7168ZM79.2778 31.1272V25.0578H85.4665V31.1272H79.2778ZM85.4665 41.8786V48.0347H79.2778V41.8786H85.4665ZM72.7404 48.0347V41.8786H78.842V48.0347H72.7404ZM59.317 48.0347V41.8786H65.5058V48.0347H59.317ZM66.0287 48.0347V41.8786H72.1303V48.0347H66.0287ZM66.0287 41.3584V38.3237H72.1303V41.3584H66.0287ZM52.6925 48.0347V41.8786H58.7941V48.0347H52.6925Z" fill="white"/>
<path d="M124.373 48.0347H116.789L124.373 40.578V48.0347ZM124.983 48.0347V40.578H132.479L124.983 48.0347ZM132.479 39.8844H124.983L132.479 32.4277V39.8844ZM133.176 31.7341V24.2775H140.673V31.7341H133.176ZM133.176 39.8844V32.4277H140.673V39.8844H133.176ZM148.779 40.578V48.0347H141.283V40.578H148.779ZM157.582 48.0347V40.578H165.166V48.0347H157.582ZM157.582 48.7283H165.166L157.582 56.185V48.7283ZM140.673 16.2139V23.6705H133.176V16.2139H140.673ZM149.476 31.7341V24.2775H156.972V31.7341H149.476ZM157.582 39.8844V32.4277H165.166V39.8844H157.582ZM157.582 31.7341V24.2775H165.166V31.7341H157.582ZM173.969 48.0347V40.578H181.466V48.0347H173.969ZM157.582 23.6705V16.2139H165.166V23.6705H157.582ZM173.969 39.8844V32.4277H181.466V39.8844H173.969ZM173.969 56.185V48.7283H181.466V56.185H173.969ZM124.983 15.6069V8.15029H132.479V15.6069H124.983ZM133.176 15.6069V8.15029H140.673V15.6069H133.176ZM148.779 8.15029V15.6069H141.283V8.15029H148.779ZM157.582 15.6069V8.15029H165.166V15.6069H157.582ZM173.969 15.6069V8.15029H181.466V15.6069H173.969ZM173.969 23.6705V16.2139H181.466V23.6705H173.969ZM173.969 31.7341V24.2775H181.466V31.7341H173.969ZM165.166 0V7.45665H157.582L165.166 0ZM173.969 7.45665V0H181.466V7.45665H173.969Z" fill="white"/>
</svg>
