<svg width="489" height="55" viewBox="0 0 489 55" fill="none" xmlns="http://www.w3.org/2000/svg">
<path d="M14.4952 14.7038L21.1551 7.94798V14.7038H14.4952ZM14.4952 36.7197V29.9639H21.1551V36.7197H14.4952ZM14.4952 29.328V22.5723H21.1551V29.328H14.4952ZM14.4952 22.0159V15.2601H21.1551V22.0159H14.4952ZM43.4071 14.7038V7.94798H50.0671V14.7038H43.4071ZM43.4071 22.0159V15.2601H50.0671V22.0159H43.4071ZM43.4071 7.31214L50.0671 0.635839V7.31214H43.4071ZM43.4071 44.0318V37.276H50.0671V44.0318H43.4071ZM43.4071 36.7197V29.9639H50.0671V36.7197H43.4071ZM43.4071 29.328V22.5723H50.0671V29.328H43.4071ZM43.4071 44.6676H50.0671L43.4071 51.3439V44.6676ZM7.28676 36.6402L13.8683 29.9639V36.6402H7.28676ZM7.20841 44.0318V37.276H13.8683L7.20841 44.0318ZM0 44.0318L6.73829 37.276V44.0318H0ZM28.9903 29.328V22.5723H35.6503V29.328H28.9903ZM36.1987 22.5723H42.8587L36.1987 29.328V22.5723ZM28.3635 37.276V44.0318H21.7036V37.276H28.3635Z" fill="white"/>
<path d="M64.9228 43.5549V41.3295H69.3105V43.5549H64.9228ZM69.7023 40.9321V36.4812H74.09V40.9321H69.7023ZM69.7023 48.4032V43.9523H74.09V48.4032H69.7023ZM74.4818 48.4032V43.9523H78.8695V48.4032H74.4818ZM79.2613 48.4032V43.9523H83.649V48.4032H79.2613ZM84.0407 43.9523H88.4285L84.0407 48.4032V43.9523ZM60.1433 25.9104L64.531 21.4595V25.9104H60.1433ZM64.9228 18.4393V13.9884H69.3105V18.4393H64.9228ZM64.9228 33.461V28.9306H69.3105V33.461H64.9228ZM64.9228 48.4032V43.9523H69.3105V48.4032H64.9228ZM64.9228 40.9321V36.4812H69.3105V40.9321H64.9228ZM64.9228 25.9104V21.4595H69.3105V25.9104H64.9228ZM69.7023 33.461V28.9306H74.09V33.461H69.7023ZM69.7023 25.9104V21.4595H74.09V25.9104H69.7023ZM71.8961 28.5332L74.09 26.3078V28.5332H71.8961ZM74.4818 26.3078H78.8695L76.6756 28.5332H74.4818V26.3078ZM74.4818 33.461V28.9306H78.8695V33.461H74.4818ZM74.4818 25.9104V21.4595H78.8695V25.9104H74.4818ZM74.4818 40.9321V36.4812H78.8695V40.9321H74.4818ZM79.2613 33.461V28.9306H83.649V33.461H79.2613ZM84.0407 33.461V28.9306H88.4285V33.461H84.0407ZM64.9228 13.591V9.06069H69.3105V13.591H64.9228ZM79.2613 25.9104V21.4595H83.649V25.9104H79.2613ZM79.2613 40.9321V36.4812H83.649V40.9321H79.2613ZM84.0407 25.9104V21.4595H88.4285V25.9104H84.0407ZM84.0407 40.9321V36.4812H88.4285V40.9321H84.0407ZM84.0407 36.0838V33.8584H88.4285V36.0838H84.0407ZM69.3105 4.21243V8.6633H64.9228L69.3105 4.21243ZM69.7023 8.6633V4.21243H74.09V8.6633H69.7023ZM69.7023 18.4393V13.9884H74.09V18.4393H69.7023ZM74.4818 8.6633V4.21243H78.8695V8.6633H74.4818ZM74.4818 18.4393V13.9884H78.8695V18.4393H74.4818ZM79.2613 8.6633V4.21243H83.649V8.6633H79.2613ZM79.2613 18.4393V13.9884H83.649V18.4393H79.2613ZM84.0407 13.9884H88.4285L84.0407 18.4393V13.9884ZM88.8202 21.4595H93.2079L88.8202 25.9104V21.4595ZM84.0407 8.6633V4.21243H88.4285V8.6633H84.0407ZM84.0407 13.591V9.06069H88.4285V13.591H84.0407Z" fill="white"/>
<path d="M134.402 44.0318V38.2298H140.2V44.0318H134.402ZM109.094 25.0361H103.296L109.094 19.2341V25.0361ZM115.206 37.6734H109.565L115.206 31.9509V37.6734ZM109.565 25.0361V19.2341H115.284V25.0361H109.565ZM115.754 25.0361V19.2341H121.474V25.0361H115.754ZM115.754 37.6734V31.9509H121.474V37.6734H115.754ZM122.023 25.0361V19.2341H127.742V25.0361H122.023ZM122.023 37.6734V31.9509H127.742V37.6734H122.023ZM127.742 31.3945H122.023L127.742 25.5925V31.3945ZM128.212 31.3945V25.5925H133.932L128.212 31.3945ZM128.212 37.6734V31.9509H133.932V37.6734H128.212ZM115.206 12.4783H109.565L115.206 6.6763V12.4783ZM115.754 12.4783V6.6763H121.474V12.4783H115.754ZM122.023 12.4783V6.6763H127.742V12.4783H122.023ZM128.212 25.0361V19.2341H133.932V25.0361H128.212ZM128.212 12.4783V6.6763H133.932V12.4783H128.212ZM134.402 25.0361V19.2341H140.2V25.0361H134.402ZM134.402 37.6734V31.9509H140.2V37.6734H134.402ZM134.402 18.7572V12.9552H140.2V18.7572H134.402ZM134.402 12.4783V6.6763H140.2V12.4783H134.402ZM140.67 19.2341H146.39L140.67 25.0361V19.2341Z" fill="white"/>
<path d="M163.293 44.0318H156.477L163.293 37.1965V44.0318ZM163.842 44.0318V37.1965H170.58L163.842 44.0318ZM170.58 36.5607H163.842L170.58 29.7254V36.5607ZM171.207 29.0896V22.2543H177.945V29.0896H171.207ZM171.207 36.5607V29.7254H177.945V36.5607H171.207ZM185.232 37.1965V44.0318H178.494V37.1965H185.232ZM193.146 44.0318V37.1965H199.962V44.0318H193.146ZM193.146 44.6676H199.962L193.146 51.5029V44.6676ZM177.945 14.8627V21.698H171.207V14.8627H177.945ZM185.859 29.0896V22.2543H192.597V29.0896H185.859ZM193.146 36.5607V29.7254H199.962V36.5607H193.146ZM193.146 29.0896V22.2543H199.962V29.0896H193.146ZM207.876 44.0318V37.1965H214.614V44.0318H207.876ZM193.146 21.698V14.8627H199.962V21.698H193.146ZM207.876 36.5607V29.7254H214.614V36.5607H207.876ZM207.876 51.5029V44.6676H214.614V51.5029H207.876ZM163.842 14.3064V7.4711H170.58V14.3064H163.842ZM171.207 14.3064V7.4711H177.945V14.3064H171.207ZM185.232 7.4711V14.3064H178.494V7.4711H185.232ZM193.146 14.3064V7.4711H199.962V14.3064H193.146ZM207.876 14.3064V7.4711H214.614V14.3064H207.876ZM207.876 21.698V14.8627H214.614V21.698H207.876ZM207.876 29.0896V22.2543H214.614V29.0896H207.876ZM199.962 0V6.83526H193.146L199.962 0ZM207.876 6.83526V0H214.614V6.83526H207.876Z" fill="white"/>
<path d="M230.135 44.0318V38.8656H235.228V44.0318H230.135ZM230.135 38.4682V33.3815H235.228V38.4682H230.135ZM230.135 49.5954V44.4292H235.228V49.5954H230.135ZM235.62 49.5954V44.4292H240.634V49.5954H235.62ZM241.105 49.5954V44.4292H246.119V49.5954H241.105ZM246.589 49.5954V44.4292H251.604V49.5954H246.589ZM252.074 49.5954V44.4292H257.088V49.5954H252.074ZM257.559 44.4292H262.651L257.559 49.5159V44.4292ZM224.729 32.9046V27.8179H229.743L224.729 32.9046ZM229.743 27.341H224.729L229.743 22.2543V27.341ZM230.135 27.341V22.2543H235.228L230.135 27.341ZM257.559 32.9046V27.8179H262.573V32.9046H257.559ZM257.559 38.4682V33.3815H262.651L257.559 38.4682ZM229.743 10.6503H224.729L229.743 5.56358V10.6503ZM230.135 10.6503V5.56358H235.228V10.6503H230.135ZM235.228 21.7775H230.135L235.228 16.6908V21.7775ZM240.634 16.2139H235.62L240.634 11.1272V16.2139ZM235.62 21.7775V16.6908H240.634L235.62 21.7775ZM235.62 10.6503V5.56358H240.634V10.6503H235.62ZM246.119 5.56358V10.6503H241.105V5.56358H246.119ZM241.105 16.2139V11.1272H246.119L241.105 16.2139ZM246.589 21.7775V16.6908H251.604V21.7775H246.589ZM252.074 16.6908H257.088L252.074 21.7775V16.6908ZM257.559 16.2139V11.1272H262.573V16.2139H257.559ZM257.559 21.7775V16.6908H262.573V21.7775H257.559ZM257.559 27.341V22.2543H262.573V27.341H257.559ZM257.559 10.6503V5.56358H262.573V10.6503H257.559ZM257.559 5.08671L262.651 0V5.08671H257.559Z" fill="white"/>
<path d="M305.375 49.5954V44.4292H310.39V49.5954H305.375ZM272.781 32.9841L277.717 27.8974V32.9841H272.781ZM272.781 44.0318L277.717 38.9451V44.0318H272.781ZM278.187 32.9841V27.8974H283.202V32.9841H278.187ZM278.187 44.0318V38.9451H283.202V44.0318H278.187ZM283.672 32.9841V27.8974H288.608V32.9841H283.672ZM283.672 44.0318V38.9451H288.608V44.0318H283.672ZM289.078 38.4682L294.093 33.461V38.4682H289.078ZM289.078 32.9841V27.8974H294.093V32.9841H289.078ZM289.078 44.0318V38.9451H294.093V44.0318H289.078ZM294.484 33.461H299.499L294.484 38.4682V33.461ZM294.484 32.9841V27.8974H299.499V32.9841H294.484ZM294.484 44.0318V38.9451H299.499V44.0318H294.484ZM299.969 32.9841V27.8974H304.905V32.9841H299.969ZM299.969 44.0318V38.9451H304.905V44.0318H299.969ZM305.375 32.9841V27.8974H310.39V32.9841H305.375ZM305.375 44.0318V38.9451H310.39V44.0318H305.375ZM283.672 22.0159L288.608 16.8497V22.0159H283.672ZM283.672 10.9682V5.8815H288.608V10.9682H283.672ZM289.078 10.9682V5.8815H294.093V10.9682H289.078ZM289.078 16.8497H294.093L289.078 22.0159V16.8497ZM299.969 22.0159V16.8497H304.905V22.0159H299.969ZM310.86 27.8974H315.796L310.86 32.9841V27.8974ZM289.078 16.4523L294.093 11.3656V16.4523H289.078ZM294.484 5.40463V0.31792H299.499V5.40463H294.484ZM294.484 10.9682V5.8815H299.499V10.9682H294.484ZM294.484 16.4523V11.3656H299.499V16.4523H294.484ZM299.969 10.9682V5.8815H304.905V10.9682H299.969ZM305.375 10.9682V5.8815H310.39V10.9682H305.375ZM305.375 49.9928H310.39L305.375 55V49.9928ZM310.86 38.9451H315.796L310.86 44.0318V38.9451Z" fill="white"/>
<path d="M331.522 44.0318V39.0246H336.459V44.0318H331.522ZM331.522 49.5159V44.5087H336.459V49.5159H331.522ZM331.522 38.5477L336.459 33.5405V38.5477H331.522ZM336.85 49.5159V44.5087H341.787V49.5159H336.85ZM342.257 49.5159V44.5087H347.193V49.5159H342.257ZM347.663 49.5159V44.5087H352.599V49.5159H347.663ZM325.881 27.659V22.6517H330.896V27.659H325.881ZM336.694 27.659V22.6517H341.63V27.659H336.694ZM336.85 38.5477V33.5405H341.787V38.5477H336.85ZM342.257 38.5477V33.5405H347.193V38.5477H342.257ZM347.663 38.5477V33.5405H352.599V38.5477H347.663ZM353.069 44.5087H358.005L353.069 49.5159V44.5087ZM353.069 44.0318V39.0246H358.005V44.0318H353.069ZM325.881 22.1749V17.1676H330.896V22.1749H325.881ZM342.022 22.1749V17.1676H347.036V22.1749H342.022ZM342.022 22.6517H347.036L342.022 27.659V22.6517ZM353.069 38.5477V33.5405H358.005V38.5477H353.069ZM358.162 33.1431V28.0564H363.177V33.1431H358.162ZM325.881 16.6908V11.6835H330.896V16.6908H325.881ZM331.287 27.659V22.6517H336.224V27.659H331.287ZM325.881 11.2066L330.896 6.19942V11.2066H325.881ZM336.694 11.2066V6.19942H341.63V11.2066H336.694ZM342.022 16.6908V11.6835H347.036V16.6908H342.022ZM358.162 27.659V22.6517H363.177V27.659H358.162ZM331.287 11.2066V6.19942H336.224V11.2066H331.287ZM342.022 11.2066V6.19942H347.036V11.2066H342.022ZM347.428 11.2066L352.364 6.19942V11.2066H347.428ZM347.428 22.1749L352.364 17.1676V22.1749H347.428ZM352.834 11.2066V6.19942H357.77V11.2066H352.834ZM352.834 22.1749V17.1676H357.77V22.1749H352.834ZM358.162 22.1749V17.1676H363.177V22.1749H358.162ZM358.162 5.80202V0.715318H363.177V5.80202H358.162ZM358.162 11.2066V6.19942H363.177V11.2066H358.162ZM358.162 16.6908V11.6835H363.177V16.6908H358.162Z" fill="white"/>
<path d="M385.234 13.0347V7.4711H390.719V13.0347H385.234ZM385.234 6.91474V1.35116H390.719V6.91474H385.234ZM391.189 13.0347V7.4711H396.674V13.0347H391.189ZM402.707 7.4711V13.0347H397.144V7.4711H402.707ZM373.246 13.0347V7.4711H378.731V13.0347H373.246ZM379.201 13.0347V7.4711H384.764V13.0347H379.201ZM409.21 28.5332V22.8902H414.695V28.5332H409.21ZM409.21 44.0318V38.3887H414.695V44.0318H409.21ZM414.695 7.4711V13.0347H409.21V7.4711H414.695ZM409.21 34.5737V29.0101H414.695V34.5737H409.21ZM409.21 22.4928V16.8497H414.695V22.4928H409.21ZM409.21 37.9119V35.1301H414.695V37.9119H409.21ZM409.21 16.2934V13.5116H414.695V16.2934H409.21ZM409.21 6.91474V1.35116H414.695V6.91474H409.21ZM409.21 50.1517V44.5087H414.695V50.1517H409.21ZM420.649 22.8902V28.5332H415.165V22.8902H420.649ZM373.246 28.5332V22.9697H378.731V28.5332H373.246ZM373.246 34.5737V29.0101H378.731V34.5737H373.246ZM378.731 22.4133H373.246L378.731 16.8497V22.4133ZM379.201 34.5737V29.0101H384.764V34.5737H379.201ZM379.201 22.4133V16.8497H384.764V22.4133H379.201ZM385.234 34.5737V29.0101H390.719V34.5737H385.234ZM385.234 22.4133V16.8497H390.719V22.4133H385.234ZM391.267 34.5737V29.0101H396.752V34.5737H391.267ZM391.267 22.4133V16.8497H396.752V22.4133H391.267ZM402.707 16.8497V22.4133H397.144V16.8497H402.707ZM397.144 34.5737V29.0101H402.707L397.144 34.5737ZM397.144 28.5332V22.9697H402.707V28.5332H397.144ZM402.707 38.3887V44.0318H397.144V38.3887H402.707ZM391.267 44.0318V38.3887H396.752V44.0318H391.267ZM379.201 44.0318V38.3887H384.764V44.0318H379.201ZM385.234 44.0318V38.3887H390.719V44.0318H385.234ZM385.234 37.9119V35.1301H390.719V37.9119H385.234ZM373.246 44.0318V38.3887H378.731V44.0318H373.246Z" fill="white"/>
<path d="M437.679 44.0318H430.863L437.679 37.1965V44.0318ZM438.228 44.0318V37.1965H444.966L438.228 44.0318ZM444.966 36.5607H438.228L444.966 29.7254V36.5607ZM445.593 29.0896V22.2543H452.331V29.0896H445.593ZM445.593 36.5607V29.7254H452.331V36.5607H445.593ZM459.618 37.1965V44.0318H452.88V37.1965H459.618ZM467.531 44.0318V37.1965H474.348V44.0318H467.531ZM467.531 44.6676H474.348L467.531 51.5029V44.6676ZM452.331 14.8627V21.698H445.593V14.8627H452.331ZM460.245 29.0896V22.2543H466.983V29.0896H460.245ZM467.531 36.5607V29.7254H474.348V36.5607H467.531ZM467.531 29.0896V22.2543H474.348V29.0896H467.531ZM482.262 44.0318V37.1965H489V44.0318H482.262ZM467.531 21.698V14.8627H474.348V21.698H467.531ZM482.262 36.5607V29.7254H489V36.5607H482.262ZM482.262 51.5029V44.6676H489V51.5029H482.262ZM438.228 14.3064V7.4711H444.966V14.3064H438.228ZM445.593 14.3064V7.4711H452.331V14.3064H445.593ZM459.618 7.4711V14.3064H452.88V7.4711H459.618ZM467.531 14.3064V7.4711H474.348V14.3064H467.531ZM482.262 14.3064V7.4711H489V14.3064H482.262ZM482.262 21.698V14.8627H489V21.698H482.262ZM482.262 29.0896V22.2543H489V29.0896H482.262ZM474.348 0V6.83526H467.531L474.348 0ZM482.262 6.83526V0H489V6.83526H482.262Z" fill="white"/>
</svg>
