<svg width="239" height="57" viewBox="0 0 239 57" fill="none" xmlns="http://www.w3.org/2000/svg">
<path d="M149.519 48.0347V41.7052H155.969V48.0347H149.519ZM121.365 27.3121H114.915L121.365 20.9827V27.3121ZM128.164 41.0983H121.888L128.164 34.8555V41.0983ZM121.888 27.3121V20.9827H128.251V27.3121H121.888ZM128.774 27.3121V20.9827H135.137V27.3121H128.774ZM128.774 41.0983V34.8555H135.137V41.0983H128.774ZM135.747 27.3121V20.9827H142.11V27.3121H135.747ZM135.747 41.0983V34.8555H142.11V41.0983H135.747ZM142.11 34.2486H135.747L142.11 27.9191V34.2486ZM142.633 34.2486V27.9191H148.996L142.633 34.2486ZM142.633 41.0983V34.8555H148.996V41.0983H142.633ZM128.164 13.6127H121.888L128.164 7.28324V13.6127ZM128.774 13.6127V7.28324H135.137V13.6127H128.774ZM135.747 13.6127V7.28324H142.11V13.6127H135.747ZM142.633 27.3121V20.9827H148.996V27.3121H142.633ZM142.633 13.6127V7.28324H148.996V13.6127H142.633ZM149.519 27.3121V20.9827H155.969V27.3121H149.519ZM149.519 41.0983V34.8555H155.969V41.0983H149.519ZM149.519 20.4624V14.1329H155.969V20.4624H149.519ZM149.519 13.6127V7.28324H155.969V13.6127H149.519ZM156.492 20.9827H162.855L156.492 27.3121V20.9827Z" fill="white"/>
<path d="M181.66 48.0347H174.076L181.66 40.578V48.0347ZM182.27 48.0347V40.578H189.766L182.27 48.0347ZM189.766 39.8844H182.27L189.766 32.4277V39.8844ZM190.463 31.7341V24.2775H197.96V31.7341H190.463ZM190.463 39.8844V32.4277H197.96V39.8844H190.463ZM206.066 40.578V48.0347H198.57V40.578H206.066ZM214.87 48.0347V40.578H222.453V48.0347H214.87ZM214.87 48.7283H222.453L214.87 56.185V48.7283ZM197.96 16.2139V23.6705H190.463V16.2139H197.96ZM206.763 31.7341V24.2775H214.259V31.7341H206.763ZM214.87 39.8844V32.4277H222.453V39.8844H214.87ZM214.87 31.7341V24.2775H222.453V31.7341H214.87ZM231.257 48.0347V40.578H238.753V48.0347H231.257ZM214.87 23.6705V16.2139H222.453V23.6705H214.87ZM231.257 39.8844V32.4277H238.753V39.8844H231.257ZM231.257 56.185V48.7283H238.753V56.185H231.257ZM182.27 15.6069V8.15029H189.766V15.6069H182.27ZM190.463 15.6069V8.15029H197.96V15.6069H190.463ZM206.066 8.15029V15.6069H198.57V8.15029H206.066ZM214.87 15.6069V8.15029H222.453V15.6069H214.87ZM231.257 15.6069V8.15029H238.753V15.6069H231.257ZM231.257 23.6705V16.2139H238.753V23.6705H231.257ZM231.257 31.7341V24.2775H238.753V31.7341H231.257ZM222.453 0V7.45665H214.87L222.453 0ZM231.257 7.45665V0H238.753V7.45665H231.257Z" fill="white"/>
<path d="M16.1255 16.0407L23.5345 8.67073V16.0407H16.1255ZM16.1255 40.058V32.6881H23.5345V40.058H16.1255ZM16.1255 31.9944V24.6245H23.5345V31.9944H16.1255ZM16.1255 24.0175V16.6476H23.5345V24.0175H16.1255ZM48.2893 16.0407V8.67073H55.6983V16.0407H48.2893ZM48.2893 24.0175V16.6476H55.6983V24.0175H48.2893ZM48.2893 7.97708L55.6983 0.693848V7.97708H48.2893ZM48.2893 48.0349V40.6649H55.6983V48.0349H48.2893ZM48.2893 40.058V32.6881H55.6983V40.058H48.2893ZM48.2893 31.9944V24.6245H55.6983V31.9944H48.2893ZM48.2893 48.7285H55.6983L48.2893 56.0118V48.7285ZM8.10633 39.9713L15.4282 32.6881V39.9713H8.10633ZM8.01917 48.0349V40.6649H15.4282L8.01917 48.0349ZM0 48.0349L7.49618 40.6649V48.0349H0ZM32.251 31.9944V24.6245H39.66V31.9944H32.251ZM40.2702 24.6245H47.6792L40.2702 31.9944V24.6245ZM31.5537 40.6649V48.0349H24.1447V40.6649H31.5537Z" fill="white"/>
<path d="M72.2249 47.5147V45.0869H77.1062V47.5147H72.2249ZM77.542 44.6534V39.7979H82.4232V44.6534H77.542ZM77.542 52.8037V47.9482H82.4232V52.8037H77.542ZM82.8591 52.8037V47.9482H87.7403V52.8037H82.8591ZM88.1761 52.8037V47.9482H93.0573V52.8037H88.1761ZM93.4932 47.9482H98.3744L93.4932 52.8037V47.9482ZM66.9079 28.2661L71.7891 23.4106V28.2661H66.9079ZM72.2249 20.1158V15.2603H77.1062V20.1158H72.2249ZM72.2249 36.5031V31.5609H77.1062V36.5031H72.2249ZM72.2249 52.8037V47.9482H77.1062V52.8037H72.2249ZM72.2249 44.6534V39.7979H77.1062V44.6534H72.2249ZM72.2249 28.2661V23.4106H77.1062V28.2661H72.2249ZM77.542 36.5031V31.5609H82.4232V36.5031H77.542ZM77.542 28.2661V23.4106H82.4232V28.2661H77.542ZM79.9826 31.1274L82.4232 28.6996V31.1274H79.9826ZM82.8591 28.6996H87.7403L85.2997 31.1274H82.8591V28.6996ZM82.8591 36.5031V31.5609H87.7403V36.5031H82.8591ZM82.8591 28.2661V23.4106H87.7403V28.2661H82.8591ZM82.8591 44.6534V39.7979H87.7403V44.6534H82.8591ZM88.1761 36.5031V31.5609H93.0573V36.5031H88.1761ZM93.4932 36.5031V31.5609H98.3744V36.5031H93.4932ZM72.2249 14.8268V9.8846H77.1062V14.8268H72.2249ZM88.1761 28.2661V23.4106H93.0573V28.2661H88.1761ZM88.1761 44.6534V39.7979H93.0573V44.6534H88.1761ZM93.4932 28.2661V23.4106H98.3744V28.2661H93.4932ZM93.4932 44.6534V39.7979H98.3744V44.6534H93.4932ZM93.4932 39.3644V36.9366H98.3744V39.3644H93.4932ZM77.1062 4.59558V9.45107H72.2249L77.1062 4.59558ZM77.542 9.45107V4.59558H82.4232V9.45107H77.542ZM77.542 20.1158V15.2603H82.4232V20.1158H77.542ZM82.8591 9.45107V4.59558H87.7403V9.45107H82.8591ZM82.8591 20.1158V15.2603H87.7403V20.1158H82.8591ZM88.1761 9.45107V4.59558H93.0573V9.45107H88.1761ZM88.1761 20.1158V15.2603H93.0573V20.1158H88.1761ZM93.4932 15.2603H98.3744L93.4932 20.1158V15.2603ZM98.8102 23.4106H103.691L98.8102 28.2661V23.4106ZM93.4932 9.45107V4.59558H98.3744V9.45107H93.4932ZM93.4932 14.8268V9.8846H98.3744V14.8268H93.4932Z" fill="white"/>
</svg>
