<?xml version="1.0" encoding="UTF-8"?>
<svg id="uuid-2738bc4c-5e24-414c-9661-d4fc83ae42f0" data-name="Layer 2" xmlns="http://www.w3.org/2000/svg" viewBox="0 0 34.78 9.59">
  <defs>
    <style>
      .uuid-62ce015e-301e-49b5-bbd9-5245ac472624 {
        fill: #fff;
      }
    </style>
  </defs>
  <g id="uuid-407f6e68-278d-429a-9d6d-280580872efc" data-name="Layer 1">
    <rect class="uuid-62ce015e-301e-49b5-bbd9-5245ac472624" y="5.44" width="1.1" height=".55"/>
    <rect class="uuid-62ce015e-301e-49b5-bbd9-5245ac472624" x="2.39" y="5.44" width="1.1" height=".55"/>
    <polygon class="uuid-62ce015e-301e-49b5-bbd9-5245ac472624" points="0 2.96 1.1 1.85 1.1 2.96 0 2.96"/>
    <rect class="uuid-62ce015e-301e-49b5-bbd9-5245ac472624" x="2.39" y="6.09" width="1.1" height="1.1"/>
    <rect class="uuid-62ce015e-301e-49b5-bbd9-5245ac472624" x="2.39" y="1.85" width="1.1" height="1.11"/>
    <rect class="uuid-62ce015e-301e-49b5-bbd9-5245ac472624" x="2.39" y="4.25" width="1.1" height="1.1"/>
    <rect class="uuid-62ce015e-301e-49b5-bbd9-5245ac472624" x="2.39" y="3.05" width="1.1" height="1.11"/>
    <rect class="uuid-62ce015e-301e-49b5-bbd9-5245ac472624" x="1.19" y="1.85" width="1.11" height="1.11"/>
    <rect class="uuid-62ce015e-301e-49b5-bbd9-5245ac472624" y="6.09" width="1.1" height="1.1"/>
    <rect class="uuid-62ce015e-301e-49b5-bbd9-5245ac472624" y="4.25" width="1.1" height="1.1"/>
    <rect class="uuid-62ce015e-301e-49b5-bbd9-5245ac472624" x="1.19" y="6.09" width="1.11" height="1.1"/>
    <rect class="uuid-62ce015e-301e-49b5-bbd9-5245ac472624" y="3.05" width="1.1" height="1.11"/>
    <rect class="uuid-62ce015e-301e-49b5-bbd9-5245ac472624" x="4.79" y="1.3" width="1.1" height="1.1"/>
    <rect class="uuid-62ce015e-301e-49b5-bbd9-5245ac472624" x="4.79" y="3.69" width="1.1" height="1.11"/>
    <rect class="uuid-62ce015e-301e-49b5-bbd9-5245ac472624" x="4.79" y="2.5" width="1.1" height="1.1"/>
    <rect class="uuid-62ce015e-301e-49b5-bbd9-5245ac472624" x="4.79" y="7.29" width="1.1" height="1.1"/>
    <rect class="uuid-62ce015e-301e-49b5-bbd9-5245ac472624" x="4.79" y="4.89" width="1.1" height="1.1"/>
    <rect class="uuid-62ce015e-301e-49b5-bbd9-5245ac472624" x="4.79" y="6.09" width="1.1" height="1.1"/>
    <rect class="uuid-62ce015e-301e-49b5-bbd9-5245ac472624" x="5.99" y="3.69" width="1.1" height="1.11"/>
    <polygon class="uuid-62ce015e-301e-49b5-bbd9-5245ac472624" points="8.29 .1 8.29 1.2 7.18 1.2 8.29 .1"/>
    <rect class="uuid-62ce015e-301e-49b5-bbd9-5245ac472624" x="7.18" y="3.69" width="1.11" height="1.11"/>
    <rect class="uuid-62ce015e-301e-49b5-bbd9-5245ac472624" x="7.18" y="1.3" width="1.11" height="1.1"/>
    <rect class="uuid-62ce015e-301e-49b5-bbd9-5245ac472624" x="7.18" y="2.5" width="1.11" height="1.1"/>
    <polygon class="uuid-62ce015e-301e-49b5-bbd9-5245ac472624" points="7.18 8.49 8.29 8.49 7.18 9.59 7.18 8.49"/>
    <rect class="uuid-62ce015e-301e-49b5-bbd9-5245ac472624" x="7.18" y="7.29" width="1.11" height="1.1"/>
    <rect class="uuid-62ce015e-301e-49b5-bbd9-5245ac472624" x="7.18" y="6.09" width="1.11" height="1.1"/>
    <rect class="uuid-62ce015e-301e-49b5-bbd9-5245ac472624" x="7.18" y="4.89" width="1.11" height="1.1"/>
    <rect class="uuid-62ce015e-301e-49b5-bbd9-5245ac472624" x="10.78" y=".65" width="1.1" height="1.1"/>
    <rect class="uuid-62ce015e-301e-49b5-bbd9-5245ac472624" x="9.58" y=".65" width="1.1" height="1.1"/>
    <polygon class="uuid-62ce015e-301e-49b5-bbd9-5245ac472624" points="9.58 4.15 10.68 3.05 10.68 4.15 9.58 4.15"/>
    <rect class="uuid-62ce015e-301e-49b5-bbd9-5245ac472624" x="10.78" y="1.85" width="1.1" height="1.1"/>
    <rect class="uuid-62ce015e-301e-49b5-bbd9-5245ac472624" x="11.98" y=".65" width="1.1" height="1.1"/>
    <polygon class="uuid-62ce015e-301e-49b5-bbd9-5245ac472624" points="10.78 3.05 11.88 3.05 10.78 4.15 10.78 3.05"/>
    <rect class="uuid-62ce015e-301e-49b5-bbd9-5245ac472624" x="14.37" y="3.05" width="1.1" height="1.1"/>
    <rect class="uuid-62ce015e-301e-49b5-bbd9-5245ac472624" x="11.98" y="3.05" width="1.1" height="1.1"/>
    <rect class="uuid-62ce015e-301e-49b5-bbd9-5245ac472624" x="14.37" y=".65" width="1.1" height="1.1"/>
    <rect class="uuid-62ce015e-301e-49b5-bbd9-5245ac472624" x="14.37" y="1.85" width="1.1" height="1.1"/>
    <rect class="uuid-62ce015e-301e-49b5-bbd9-5245ac472624" x="15.57" y="1.85" width="1.1" height="1.1"/>
    <polygon class="uuid-62ce015e-301e-49b5-bbd9-5245ac472624" points="10.78 5.99 11.88 4.89 11.88 5.99 10.78 5.99"/>
    <rect class="uuid-62ce015e-301e-49b5-bbd9-5245ac472624" x="10.78" y="7.29" width="1.1" height="1.1"/>
    <rect class="uuid-62ce015e-301e-49b5-bbd9-5245ac472624" x="10.78" y="6.09" width="1.1" height="1.1"/>
    <rect class="uuid-62ce015e-301e-49b5-bbd9-5245ac472624" x="13.17" y="4.89" width="1.11" height="1.1"/>
    <rect class="uuid-62ce015e-301e-49b5-bbd9-5245ac472624" x="11.98" y="7.29" width="1.1" height="1.1"/>
    <rect class="uuid-62ce015e-301e-49b5-bbd9-5245ac472624" x="11.98" y="4.89" width="1.1" height="1.1"/>
    <rect class="uuid-62ce015e-301e-49b5-bbd9-5245ac472624" x="13.17" y="7.29" width="1.11" height="1.1"/>
    <rect class="uuid-62ce015e-301e-49b5-bbd9-5245ac472624" x="14.37" y="4.89" width="1.1" height="1.1"/>
    <polygon class="uuid-62ce015e-301e-49b5-bbd9-5245ac472624" points="14.37 7.29 15.47 7.29 14.37 8.39 14.37 7.29"/>
    <rect class="uuid-62ce015e-301e-49b5-bbd9-5245ac472624" x="14.37" y="6.09" width="1.1" height="1.1"/>
    <rect class="uuid-62ce015e-301e-49b5-bbd9-5245ac472624" x="31.28" y="7.94" width="1.1" height="1.1"/>
    <rect class="uuid-62ce015e-301e-49b5-bbd9-5245ac472624" x="27.69" y="6.74" width="1.1" height="1.1"/>
    <rect class="uuid-62ce015e-301e-49b5-bbd9-5245ac472624" x="32.48" y="7.94" width="1.1" height="1.1"/>
    <rect class="uuid-62ce015e-301e-49b5-bbd9-5245ac472624" x="27.69" y="7.94" width="1.1" height="1.1"/>
    <rect class="uuid-62ce015e-301e-49b5-bbd9-5245ac472624" x="30.08" y="7.94" width="1.1" height="1.1"/>
    <rect class="uuid-62ce015e-301e-49b5-bbd9-5245ac472624" x="28.88" y="7.94" width="1.11" height="1.1"/>
    <rect class="uuid-62ce015e-301e-49b5-bbd9-5245ac472624" x="27.69" y="4.24" width="1.1" height="1.1"/>
    <rect class="uuid-62ce015e-301e-49b5-bbd9-5245ac472624" x="28.89" y="4.24" width="1.1" height="1.1"/>
    <rect class="uuid-62ce015e-301e-49b5-bbd9-5245ac472624" x="30.08" y="4.24" width="1.11" height="1.1"/>
    <rect class="uuid-62ce015e-301e-49b5-bbd9-5245ac472624" x="30.08" y="5.44" width="1.11" height=".55"/>
    <rect class="uuid-62ce015e-301e-49b5-bbd9-5245ac472624" x="32.48" y="4.24" width="1.1" height="1.1"/>
    <rect class="uuid-62ce015e-301e-49b5-bbd9-5245ac472624" x="31.28" y="4.24" width="1.1" height="1.1"/>
    <rect class="uuid-62ce015e-301e-49b5-bbd9-5245ac472624" x="30.08" y="6.09" width="1.11" height="1.1"/>
    <rect class="uuid-62ce015e-301e-49b5-bbd9-5245ac472624" x="20.36" y="1.85" width="1.1" height=".56"/>
    <rect class="uuid-62ce015e-301e-49b5-bbd9-5245ac472624" x="20.37" y="6.08" width="1.1" height="1.1"/>
    <rect class="uuid-62ce015e-301e-49b5-bbd9-5245ac472624" x="20.37" y="7.27" width="1.1" height="1.11"/>
    <rect class="uuid-62ce015e-301e-49b5-bbd9-5245ac472624" x="22.77" y="7.29" width="1.1" height="1.1"/>
    <rect class="uuid-62ce015e-301e-49b5-bbd9-5245ac472624" x="21.57" y="7.29" width="1.1" height="1.1"/>
    <g>
      <polygon class="uuid-62ce015e-301e-49b5-bbd9-5245ac472624" points="20.37 5.99 21.47 4.89 21.47 5.99 20.37 5.99"/>
      <rect class="uuid-62ce015e-301e-49b5-bbd9-5245ac472624" x="21.57" y="4.89" width="1.1" height="1.1"/>
      <rect class="uuid-62ce015e-301e-49b5-bbd9-5245ac472624" x="22.77" y="4.89" width="1.1" height="1.1"/>
      <rect class="uuid-62ce015e-301e-49b5-bbd9-5245ac472624" x="23.98" y="4.89" width="1.1" height="1.1"/>
    </g>
    <polygon class="uuid-62ce015e-301e-49b5-bbd9-5245ac472624" points="23.98 7.27 25.08 7.27 23.98 8.38 23.98 7.27"/>
    <rect class="uuid-62ce015e-301e-49b5-bbd9-5245ac472624" x="23.98" y="6.08" width="1.1" height="1.1"/>
    <rect class="uuid-62ce015e-301e-49b5-bbd9-5245ac472624" x="19.17" y=".65" width="1.1" height="1.1"/>
    <rect class="uuid-62ce015e-301e-49b5-bbd9-5245ac472624" x="19.16" y="1.85" width="1.1" height="1.11"/>
    <rect class="uuid-62ce015e-301e-49b5-bbd9-5245ac472624" x="21.57" y="1.85" width="1.1" height="1.1"/>
    <rect class="uuid-62ce015e-301e-49b5-bbd9-5245ac472624" x="21.57" y=".65" width="1.1" height="1.1"/>
    <rect class="uuid-62ce015e-301e-49b5-bbd9-5245ac472624" x="20.37" y="3.59" width="1.1" height=".56"/>
    <rect class="uuid-62ce015e-301e-49b5-bbd9-5245ac472624" x="19.17" y="3.05" width="1.1" height="1.1"/>
    <rect class="uuid-62ce015e-301e-49b5-bbd9-5245ac472624" x="21.57" y="3.05" width="1.1" height="1.1"/>
    <rect class="uuid-62ce015e-301e-49b5-bbd9-5245ac472624" x="23.97" y="3.05" width="1.1" height="1.1"/>
    <rect class="uuid-62ce015e-301e-49b5-bbd9-5245ac472624" x="23.97" y="1.84" width="1.1" height="1.11"/>
    <rect class="uuid-62ce015e-301e-49b5-bbd9-5245ac472624" x="23.97" y=".65" width="1.1" height="1.1"/>
    <rect class="uuid-62ce015e-301e-49b5-bbd9-5245ac472624" x="25.16" y="1.84" width="1.11" height="1.11"/>
    <rect class="uuid-62ce015e-301e-49b5-bbd9-5245ac472624" x="28.89" y="2.39" width="1.1" height="1.1"/>
    <rect class="uuid-62ce015e-301e-49b5-bbd9-5245ac472624" x="27.69" width="1.1" height="1.1"/>
    <rect class="uuid-62ce015e-301e-49b5-bbd9-5245ac472624" x="27.69" y="2.39" width="1.1" height="1.1"/>
    <rect class="uuid-62ce015e-301e-49b5-bbd9-5245ac472624" x="30.08" y="2.39" width="1.11" height="1.1"/>
    <rect class="uuid-62ce015e-301e-49b5-bbd9-5245ac472624" x="30.08" width="1.11" height="1.1"/>
    <rect class="uuid-62ce015e-301e-49b5-bbd9-5245ac472624" x="28.89" width="1.1" height="1.1"/>
    <rect class="uuid-62ce015e-301e-49b5-bbd9-5245ac472624" x="31.28" y="2.39" width="1.1" height="1.1"/>
    <rect class="uuid-62ce015e-301e-49b5-bbd9-5245ac472624" x="31.28" width="1.1" height="1.1"/>
    <rect class="uuid-62ce015e-301e-49b5-bbd9-5245ac472624" x="27.69" y="1.19" width="1.1" height="1.11"/>
    <rect class="uuid-62ce015e-301e-49b5-bbd9-5245ac472624" x="32.48" y="1.19" width="1.1" height="1.11"/>
    <rect class="uuid-62ce015e-301e-49b5-bbd9-5245ac472624" x="32.48" y="2.39" width="1.1" height="1.1"/>
    <rect class="uuid-62ce015e-301e-49b5-bbd9-5245ac472624" x="32.48" width="1.1" height="1.1"/>
    <polygon class="uuid-62ce015e-301e-49b5-bbd9-5245ac472624" points="27.59 4.24 27.59 5.34 26.49 5.34 27.59 4.24"/>
    <polygon class="uuid-62ce015e-301e-49b5-bbd9-5245ac472624" points="34.78 4.24 33.68 5.34 33.68 4.24 34.78 4.24"/>
  </g>
</svg>