<svg width="5133" height="389" viewBox="0 0 5133 389" fill="none" xmlns="http://www.w3.org/2000/svg">
<path d="M3 327.526C154.377 346.852 312.359 364.564 461.485 328.896C513.396 316.811 560.609 295.136 606.502 266.611C657.874 240.043 776.03 135.338 825.152 190.332C848.734 228.936 806.756 282.414 768.006 295.478C725.783 313.924 691.535 276.935 706.8 235.688C716.047 201.684 755.432 168.56 784.592 165.771C798.683 163.422 816.345 169.636 816.688 185.831C805.092 256.238 674.998 293.521 625.632 233.829C580.082 182.7 595.102 92.0855 638.059 44.4788C690.948 -12.0817 752.448 48.3441 788.947 101.48C815.171 134.848 908.375 305.704 937.241 202.564C948.69 135.044 888.413 24.1248 802.891 61.8481C730.089 91.3516 688.012 173.012 647.208 237.156C625.191 272.091 603.322 301.349 582.088 317.251C518.288 365.298 483.942 280.311 487.416 224.435C488.492 184.021 507.231 143.46 540.109 120.904C626.317 65.3709 721.918 159.997 761.988 241.707C785.717 287.796 798.536 372.539 719.374 338.486C606.844 295.038 452.434 107.057 651.318 67.2302C797.117 40.8581 937.192 202.956 765.951 287.992C693.835 315.49 595.689 321.508 521.566 290.487C490.303 278.353 462.366 246.55 480.958 224.826C538.641 166.847 652.883 202.662 719.912 234.71C780.825 263.626 816.639 307.074 867.522 326.694C911.555 330.902 827.109 161.318 744.13 185.146C679.891 187.592 566.285 325.715 516.282 271.504C488.15 216.46 523.964 143.704 572.302 85.1377C623.088 26.0819 723.777 -8.85248 785.032 53.4325C852.208 125.307 855.094 274.733 788.311 346.314C726.517 411.682 608.948 389.273 550.139 329.972C431.298 199.335 644.321 42.6684 767.811 128.292C880.487 212.252 759.787 357.225 645.447 339.024C528.758 324.052 508.943 190.724 613.89 144.732C667.317 119.925 741.391 125.112 779.797 173.501C807.098 209.218 807.196 258.097 810.67 295.772C815.66 378.802 891.936 246.844 904.167 222.429C927.994 177.073 944.091 116.109 918.258 73.8843C893.306 31.3661 838.557 26.4244 794.573 42.5706C693.688 74.0311 613.107 206.479 537.956 256.042C487.856 288.922 466.182 237.205 476.261 191.409C491.036 91.4983 593.781 8.81044 688.453 75.8415C769.327 129.124 802.842 242.832 882.346 297.386C1011.9 372.931 1096.05 153.637 950.5 100.892C796.97 53.5793 682.19 200.46 585.268 299.441C548.622 336.431 489.764 361.188 489.226 287.209C493.483 172.669 605.817 59.7442 701.467 180.449C739.58 213.818 798.487 387.169 845.603 367.989C882.102 337.801 858.862 239.994 817.96 217.389C740.901 184.167 672.014 290.536 620.005 324.933C570.345 364.075 544.806 325.373 546.518 271.797C547.008 221.402 574.944 108.574 634.341 136.805C701.614 164.058 731.263 462.175 785.179 289.313C800.004 243.419 816.1 154.224 824.271 113.027C824.565 117.577 812.333 177.122 807.343 199.139C800.004 245.914 753.377 395.095 813.263 285.448C829.115 262.99 881.808 153.392 904.803 166.749C914.54 182.015 897.366 245.229 885.624 271.406C832.295 401.064 742.027 357.323 705.381 242.93C696.672 215.237 691.339 186.663 696.77 159.263C699.755 137.882 719.863 124.329 728.181 157.208C740.412 208.582 711.448 288.873 658.07 301.741C557.967 304.872 629.203 134.359 712.182 199.775C811.061 301.937 672.16 435.558 569.612 332.076C543.436 304.383 527.144 254.232 553.221 222.918C562.958 212.643 576.999 214.943 572.156 230.649C563.643 257.412 512.515 274.195 491.672 252.03C465.742 210.393 534.532 205.745 561.147 216.362C621.718 233.536 680.135 273.558 745.647 277.864C865.516 285.154 976.871 218.955 1094.64 209.414C1154.52 204.424 1218.91 219.885 1278.65 232.802C1406.59 267.051 1515.74 221.548 1627.64 158.48C1627.64 158.48 1644.51 149.869 1644.56 149.82C1761.35 90.0305 1894.53 83.1317 2022.76 96.9293C2077.71 102.85 2136.32 105.932 2188.28 123.252C2367.49 182.895 2558.94 211.861 2747.5 191.947C2829.6 183.287 2921.24 168.755 2996.83 135.974C3083.38 98.3972 3158.72 46.2891 3251.39 21.1892C3351.1 -5.77004 3462.02 -6.01467 3553.07 42.7174C3647.45 93.2597 3710.07 180.889 3810.61 223.261C3929.65 273.461 4080 285.105 4197.23 222.233C4232.84 203.103 4262.74 168.07 4264.21 127.656C4265.67 87.2416 4230.06 45.9466 4189.94 51.1329C4158.33 55.2429 4134.8 86.0184 4131.52 117.724C4128.24 149.429 4141.65 180.84 4160.43 206.576C4195.71 254.819 4251.29 287.748 4310.54 295.478C4366.8 302.817 4421.36 285.448 4468.37 254.232C4499.83 233.34 4526.35 202.858 4535.4 166.211C4544.45 129.564 4533.15 86.8502 4502.67 64.637C4472.14 42.4238 4423.07 47.5612 4402.57 79.2175C4386.23 104.415 4391.02 139.448 4408.59 163.814C4426.15 188.18 4454.23 203.103 4483.1 211.567C4549.79 231.089 4620.09 217.292 4677.92 180.4C4735.02 143.949 4760.32 85.5781 4837.57 86.6545C4888.01 87.3395 4935.67 108.232 4982.73 126.384C5029.8 144.536 5080.44 160.584 5130 151.19" stroke="#0E0E0E" stroke-width="6" stroke-linecap="round"/>
</svg>
